<?xml version="1.0" encoding="UTF-8" standalone="no"?>
<svg
   width="1080"
   height="500"
   version="1.1"
   viewBox="0 0 285.74743 132.28754"
   id="svg3"
   sodipodi:docname="brandforge-word-mark-white.svg"
   inkscape:version="1.4 (e7c3feb100, 2024-10-09)"
   xmlns:inkscape="http://www.inkscape.org/namespaces/inkscape"
   xmlns:sodipodi="http://sodipodi.sourceforge.net/DTD/sodipodi-0.dtd"
   xmlns="http://www.w3.org/2000/svg"
   xmlns:svg="http://www.w3.org/2000/svg">
  <defs
     id="defs3" />
  <sodipodi:namedview
     id="namedview3"
     pagecolor="#505050"
     bordercolor="#ffffff"
     borderopacity="1"
     inkscape:showpageshadow="0"
     inkscape:pageopacity="0"
     inkscape:pagecheckerboard="1"
     inkscape:deskcolor="#505050"
     inkscape:zoom="0.849514"
     inkscape:cx="665.67473"
     inkscape:cy="293.69734"
     inkscape:window-width="2560"
     inkscape:window-height="1564"
     inkscape:window-x="0"
     inkscape:window-y="0"
     inkscape:window-maximized="1"
     inkscape:current-layer="svg3" />
  <g
     id="g6"
     transform="matrix(1.0000468,0,0,0.99818373,3.9615844,0.26779373)">
    <path
       id="path4"
       style="stroke:#000000;stroke-width:7.93743;stroke-linecap:round;stroke-linejoin:round;stroke-dasharray:none;stroke-opacity:1;paint-order:stroke fill markers"
       d="m 124.26003,3.7026723 c -0.23226,0 -0.41306,0.116036 -0.54208,0.348296 -1.9613,4.0257 -3.84488,8.1035187 -5.65128,12.2322187 -1.8065,4.1033 -3.63878,8.193575 -5.49678,12.270975 -2.2451,4.9551 -4.52921,9.896735 -6.85171,14.825835 -1.97798,4.245077 -3.98432,8.490096 -6.000616,12.735025 -0.92431,-1.203128 -1.834562,-2.392369 -2.717123,-3.553756 -0.98065,-1.2903 -1.794005,-2.387009 -2.439105,-3.290209 -0.64515,-0.92904 -0.967374,-1.445012 -0.967374,-1.548212 0,-0.15484 0.14194,-0.322684 0.42581,-0.503324 3.2257,-1.8838 5.561127,-4.361137 7.006228,-7.432037 1.4709,-3.0969 2.20656,-6.477426 2.20656,-10.141926 0,-4.8513 -0.99357,-8.696509 -2.98067,-11.535109 -1.961297,-2.8645 -4.671143,-4.915908 -8.129143,-6.154608 C 91.463785,11.714869 90.771561,11.518393 90.077929,11.323327 88.995583,10.634285 87.843621,10.020538 86.552594,9.5580762 85.384885,9.1310631 84.142615,8.8031986 82.866031,8.5204228 82.2575,8.2228022 81.646607,7.9276983 80.982959,7.68999 77.525059,6.42549 73.589967,5.793482 69.177067,5.793482 H 52.686749 c -1.3419,0 -2.013296,0.6838359 -2.013296,2.0515359 0,1.3677 0.0259,2.7483291 0.07751,4.1418291 0.05161,1.3677 0.09047,2.735271 0.116271,4.103071 0.01519,0.850949 0.02113,1.701869 0.03411,2.552793 -0.264859,-0.558761 -0.569611,-1.089363 -0.932752,-1.578184 -1.3161,-1.8064 -3.044817,-3.212426 -5.186717,-4.218826 -1.232152,-0.601024 -2.538537,-1.065132 -3.884482,-1.456229 -0.532631,-0.342467 -1.088996,-0.661684 -1.68567,-0.942052 -1.727321,-0.8425602 -3.595601,-1.4246977 -5.546382,-1.8546509 -0.0082,-0.00386 -0.01507,-0.00907 -0.02325,-0.012919 -2.1161,-1.0322 -4.400216,-1.7549068 -6.851716,-2.1678068 -2.4515,-0.41289 -4.786928,-0.6190781 -7.006228,-0.6190781 H 2.0174298 2.016913 c -1.3419,0 -2.01277892,0.6838359 -2.01277892,2.0515359 h -5.1676e-4 c 0,1.3677 0.02538519,2.7483289 0.07699719,4.1418289 0.051614,1.3677 0.09046593,2.735272 0.11627093,4.103072 0.051614,2.8903 0.0904659,5.78041 0.11627092,8.67071 0.025806,2.8645 0.038757,5.742171 0.038757,8.632471 0,2.8903 -0.012951,5.78041 -0.038757,8.67071 -0.025808,2.8903 -0.0646599,5.780411 -0.11627092,8.670711 -0.025808,1.3677 -0.0646599,2.748328 -0.11627093,4.141828 -0.051612,1.3677 -0.07699719,2.735272 -0.07699719,4.103072 0,1.3678 0.67082892,2.052053 2.01277888,2.052053 h 3.5826949 c 0.065446,1.230754 0.7144703,1.867053 1.9874577,1.867053 H 11.15064 c -3.7e-4,0.115575 -0.0067,0.231176 -0.0067,0.346745 0,1.3677 0.670819,2.051536 2.012779,2.051536 3.900948,0 241.182401,-1.199174 248.548461,-3.172904 4.2835,-2.1161 7.67605,-5.148221 10.17965,-9.096521 2.5032,-3.9738 3.75478,-8.696566 3.75478,-14.166966 0,-6.374 -1.31584,-11.690237 -3.94804,-15.948237 -2.6325,-4.2838 -6.28369,-7.496702 -10.95479,-9.638602 -1.23779,-0.570755 -2.53528,-1.053081 -3.8757,-1.471731 -0.56463,-0.309354 -1.09849,-0.651265 -1.69652,-0.925517 -1.83501,-0.846137 -3.81552,-1.476546 -5.87608,-1.9884909 -4.57625,-2.051574 -9.83454,-3.0928066 -15.79476,-3.0928066 h -16.29601 l -5.2e-4,5.167e-4 c -1.3161,0 -1.97402,0.6838359 -1.97402,2.0515359 0,0.7383035 0.0269,1.4765663 0.0424,2.2148319 h -3.37909 c 3.6e-4,-0.1146754 0.007,-0.2322574 0.007,-0.3467456 0,-1.3677 -0.65791,-2.0515359 -1.97402,-2.0515359 h -3.62197 c -0.0641,-1.2307629 -0.70021,-1.8670527 -1.9487,-1.8670527 h -10.83904 c -1.3161,0 -1.97402,0.6579119 -1.97402,1.9740219 V 20.350085 c 0.0173,2.805183 0.0198,5.624865 0.0253,8.441786 -2.20253,-1.937423 -4.41965,-3.853125 -6.614,-5.802694 -5.5224,-4.9291 -11.14786,-9.729225 -16.87686,-14.4000252 -0.18064,-0.12903 -0.34797,-0.1937849 -0.5028,-0.1937849 -0.20646,0 -0.31006,0.090659 -0.31006,0.2712988 0,0.5078527 0.0296,1.0156113 0.0377,1.5234073 -1.59622,-1.3352257 -3.18137,-2.6839428 -4.79398,-3.9986861 -0.18064,-0.12903 -0.34849,-0.1932681 -0.50332,-0.1932681 l -5.2e-4,-5.168e-4 c -0.20645,0 -0.30954,0.090144 -0.30954,0.2707821 0,0.6886568 0.0358,1.3773268 0.0507,2.0660052 -1.60087,-1.3392063 -3.19059,-2.6919687 -4.80794,-4.0105718 -0.18064,-0.12903 -0.34796,-0.1932682 -0.5028,-0.1932682 l -5.2e-4,-5.167e-4 c -0.20645,0 -0.31006,0.090144 -0.31006,0.270782 0,1.5742 0.0388,3.1484667 0.11628,4.7226667 0.0774,1.5483997 0.12922,3.1098097 0.15502,4.6839097 0.15483,6.529 0.23203,13.097013 0.23203,19.703013 0,2.8903 -0.0259,5.767453 -0.0775,8.631953 -0.0258,2.8645 -0.0642,5.741654 -0.11575,8.631954 -0.0127,0.660221 -0.0384,1.346145 -0.0574,2.01898 -0.80777,-1.701856 -1.62255,-3.41089 -2.42722,-5.10972 -2.2967,-4.9288 -4.58082,-9.883575 -6.85172,-14.864075 -1.8581,-4.0775 -3.69037,-8.167775 -5.49677,-12.270975 -1.8064,-4.1289 -3.68998,-8.206718 -5.65128,-12.2322183 -0.10322,-0.23225 -0.28402,-0.348296 -0.54208,-0.348296 h -5.2e-4 c -0.23225,0 -0.41305,0.116036 -0.54208,0.348296 -0.58612,1.203055 -1.11652,2.4432543 -1.68877,3.6555583 -0.93273,-2.0174908 -1.82662,-4.0609468 -2.79722,-6.0533232 -0.10322,-0.23225 -0.28351,-0.348296 -0.54157,-0.348296 -0.23225,0 -0.41305,0.116036 -0.54208,0.348296 -0.62861,1.2902792 -1.1985,2.6197931 -1.81124,3.9206556 -0.89334,-1.9281029 -1.74615,-3.8833694 -2.67423,-5.7882251 -0.10323,-0.23225 -0.28402,-0.348296 -0.54208,-0.348296 z M 51.003146,29.187709 c 0.006,1.401987 0.0186,2.797353 0.0186,4.20539 0,2.173367 -0.01448,4.346647 -0.02894,6.519957 -1.304985,-1.313213 -2.841609,-2.480713 -4.623966,-3.493812 -0.10323,-0.05161 -0.219266,-0.115848 -0.348296,-0.193268 -0.12903,-0.10323 -0.193784,-0.232223 -0.193784,-0.387053 0,-0.12903 0.0518,-0.232636 0.155027,-0.310056 0.10322,-0.10322 0.206309,-0.193362 0.309539,-0.270782 1.8323,-1.4452 3.238743,-3.096692 4.219343,-4.954692 0.187491,-0.360201 0.340842,-0.737556 0.492472,-1.115684 z m -31.1089,39.026207 h -5.17e-4 c -1.315715,1.97e-4 -1.974022,0.671026 -1.974022,2.012779 h 5.17e-4 c 0,1.3677 0.01295,2.748329 0.03876,4.141829 0.05161,1.3677 0.08995,2.735272 0.115754,4.103072 0.05161,2.8903 0.09046,5.78041 0.116271,8.67071 0.02581,2.8903 0.03876,5.780411 0.03876,8.670711 0,2.8903 -0.01295,5.780413 -0.03876,8.670713 -0.02581,2.8903 -0.06466,5.79388 -0.116271,8.70998 -0.02581,1.3677 -0.06414,2.74833 -0.115754,4.14183 -0.02581,1.3677 -0.03876,2.73527 -0.03876,4.10307 0,1.3419 0.657912,2.01278 1.974022,2.01278 h 3.616801 c 0.05204,1.23356 0.692532,1.86757 1.954385,1.86757 h 3.598198 c -2.27e-4,0.12799 -0.0036,0.25596 -0.0036,0.38395 0,1.3419 0.657912,2.01278 1.974022,2.01278 h 10.722247 c 1.3161,0 1.974022,-0.65791 1.974022,-1.97402 v -8.98077 c 0.02581,-2.9935 0.03876,-5.98685 0.03876,-8.98025 0,-0.4129 0.219135,-0.61959 0.657835,-0.61959 h 17.108879 c 0.595666,0 1.037139,-0.15418 1.368379,-0.41858 1.339216,3.34284 3.194821,6.32049 5.572737,8.92858 2.4258,2.6064 5.264182,4.65842 8.515682,6.15512 1.643584,0.73767 3.365129,1.28962 5.164497,1.65725 0.137569,0.0661 0.265026,0.14579 0.404106,0.2098 1.016249,0.45611 2.072809,0.81648 3.148616,1.13119 0.780962,0.45786 1.587043,0.88147 2.42257,1.26606 3.2773,1.4709 6.864303,2.20605 10.761003,2.20605 3.819295,0 7.368145,-0.73516 10.645245,-2.20605 3.3031,-1.4967 6.18035,-3.53576 8.63195,-6.11636 1.55977,-1.65833 2.87456,-3.48546 3.99559,-5.44665 -0.023,0.92002 -0.043,1.83725 -0.0775,2.7688 -0.0516,1.3677 -0.0775,2.73579 -0.0775,4.10359 0,1.3677 0.67083,2.05153 2.01278,2.05153 h 3.58425 c 0.0654,1.23076 0.71393,1.86705 1.98694,1.86705 h 3.56306 c -3.7e-4,0.11524 -0.007,0.23048 -0.007,0.34572 0,1.3677 0.67082,2.05153 2.01278,2.05153 h 10.684 c 1.3161,0 1.97454,-0.65844 1.97454,-1.97454 0,-1.73674 0.0143,-3.45891 0.0305,-5.17948 0.0429,0.0752 0.0898,0.14265 0.13229,0.21859 0.3871,0.61934 0.78704,1.21295 1.19992,1.78075 0.46452,0.59354 1.01928,0.89038 1.66448,0.89038 h 3.24783 c 0.21878,0.32711 0.4318,0.66563 0.65836,0.97719 0.46452,0.59354 1.01928,0.88986 1.66448,0.88986 h 2.88972 c 0.33091,0.51741 0.66605,1.02639 1.01543,1.50688 0.46451,0.59354 1.01928,0.89037 1.66448,0.89037 h 12.07668 c 0.38712,0 0.90308,-0.0518 1.54821,-0.15503 0.64516,-0.129 0.96789,-0.47714 0.96789,-1.04488 0,-0.36125 -0.11655,-0.72285 -0.34881,-1.08417 -0.20644,-0.36129 -0.41263,-0.67055 -0.61908,-0.92861 -0.23226,-0.30967 -0.74822,-0.98103 -1.54821,-2.0133 -0.77418,-1.0323 -1.67769,-2.21909 -2.70989,-3.56099 -1.0322,-1.3419 -2.03883,-2.65774 -3.01943,-3.94804 -0.98066,-1.2903 -1.79338,-2.38753 -2.43858,-3.29073 -0.64515,-0.92904 -0.9679,-1.44501 -0.9679,-1.54821 0,-0.15484 0.14194,-0.32268 0.42581,-0.50332 2.64859,-1.54677 4.66347,-3.5166 6.11172,-5.86368 0.38696,1.93266 0.96923,3.73219 1.75388,5.39291 1.5484,3.2773 3.67755,6.0256 6.38715,8.2449 2.7355,2.1935 5.88362,3.84499 9.44482,4.95469 0.74888,0.23336 1.51503,0.42807 2.28563,0.61236 1.0443,0.46167 2.11554,0.88788 3.24266,1.24074 1.74426,0.96923 3.60507,1.78598 5.6115,2.4112 3.5611,1.1097 7.36764,1.66448 11.41884,1.66448 1.3419,0 2.94166,-0.14195 4.79966,-0.42581 1.858,-0.25808 3.75464,-0.64499 5.69004,-1.16116 1.9613,-0.51614 3.78062,-1.13566 5.45802,-1.85826 1.0288,-0.45902 1.88739,-0.9639 2.66389,-1.49086 0.1963,0.0447 0.39038,0.0915 0.63045,0.0915 h 3.62714 c 0.0522,1.23321 0.6922,1.86757 1.95386,1.86757 h 3.58787 c -2.3e-4,0.12799 -0.004,0.25596 -0.004,0.38395 0,1.3419 0.65844,2.01278 1.97454,2.01278 h 33.79298 c 1.3419,0 2.01278,-0.68383 2.01278,-2.05153 0,-1.3935 -0.013,-2.86431 -0.0388,-4.41261 -0.0258,-1.5483 -0.0771,-3.01963 -0.15451,-4.41313 -0.0775,-1.2903 -0.73591,-1.93527 -1.97454,-1.93527 h -3.56822 c -0.008,-0.14742 -0.008,-0.31573 -0.016,-0.46146 -0.0775,-1.2903 -0.73539,-1.93527 -1.97403,-1.93527 h -3.62093 c -0.0987,-1.2392 -0.74672,-1.86757 -1.96059,-1.86757 h -9.74557 l 0.0212,-4.32889 c 0,-0.4129 0.20618,-0.6196 0.61908,-0.6196 h 16.45104 c 1.3419,0 2.01278,-0.67082 2.01278,-2.01278 v -7.432035 c 0,-1.3419 -0.67083,-2.012779 -2.01278,-2.012779 h -3.54549 v -0.384469 c 0,-1.3419 -0.67082,-2.012779 -2.01278,-2.012779 h -3.58941 c -0.0532,-1.233167 -0.70566,-1.867053 -1.99211,-1.867053 h -5.94842 l -0.0207,-4.058114 c 0,-0.41289 0.21914,-0.619595 0.65784,-0.619595 h 19.3542 c 1.2645,0 1.93538,-0.657911 2.01278,-1.974021 0.0516,-0.64512 0.0645,-1.277725 0.0387,-1.897025 -0.0258,-0.64512 -0.0258,-1.290065 0,-1.935265 l 0.0775,-2.477346 c 0.0258,-0.8258 0.0387,-1.651546 0.0387,-2.477346 0,-1.3677 -0.67081,-2.051536 -2.01277,-2.051536 h -3.55066 c 5.1e-4,-0.115235 0.005,-0.230473 0.005,-0.345712 0,-1.3677 -0.67083,-2.051536 -2.01278,-2.051536 h -3.59458 c -0.0654,-1.230764 -0.71447,-1.867053 -1.98746,-1.867053 z"
       sodipodi:nodetypes="scccccccsccsccccccsssccccccccccscscccccssccsscscssccscccccsccsccsscsssccccssccccsccccsccscccccccsscccscccsscscccscccccccccsssccsscscsssscssscccccccsccccsscscsssscccsccsccsscscccsccsccscsccssccccscscssssscsccscsccssssscsscsccssccccsscsscsssc" />
    <path
       d="m 135.4,7.968 c -0.23225,0 -0.41305,0.11604 -0.54208,0.3483 -1.9613,4.0257 -3.8449,8.1033 -5.6513,12.232 -1.8065,4.1033 -3.6388,8.1936 -5.4968,12.271 -2.2451,4.9551 -4.5292,9.8969 -6.8517,14.826 -2.2967,4.9291 -4.6191,9.8581 -6.9675,14.787 -0.10322,0.23225 -0.20631,0.47729 -0.30953,0.73535 -0.10322,0.23225 -0.15503,0.49076 -0.15503,0.77462 0,0.59357 0.25798,0.96757 0.7741,1.1224 0.5419,0.15483 1.0325,0.23202 1.4712,0.23202 l 9.9869,-0.001 c 0.49034,7e-6 0.86434,-0.10309 1.1224,-0.30954 0.25806,-0.20645 0.49066,-0.51624 0.69711,-0.92913 0.15483,-0.30967 0.29677,-0.63189 0.42581,-0.96737 0.12902,-0.36126 0.25802,-0.69698 0.38705,-1.0066 0.30967,-0.77413 0.61947,-1.5481 0.92913,-2.3223 0.33548,-0.77413 0.6577,-1.5486 0.96738,-2.3228 0.0258,-0.05161 0.0388,-0.08995 0.0388,-0.11575 0,-0.05161 0.013,-0.09046 0.0388,-0.11627 0.12903,-0.20645 0.30983,-0.30954 0.54208,-0.30954 h 15.019 c 0.25806,0 0.45181,0.14194 0.58084,0.42581 0.43872,1.0839 0.82568,2.2065 1.1612,3.3677 0.33548,1.1355 0.74836,2.2321 1.2387,3.2902 0.20645,0.43868 0.43905,0.77388 0.69711,1.0061 0.25808,0.20645 0.64504,0.30954 1.1612,0.30954 h 12.503 c 0.43868,0 0.91582,-0.07719 1.4319,-0.23202 0.54192,-0.15486 0.81338,-0.52886 0.81338,-1.1224 0,-0.28387 -0.0518,-0.54185 -0.15503,-0.77411 -0.0774,-0.25806 -0.18051,-0.50361 -0.30954,-0.73587 -2.3483,-4.9289 -4.6837,-9.8447 -7.0062,-14.748 -2.2967,-4.9288 -4.5808,-9.8835 -6.8517,-14.864 -1.8581,-4.0775 -3.6904,-8.1678 -5.4968,-12.271 -1.8064,-4.1289 -3.69,-8.2065 -5.6513,-12.232 -0.10322,-0.23225 -0.28402,-0.3483 -0.54208,-0.3483 z m 32.167,0.42736 c -0.20646,0 -0.31006,0.09066 -0.31006,0.2713 0,1.5742 0.0389,3.148 0.11627,4.7222 0.0774,1.5484 0.12923,3.1098 0.15503,4.6839 0.15483,6.529 0.23202,13.097 0.23202,19.703 0,2.8903 -0.0259,5.7675 -0.0775,8.632 -0.0258,2.8645 -0.0642,5.7422 -0.11575,8.6325 -0.0258,1.3419 -0.0647,2.7095 -0.11628,4.1031 -0.0516,1.3677 -0.0775,2.7353 -0.0775,4.1031 0,1.3678 0.65841,2.0515 1.9745,2.0515 h 10.993 c 1.3161,0 1.974,-0.65789 1.974,-1.974 v -6.5417 c 0,-2.9935 -0.013,-5.9743 -0.0388,-8.942 -0.0258,-2.9935 -0.0387,-5.9743 -0.0387,-8.942 0,-0.12903 0.0129,-0.29636 0.0387,-0.50281 0.0516,-0.23225 0.16766,-0.34881 0.3483,-0.34881 0.12903,0 0.24507,0.0518 0.34829,0.15503 0.10323,0.07741 0.20683,0.15461 0.31006,0.23203 0.46453,0.38713 1.4193,1.2004 2.8644,2.4391 1.4451,1.2129 3.1738,2.6966 5.1867,4.4514 2.0387,1.729 4.2067,3.5743 6.5034,5.5355 2.3225,1.9612 4.6061,3.8966 6.8512,5.8063 2.2709,1.8839 4.3354,3.6126 6.1934,5.1867 1.8839,1.5484 3.4064,2.787 4.5676,3.716 1.187,0.9548 1.8326,1.4325 1.9358,1.4325 l 5.2e-4,0.001 c 0.12902,0 0.19327,-0.06476 0.19327,-0.19378 0,-1.5742 -0.0389,-3.1351 -0.11627,-4.6834 -0.0516,-1.5742 -0.10292,-3.1485 -0.15452,-4.7227 -0.15483,-6.5803 -0.23254,-13.174 -0.23254,-19.78 0,-2.8903 0.013,-5.7675 0.0388,-8.632 0.0516,-2.8645 0.10343,-5.7422 0.15503,-8.6325 0.0258,-1.3677 0.0647,-2.7353 0.11627,-4.1031 0.0516,-1.3935 0.077,-2.7741 0.077,-4.1418 0,-1.3677 -0.65789,-2.0515 -1.974,-2.0515 h -10.839 c -1.3161,0 -1.974,0.65789 -1.974,1.974 v 12.58 c 0.0258,4.1803 0.0387,8.3736 0.0387,12.58 0,0.10323 -0.0129,0.27107 -0.0387,0.50332 -0.0258,0.23225 -0.14185,0.3483 -0.3483,0.3483 -0.10322,0 -0.21978,-0.03885 -0.34881,-0.11627 -0.10322,-0.10322 -0.20631,-0.19336 -0.30954,-0.27078 -5.5997,-4.8517 -11.174,-9.7419 -16.722,-14.671 -5.5224,-4.9291 -11.148,-9.7292 -16.877,-14.4 -0.18064,-0.12903 -0.34797,-0.19378 -0.5028,-0.19378 z m -154.41,1.6629 c -1.3419,0 -2.0128,0.6838 -2.0128,2.0515 h -5.16e-4 c 0,1.3677 0.0259,2.7483 0.07751,4.1418 0.05161,1.3677 0.08995,2.7359 0.11575,4.1036 0.05161,2.8903 0.09046,5.7804 0.11627,8.6707 0.02581,2.8645 0.03876,5.7417 0.03876,8.632 0,2.8903 -0.01295,5.7804 -0.03876,8.6707 -0.02581,2.8903 -0.06466,5.7804 -0.11627,8.6707 -0.02581,1.3677 -0.06414,2.7483 -0.11575,4.1418 -0.05161,1.3677 -0.07751,2.7359 -0.07751,4.1036 0,1.3677 0.67084,2.0515 2.0128,2.0515 h 19.858 c 2.6838,0 5.316,-0.27094 7.8966,-0.81286 2.5806,-0.54193 4.903,-1.4325 6.9675,-2.6711 2.0903,-1.2645 3.7548,-2.9549 4.9934,-5.071 1.2387,-2.1161 1.8583,-4.7483 1.8583,-7.8966 0,-2.9935 -0.78694,-5.4578 -2.3611,-7.3933 -1.5483,-1.9613 -3.5485,-3.6387 -6.0001,-5.0322 -0.10323,-0.05161 -0.21927,-0.11585 -0.3483,-0.19327 -0.12903,-0.10323 -0.19378,-0.23222 -0.19378,-0.38705 0,-0.12903 0.0518,-0.23264 0.15503,-0.31006 0.10322,-0.10322 0.20631,-0.19336 0.30954,-0.27078 1.8323,-1.4452 3.2387,-3.0967 4.2193,-4.9547 0.9806,-1.8839 1.4707,-4.013 1.4707,-6.3872 0,-2.7613 -0.67084,-5.0453 -2.0128,-6.8517 -1.3161,-1.8064 -3.0448,-3.2124 -5.1867,-4.2188 -2.1161,-1.0322 -4.4001,-1.7549 -6.8517,-2.1678 -2.4515,-0.41289 -4.7869,-0.6196 -7.0062,-0.6196 h -17.767 z m 50.67,5.17e-4 c -1.3419,0 -2.0133,0.6838 -2.0133,2.0515 0,1.3677 0.0259,2.7483 0.07751,4.1418 0.05161,1.3677 0.09046,2.7353 0.11627,4.1031 0.05161,2.8903 0.09046,5.781 0.11627,8.6712 0.02581,2.8645 0.03876,5.7417 0.03876,8.632 0,2.8903 -0.01295,5.7804 -0.03876,8.6707 -0.02581,2.8903 -0.06466,5.7804 -0.11627,8.6707 -0.02581,1.3677 -0.06466,2.7483 -0.11627,4.1418 -0.05161,1.3677 -0.07751,2.7359 -0.07751,4.1036 0,1.3677 0.67136,2.0515 2.0133,2.0515 h 10.684 c 1.3161,0 1.974,-0.6584 1.974,-1.9745 0,-2.1935 0.01295,-4.3739 0.03876,-6.5417 0.02581,-2.1935 0.03876,-4.3869 0.03876,-6.5804 0,-0.4387 0.21914,-0.65784 0.65784,-0.65784 h 2.0515 c 0.23226,0 0.41305,0.10309 0.54208,0.30954 1.2129,1.7807 2.3743,3.6 3.484,5.458 1.1097,1.8323 2.2323,3.6516 3.3677,5.458 0.38711,0.59352 0.76112,1.2126 1.1224,1.8578 0.38711,0.61933 0.78702,1.213 1.1999,1.7808 0.46452,0.59354 1.0193,0.89038 1.6645,0.89038 h 12.077 c 0.38712,0 0.90306,-0.0518 1.5482,-0.15503 0.64515,-0.129 0.96789,-0.47716 0.96789,-1.0449 0,-0.36132 -0.11604,-0.72288 -0.34829,-1.0842 -0.20646,-0.36129 -0.41315,-0.67107 -0.6196,-0.92913 -0.23227,-0.30967 -0.74821,-0.98051 -1.5482,-2.0128 -0.77413,-1.0322 -1.6776,-2.2191 -2.7099,-3.561 -1.0322,-1.3419 -2.0383,-2.6582 -3.0189,-3.9486 -0.98065,-1.2903 -1.794,-2.387 -2.4391,-3.2902 -0.64515,-0.92904 -0.96737,-1.445 -0.96737,-1.5482 0,-0.15484 0.14194,-0.32268 0.42581,-0.50332 3.2257,-1.8838 5.5611,-4.3611 7.0062,-7.432 1.4709,-3.0969 2.2066,-6.4775 2.2066,-10.142 0,-4.8513 -0.9936,-8.6964 -2.9807,-11.535 -1.9613,-2.8645 -4.6711,-4.9159 -8.1291,-6.1546 -3.4579,-1.2645 -7.3931,-1.897 -11.806,-1.897 h -16.49 z m 164.51,0.0015 c -1.3161,0 -1.974,0.6838 -1.974,2.0515 0,1.3419 0.0259,2.6836 0.0775,4.0256 0.0516,1.3161 0.09,2.6454 0.11576,3.9873 0.0516,2.9161 0.0905,5.8451 0.11627,8.787 0.0258,2.9161 0.0387,5.8322 0.0387,8.7482 0,2.9419 -0.0129,5.8834 -0.0387,8.8252 -0.0258,2.9161 -0.0647,5.8322 -0.11627,8.7482 -0.0258,1.3419 -0.0642,2.6836 -0.11576,4.0256 -0.0516,1.3161 -0.0775,2.6454 -0.0775,3.9873 0,1.3677 0.65789,2.0515 1.974,2.0515 l 19.046,-5.17e-4 c 5.29,0 10.064,-1.0579 14.322,-3.1739 4.2835,-2.1161 7.6764,-5.1482 10.18,-9.0965 2.5032,-3.9738 3.7548,-8.6966 3.7548,-14.167 0,-6.374 -1.3158,-11.69 -3.948,-15.948 -2.6325,-4.2838 -6.2839,-7.4967 -10.955,-9.6386 -4.6451,-2.1419 -10.013,-3.2127 -16.103,-3.2127 h -16.296 z m 12.774,12.658 h 6.9287 c 3.1741,0 5.6774,0.6838 7.5096,2.0515 1.858,1.3419 3.1744,3.1742 3.9486,5.4968 0.7742,2.2967 1.1612,4.8642 1.1612,7.7028 0,5.0321 -1.3806,8.7093 -4.1418,11.032 -2.7351,2.3225 -6.5286,3.484 -11.38,3.484 h -4.0261 c 0.0774,-9.9353 0.0774,-19.858 0,-29.767 z m -215.22,0.15348 h 5.6906 c 1.2129,0 2.3997,0.29684 3.561,0.89038 1.1613,0.59353 1.742,1.613 1.742,3.0582 0,1.3935 -0.5035,2.542 -1.51,3.4452 -0.9806,0.8774 -2.1545,1.3157 -3.5222,1.3157 h -5.9226 v -4.3351 c 0,-1.4709 -0.01295,-2.9292 -0.03876,-4.3744 z m 50.67,5.17e-4 h 5.6125 c 1.9871,0 3.4842,0.74807 4.4906,2.2448 1.0323,1.4968 1.5483,3.1612 1.5482,4.9934 -1e-4,1.8322 -0.52897,3.4065 -1.587,4.7227 -1.058,1.3161 -2.5547,1.974 -4.4901,1.974 h -5.5355 v -6.9675 c 0,-2.3225 -0.01295,-4.6449 -0.03876,-6.9675 z m 58.257,12.581 c 0.59352,1.729 1.1867,3.4707 1.7802,5.2255 0.61932,1.7548 1.226,3.5099 1.8195,5.2647 h -7.7033 c 0.6968,-1.7548 1.3811,-3.5099 2.052,-5.2647 0.6968,-1.7548 1.3806,-3.4965 2.0515,-5.2255 z m -108.89,8.9022 h 5.613 c 1.0065,0 2.1415,0.0518 3.406,0.15503 1.2903,0.1032 2.4005,0.43891 3.3295,1.0066 0.9548,0.56773 1.4319,1.5484 1.4319,2.9419 0,1.2903 -0.43879,2.258 -1.3162,2.9032 -0.8774,0.61935 -1.9223,1.0322 -3.1352,1.2387 -1.1871,0.20645 -2.2709,0.30954 -3.2515,0.30954 h -6.1164 v -4.2969 c 0.02581,-1.4193 0.03876,-2.8388 0.03876,-4.2581 z m 185.84,27.58 c -9.5479,0 -16.889,2.6452 -22.025,7.9354 -5.1354,5.2907 -7.7033,12.671 -7.7033,22.141996 0,4.3353 0.77399,8.142 2.3223,11.419 1.5484,3.2773 3.6776,6.0256 6.3872,8.2449 2.7355,2.1935 5.8836,3.845 9.4448,4.9547 3.5611,1.1097 7.3678,1.6645 11.419,1.6645 1.3419,0 2.9417,-0.14195 4.7997,-0.42581 1.858,-0.25808 3.7546,-0.64503 5.69,-1.1612 1.9613,-0.51614 3.7806,-1.1357 5.458,-1.8583 1.6774,-0.7484 3.0197,-1.5871 4.0261,-2.5161 0.41289,-0.38706 0.61907,-0.87716 0.61907,-1.4707 l -5.1e-4,-0.001 c 0,-1.1871 -0.0254,-2.361 -0.077,-3.5222 l -0.0775,-3.561 c -0.0774,-4.7223 -0.11628,-9.4579 -0.11628,-14.205996 0,-1.3161 -0.65788,-1.974 -1.974,-1.974 h -18.89 c -1.3161,0 -1.974,0.65789 -1.974,1.974 v 5.457996 c 0,1.3161 0.65789,1.974 1.974,1.974 h 8.0129 c 0.4387,0 0.65783,0.2067 0.65783,0.61959 l 0.0388,5.1485 c 0,0.41287 -0.39992,0.76103 -1.1999,1.0449 -0.7742,0.28386 -1.716,0.51594 -2.8256,0.69659 -1.0839,0.15483 -2.1034,0.27087 -3.0582,0.34829 -0.95479,0.0774 -1.5998,0.11627 -1.9353,0.11627 -4.4643,0 -7.8706,-1.2645 -10.219,-3.7935 -2.3225,-2.5548 -3.484,-6.0128 -3.484,-10.374 0,-10.347996 5.1872,-15.521996 15.561,-15.521996 3.8451,0 7.574,0.63204 11.187,1.8965 0.46447,0.15483 0.82558,0.23254 1.0836,0.23254 0.51615,0 0.87771,-0.14194 1.0842,-0.42581 0.23226,-0.30971 0.42549,-0.67127 0.58032,-1.0842 0.0774,-0.23227 0.25822,-0.813 0.54208,-1.742 0.30967,-0.929 0.63241,-1.961 0.96789,-3.0964 0.36129,-1.1355 0.67108,-2.142 0.92914,-3.0194 0.25806,-0.90324 0.38705,-1.4192 0.38705,-1.5482 0,-0.43868 -0.11656,-0.7744 -0.34881,-1.0066 -0.23226,-0.23225 -0.52858,-0.43844 -0.88986,-0.61908 -1.3677,-0.67097 -3.0451,-1.2128 -5.0322,-1.6257 -1.9613,-0.4387 -3.9614,-0.76144 -6.0001,-0.96789 -2.0129,-0.23225 -3.7934,-0.3483 -5.3418,-0.3483 z m -112.99,5.17e-4 c -3.8451,0 -7.3931,0.76154 -10.645,2.2841 -3.2516,1.5225 -6.0905,3.5999 -8.5162,6.2321 -2.3999,2.6322 -4.2706,5.6514 -5.6125,9.0578 -1.3161,3.3806 -1.9745,6.9287 -1.9745,10.644999 v 5.2e-4 c 0,3.7934 0.65789,7.3804 1.974,10.761 1.3419,3.3806 3.2131,6.3873 5.613,9.0195 2.4258,2.6064 5.2641,4.6579 8.5157,6.1546 3.2773,1.4709 6.8643,2.206 10.761,2.206 3.8193,0 7.3679,-0.73511 10.645,-2.206 3.3031,-1.4967 6.1804,-3.5358 8.632,-6.1164 2.4515,-2.6064 4.3611,-5.5867 5.7288,-8.9415 1.3935,-3.3808 2.0903,-6.9421 2.0903,-10.684 0,-3.767599 -0.69676,-7.354599 -2.0903,-10.760999 -1.3677,-3.4064 -3.2902,-6.4385 -5.7676,-9.0965 -2.4516,-2.6581 -5.3288,-4.7483 -8.632,-6.2709 -3.3029,-1.5225 -6.8772,-2.2841 -10.722,-2.2841 z m 36.386,0.54156 c -1.3419,0 -2.0128,0.6838 -2.0128,2.0515 0,1.3677 0.0259,2.7483 0.0775,4.1418 0.0516,1.3677 0.0905,2.7353 0.11627,4.1031 0.0516,2.8903 0.09,5.781 0.11575,8.6712 0.0258,2.8645 0.0388,5.7417 0.0388,8.631999 0,2.8903 -0.013,5.7804 -0.0388,8.6707 -0.0258,2.8903 -0.0642,5.7804 -0.11575,8.6707 -0.0258,1.3677 -0.0647,2.7483 -0.11627,4.1418 -0.0516,1.3677 -0.0775,2.7358 -0.0775,4.1036 0,1.3677 0.67084,2.0515 2.0128,2.0515 h 10.684 c 1.3161,0 1.9745,-0.6584 1.9745,-1.9745 0,-2.1935 0.013,-4.3739 0.0388,-6.5417 0.0258,-2.1935 0.0388,-4.3869 0.0388,-6.5804 0,-0.43871 0.21914,-0.65784 0.65784,-0.65784 h 2.0515 c 0.23226,0 0.41306,0.10309 0.54209,0.30954 1.2129,1.7807 2.3738,3.6 3.4835,5.458 1.1097,1.8323 2.2323,3.6516 3.3677,5.458 0.38712,0.59352 0.76164,1.2126 1.1229,1.8578 0.38711,0.61934 0.78703,1.213 1.1999,1.7808 0.46451,0.59354 1.0193,0.89037 1.6645,0.89037 h 12.077 c 0.38712,0 0.90307,-0.0518 1.5482,-0.15502 0.64516,-0.129 0.9679,-0.47716 0.9679,-1.0449 0,-0.36125 -0.11656,-0.72288 -0.34882,-1.0842 -0.20644,-0.36129 -0.41263,-0.67056 -0.61908,-0.92862 -0.23226,-0.30967 -0.74821,-0.98103 -1.5482,-2.0133 -0.77418,-1.0323 -1.6777,-2.2191 -2.7099,-3.561 -1.0322,-1.3419 -2.0388,-2.6577 -3.0194,-3.948 -0.98066,-1.2903 -1.7934,-2.3875 -2.4386,-3.2907 -0.64515,-0.92904 -0.96789,-1.445 -0.96789,-1.5482 0,-0.15484 0.14194,-0.32268 0.42581,-0.50332 3.2257,-1.8838 5.5616,-4.3611 7.0067,-7.432 1.4709,-3.096899 2.206,-6.477499 2.206,-10.141999 0,-4.8513 -0.9936,-8.6964 -2.9807,-11.535 -1.9613,-2.8645 -4.6706,-4.9159 -8.1286,-6.1546 -3.4579,-1.2645 -7.3931,-1.8965 -11.806,-1.8965 l -16.491,-5.17e-4 z m -104.13,5.17e-4 c -1.3161,0 -1.9745,0.67084 -1.9745,2.0128 h 5.17e-4 c 0,1.3677 0.01295,2.7483 0.03876,4.1418 0.05161,1.3677 0.08995,2.7353 0.11575,4.1031 0.05161,2.8903 0.09046,5.7804 0.11627,8.6707 0.02581,2.8903 0.03876,5.7804 0.03876,8.670702 0,2.8903 -0.01295,5.781 -0.03876,8.6712 -0.02581,2.8903 -0.06466,5.7934 -0.11627,8.7095 -0.02581,1.3677 -0.06414,2.7483 -0.11575,4.1418 -0.02581,1.3677 -0.03876,2.7353 -0.03876,4.1031 0,1.3419 0.65789,2.0128 1.974,2.0128 h 10.722 c 1.3161,0 1.974,-0.65789 1.974,-1.974 v -8.9808 c 0.02581,-2.9935 0.03876,-5.9868 0.03876,-8.9802 0,-0.4129 0.21914,-0.6196 0.65784,-0.6196 h 17.109 c 1.3419,0 2.0128,-0.67084 2.0128,-2.0128 0,-1.4709 -0.01295,-2.9417 -0.03876,-4.4126 v -4.412602 c 0,-1.3161 -0.65789,-1.9745 -1.974,-1.9745 h -17.109 c -0.4387,0 -0.65784,-0.20618 -0.65784,-0.61908 v -7.8196 c 0,-0.41289 0.21914,-0.61908 0.65784,-0.61908 h 20.477 c 1.2387,0 1.8966,-0.645 1.974,-1.9353 0.05161,-0.56773 0.06456,-1.1355 0.03876,-1.7032 0,-0.59353 0.01295,-1.1743 0.03876,-1.742 l 0.07751,-2.7094 c 0.02581,-0.9032 0.03876,-1.7937 0.03876,-2.6711 0,-1.3677 -0.67085,-2.0515 -2.0128,-2.0515 h -34.025 z m 210.96,0 c -1.3161,0 -1.9745,0.67084 -1.9745,2.0128 h 0.001 c 0,1.3677 0.0129,2.7483 0.0387,4.1418 0.0516,1.3677 0.0905,2.7353 0.11628,4.1031 0.0516,2.8903 0.0905,5.7804 0.11627,8.6707 0.0258,2.8903 0.0387,5.7804 0.0387,8.670702 0,2.8903 -0.0129,5.781 -0.0387,8.6712 -0.0258,2.8903 -0.0647,5.7934 -0.11627,8.7095 -0.0258,1.3677 -0.0647,2.7483 -0.11628,4.1418 -0.0258,1.3677 -0.0387,2.7353 -0.0387,4.1031 0,1.3419 0.6584,2.0128 1.9745,2.0128 h 33.793 c 1.3419,0 2.0128,-0.6838 2.0128,-2.0515 0,-1.3935 -0.013,-2.8643 -0.0388,-4.4126 -0.0258,-1.5483 -0.0771,-3.0196 -0.15451,-4.4131 -0.0775,-1.2903 -0.73587,-1.9353 -1.9745,-1.9353 h -20.245 c -0.4387,0 -0.65784,-0.20617 -0.65784,-0.61907 l 0.0388,-7.9741 c 0,-0.4129 0.20618,-0.6196 0.61908,-0.6196 h 16.451 c 1.3419,0 2.0128,-0.67084 2.0128,-2.0128 v -7.432002 c 0,-1.3419 -0.67085,-2.0128 -2.0128,-2.0128 h -16.451 c -0.4129,0 -0.61908,-0.2067 -0.61908,-0.6196 l -0.0388,-7.7028 c 0,-0.41289 0.21914,-0.6196 0.65784,-0.6196 h 19.354 c 1.2645,0 1.9354,-0.65789 2.0128,-1.974 0.0516,-0.64512 0.0645,-1.2777 0.0387,-1.897 -0.0258,-0.64512 -0.0258,-1.2901 0,-1.9353 l 0.0775,-2.4773 c 0.0258,-0.8258 0.0387,-1.6515 0.0387,-2.4773 0,-1.3677 -0.67084,-2.0515 -2.0128,-2.0515 h -32.903 z m -143.03,12.232 c 2.7097,0 4.9419,0.79983 6.6967,2.3998 1.7806,1.5742 3.0964,3.5484 3.948,5.9226 0.8774,2.3742 1.3162,4.7484 1.3162,7.122502 0,1.7032 -0.21913,3.4449 -0.65783,5.2255 -0.43874,1.7807 -1.123,3.4451 -2.052,4.9934 -0.9032,1.5226 -2.0771,2.7612 -3.5222,3.716 -1.4451,0.929 -3.1614,1.3937 -5.1485,1.3937 -2.7096,0 -5.0061,-0.77398 -6.89,-2.3223 -1.8839,-1.5742 -3.3163,-3.5484 -4.2969,-5.9226 -0.9806,-2.3742 -1.4707,-4.7743 -1.4707,-7.2 0,-2.348302 0.45123,-4.696702 1.3544,-7.045002 0.929,-2.3484 2.2842,-4.3097 4.0648,-5.8838 1.8064,-1.6 4.0257,-2.3998 6.6579,-2.3998 z m 48.928,0.58032 h 5.6125 c 1.9871,0 3.4837,0.74859 4.4901,2.2453 1.0323,1.4968 1.5487,3.1612 1.5487,4.9934 0,1.8322 -0.52942,3.406 -1.5875,4.7222 -1.058,1.3161 -2.5547,1.9745 -4.4901,1.9745 l -5.5355,-5.2e-4 v -6.9675 c 0,-2.3225 -0.0124,-4.6449 -0.0382,-6.9675 z"
       fill="#003eff"
       style="paint-order:markers fill stroke"
       id="path1" />
    <path
       d="m 124.26,3.7027 c -0.23226,0 -0.41306,0.11604 -0.54208,0.3483 -1.9613,4.0257 -3.8449,8.1033 -5.6513,12.232 -1.8065,4.1033 -3.6388,8.1936 -5.4968,12.271 -2.2451,4.9551 -4.5292,9.8969 -6.8517,14.826 -2.2967,4.9291 -4.6191,9.8581 -6.9675,14.787 -0.10322,0.23225 -0.20631,0.47729 -0.30954,0.73535 -0.10323,0.23225 -0.15503,0.49024 -0.15503,0.77411 0,0.59357 0.25799,0.96809 0.77411,1.1229 0.54189,0.15483 1.0325,0.23202 1.4712,0.23202 l 9.9869,-10e-4 c 0.49034,6e-6 0.86435,-0.10309 1.1224,-0.30954 0.25806,-0.20645 0.49066,-0.51624 0.6971,-0.92913 0.15484,-0.30967 0.29678,-0.63241 0.42581,-0.96789 0.12903,-0.36126 0.25802,-0.69646 0.38706,-1.0061 0.30966,-0.77413 0.61894,-1.5486 0.92861,-2.3228 0.33548,-0.77413 0.65822,-1.5481 0.9679,-2.3223 0.0258,-0.05161 0.0388,-0.09046 0.0388,-0.11627 0,-0.05161 0.013,-0.08995 0.0388,-0.11575 0.12903,-0.20645 0.30983,-0.31006 0.54208,-0.31006 h 15.019 c 0.25806,0 0.45181,0.14194 0.58083,0.42581 0.43872,1.0839 0.82568,2.2065 1.1612,3.3677 0.33549,1.1355 0.74836,2.2321 1.2387,3.2902 0.20644,0.43868 0.43905,0.77439 0.69711,1.0066 0.25808,0.20645 0.64503,0.30954 1.1612,0.30954 h 12.503 c 0.43868,0 0.91583,-0.07719 1.432,-0.23202 0.54192,-0.15486 0.81286,-0.52938 0.81286,-1.1229 0,-0.28387 -0.0513,-0.54185 -0.15451,-0.77411 -0.0774,-0.25806 -0.18051,-0.5031 -0.30954,-0.73535 -2.3483,-4.9289 -4.6842,-9.8447 -7.0068,-14.748 -2.2967,-4.9288 -4.5803,-9.8835 -6.8512,-14.864 -1.8581,-4.0775 -3.6904,-8.1678 -5.4968,-12.271 -1.8064,-4.1289 -3.69,-8.2065 -5.6513,-12.232 -0.10323,-0.23225 -0.28402,-0.3483 -0.54208,-0.3483 z m 32.167,0.42736 c -0.20645,0 -0.31005,0.090142 -0.31005,0.27078 0,1.5742 0.0388,3.1485 0.11627,4.7227 0.0774,1.5484 0.12923,3.1098 0.15503,4.6839 0.15483,6.529 0.23202,13.097 0.23202,19.703 0,2.8903 -0.0259,5.7675 -0.0775,8.632 -0.0258,2.8645 -0.0642,5.7417 -0.11576,8.632 -0.0258,1.3419 -0.0647,2.7101 -0.11627,4.1036 -0.0516,1.3677 -0.0775,2.7353 -0.0775,4.1031 0,1.3678 0.65789,2.0515 1.974,2.0515 h 10.993 c 1.3161,0 1.9745,-0.65789 1.9745,-1.974 v -6.5422 c 0,-2.9935 -0.013,-5.9738 -0.0388,-8.9415 -0.0258,-2.9935 -0.0388,-5.9743 -0.0388,-8.942 0,-0.12903 0.013,-0.29688 0.0388,-0.50332 0.0516,-0.23225 0.16766,-0.3483 0.3483,-0.3483 0.12903,0 0.24507,0.0518 0.34829,0.15503 0.10323,0.07741 0.20632,0.1546 0.30954,0.23202 0.46453,0.38713 1.4198,1.1999 2.8649,2.4386 1.4451,1.2129 3.1738,2.6971 5.1867,4.4519 2.0387,1.729 4.2067,3.5737 6.5034,5.535 2.3225,1.9612 4.6061,3.8966 6.8512,5.8063 2.2709,1.8839 4.3354,3.6131 6.1934,5.1872 1.8839,1.5484 3.4064,2.787 4.5676,3.716 1.187,0.9548 1.8326,1.4325 1.9358,1.4325 v 0.001 c 0.12903,0 0.19378,-0.06476 0.19378,-0.19378 0,-1.5742 -0.0388,-3.1356 -0.11627,-4.6839 -0.0516,-1.5742 -0.10291,-3.148 -0.15451,-4.7222 -0.15483,-6.5803 -0.23254,-13.174 -0.23254,-19.78 0,-2.8903 0.013,-5.768 0.0388,-8.6325 0.0516,-2.8645 0.10342,-5.7417 0.15502,-8.632 0.0258,-1.3677 0.0642,-2.7353 0.11576,-4.1031 0.0516,-1.3935 0.0775,-2.7741 0.0775,-4.1418 0,-1.3677 -0.65789,-2.0515 -1.974,-2.0515 h -10.839 c -1.3161,0 -1.974,0.65789 -1.974,1.974 v 12.58 c 0.0258,4.1803 0.0382,8.3736 0.0382,12.58 0,0.10323 -0.0124,0.27107 -0.0382,0.50332 -0.0258,0.23225 -0.14236,0.3483 -0.34882,0.3483 -0.10322,0 -0.21926,-0.03885 -0.34829,-0.11627 -0.10322,-0.10322 -0.20632,-0.19336 -0.30954,-0.27078 -5.5997,-4.8517 -11.174,-9.7424 -16.722,-14.671 -5.5224,-4.9291 -11.148,-9.7292 -16.877,-14.4 -0.18064,-0.12903 -0.34797,-0.19327 -0.50281,-0.19327 z M 2.017,5.79296 c -1.3419,0 -2.0128,0.6838 -2.0128,2.0515 h -5.1676e-4 c 0,1.3677 0.025385,2.7483 0.076997,4.1418 0.051614,1.3677 0.090465,2.7353 0.11627,4.1031 0.051614,2.8903 0.090465,5.7804 0.11627,8.6707 0.025806,2.8645 0.038757,5.7422 0.038757,8.6325 0,2.8903 -0.012951,5.7804 -0.038757,8.6707 -0.025808,2.8903 -0.064659,5.7804 -0.11627,8.6707 -0.025808,1.3677 -0.064659,2.7483 -0.11627,4.1418 -0.051612,1.3677 -0.076997,2.7353 -0.076997,4.1031 0,1.3678 0.67085,2.0521 2.01279996,2.0521 H 21.874483 c 2.6838,0 5.316,-0.27145 7.8966,-0.81338 2.5806,-0.54193 4.903,-1.4319 6.9675,-2.6706 2.0903,-1.2645 3.7548,-2.9549 4.9934,-5.071 1.2387,-2.1161 1.8583,-4.7483 1.8583,-7.8966 0,-2.9935 -0.78746,-5.4578 -2.3616,-7.3933 -1.5483,-1.9613 -3.548,-3.6387 -5.9996,-5.0322 -0.10323,-0.05161 -0.21927,-0.11636 -0.3483,-0.19378 -0.12903,-0.10323 -0.19378,-0.23222 -0.19378,-0.38705 0,-0.12903 0.0518,-0.23212 0.15503,-0.30954 0.10322,-0.10322 0.20631,-0.19336 0.30954,-0.27078 1.8323,-1.4452 3.2387,-3.0972 4.2193,-4.9552 0.9806,-1.8839 1.4707,-4.0125 1.4707,-6.3866 0,-2.7613 -0.67085,-5.0453 -2.0128,-6.8517 -1.3161,-1.8064 -3.0448,-3.2129 -5.1867,-4.2193 -2.1161,-1.0322 -4.4002,-1.7549 -6.8517,-2.1678 -2.4515,-0.41289 -4.7869,-0.61908 -7.0062,-0.61908 H 2.0171732 Z m 50.67,5.167e-4 c -1.3419,0 -2.0133,0.6838 -2.0133,2.0515 0,1.3677 0.0259,2.7483003 0.07751,4.1418003 0.05161,1.3677 0.09047,2.7353 0.11627,4.1031 0.05161,2.8903 0.09047,5.7804 0.11627,8.6707 0.02581,2.8645 0.03824,5.7422 0.03824,8.6325 0,2.8903 -0.01243,5.7804 -0.03824,8.6707 -0.02581,2.8903 -0.06466,5.7804 -0.11627,8.6707 -0.02581,1.3677 -0.06466,2.7483 -0.11627,4.1418 -0.05161,1.3677 -0.07751,2.7353 -0.07751,4.1031 0,1.3677 0.67136,2.0515 2.0133,2.0515 h 10.684 c 1.3161,0 1.974,-0.65789 1.974,-1.974 0,-2.1935 0.01295,-4.3739 0.03876,-6.5417 0.02581,-2.1935 0.03876,-4.3869 0.03876,-6.5804 0,-0.4387 0.21914,-0.65835 0.65784,-0.65835 h 2.0515 c 0.23225,0 0.41305,0.10361 0.54208,0.31006 1.2129,1.7807 2.3743,3.5995 3.484,5.4575 1.1097,1.8323 2.2317,3.6516 3.3672,5.458 0.38712,0.59352 0.76164,1.2131 1.1229,1.8583 0.38711,0.61933 0.78702,1.213 1.1999,1.7808 0.46452,0.59354 1.0193,0.88986 1.6645,0.88986 h 12.077 c 0.38712,0 0.90306,-0.05129 1.5482,-0.15451 0.64515,-0.129 0.96789,-0.47767 0.96789,-1.0454 0,-0.36131 -0.11604,-0.72236 -0.3483,-1.0836 -0.20645,-0.36129 -0.41315,-0.67107 -0.6196,-0.92913 -0.23227,-0.30967 -0.74821,-0.98051 -1.5482,-2.0128 -0.77413,-1.0322 -1.6776,-2.2191 -2.7099,-3.561 -1.0323,-1.3419 -2.0383,-2.6583 -3.0189,-3.9486 -0.98065,-1.2903 -1.794,-2.387 -2.4391,-3.2902 -0.64515,-0.92904 -0.96737,-1.445 -0.96737,-1.5482 0,-0.15484 0.14194,-0.32268 0.42581,-0.50332 3.2257,-1.8838 5.5611,-4.3611 7.0062,-7.432 1.4709,-3.0969 2.206,-6.478 2.206,-10.142 0,-4.8513 -0.99309,-8.6959 -2.9802,-11.535 -1.9613,-2.8645 -4.6711,-4.9165003 -8.1291,-6.1551003 -3.4579,-1.2645 -7.3931,-1.8965 -11.806,-1.8965 h -16.49 z m 164.51,0.00155 c -1.3161,0 -1.974,0.6838 -1.974,2.0515 0,1.3419 0.0254,2.6836003 0.077,4.0256003 0.0516,1.3161 0.0905,2.6449 0.11627,3.9868 0.0516,2.9161 0.0905,5.8451 0.11627,8.787 0.0258,2.9161 0.0388,5.8322 0.0388,8.7482 0,2.9419 -0.013,5.8839 -0.0388,8.8257 -0.0258,2.9161 -0.0647,5.8322 -0.11627,8.7482 -0.0258,1.3419 -0.0647,2.6836 -0.11627,4.0256 -0.0516,1.3161 -0.077,2.6454 -0.077,3.9873 0,1.3677 0.65788,2.0515 1.974,2.0515 l 19.046,-5.17e-4 c 5.29,0 10.064,-1.0584 14.322,-3.1745 4.2835,-2.1161 7.6764,-5.1482 10.18,-9.0965 2.5032,-3.9738 3.7548,-8.6961 3.7548,-14.167 0,-6.374 -1.3158,-11.69 -3.948,-15.948 -2.6325,-4.2838 -6.2844,-7.4967 -10.955,-9.6386003 -4.6451,-2.1419 -10.013,-3.2127 -16.103,-3.2127 h -16.296 z m 12.774,12.6570003 h 6.9287 c 3.1741,0 5.6774,0.6838 7.5096,2.0515 1.858,1.3419 3.1738,3.1742 3.948,5.4968 0.7742,2.2967 1.1617,4.8647 1.1617,7.7033 0,5.0321 -1.3806,8.7093 -4.1418,11.032 -2.7351,2.3225 -6.5286,3.484 -11.38,3.484 h -4.0261 v -5.17e-4 c 0.0774,-9.9353 0.0774,-19.858 0,-29.767 z m -215.22,0.15399 h 5.69 c 1.2129,0 2.4002,0.29684 3.5615,0.89038 1.1613,0.59353 1.742,1.613 1.742,3.0582 0,1.3935 -0.50357,2.5415 -1.51,3.4447 -0.9806,0.8774 -2.1545,1.3162 -3.5222,1.3162 h -5.9226 v -4.3356 c 0,-1.4709 -0.01295,-2.9287 -0.03876,-4.3739 z m 50.67,0 h 5.6125 c 1.9871,0 3.4837,0.74859 4.4901,2.2453 1.0323,1.4968 1.5487,3.1612 1.5487,4.9934 0,1.8322 -0.5289,3.4065 -1.587,4.7227 -1.058,1.3161 -2.5552,1.974 -4.4906,1.974 h -5.535 v -6.9675 c 0,-2.3225 -0.01295,-4.6455 -0.03876,-6.968 z m 58.257,12.582 c 0.59353,1.729 1.1867,3.4707 1.7802,5.2255 0.61933,1.7548 1.226,3.5099 1.8195,5.2647 h -7.7033 c 0.6968,-1.7548 1.3806,-3.5099 2.0515,-5.2647 0.6968,-1.7548 1.3811,-3.4965 2.0521,-5.2255 z m -108.89,8.9022 h 5.6125 c 1.0065,0 2.142,0.0518 3.4065,0.15503 1.2903,0.1032 2.4,0.4384 3.329,1.0061 0.9548,0.56773 1.4325,1.5484 1.4325,2.9419 0,1.2903 -0.43879,2.258 -1.3162,2.9032 -0.8774,0.61935 -1.9223,1.0322 -3.1352,1.2387 -1.1871,0.20645 -2.2714,0.31006 -3.252,0.31006 h -6.1159 v -4.2969 c 0.02581,-1.4193 0.03876,-2.8388 0.03876,-4.2581 z m 185.84,27.581 c -9.5479,0 -16.89,2.6452 -22.025,7.9354 -5.1354,5.2907 -7.7028,12.671 -7.7028,22.142 0,4.335303 0.77398,8.142003 2.3223,11.419003 1.5484,3.2773 3.6776,6.0256 6.3872,8.2449 2.7355,2.1935 5.8836,3.845 9.4448,4.9547 3.5611,1.1097 7.3678,1.6645 11.419,1.6645 1.3419,0 2.9417,-0.14195 4.7997,-0.42581 1.858,-0.25808 3.7546,-0.64504 5.69,-1.1612 1.9613,-0.51613 3.7806,-1.1357 5.458,-1.8583 1.6774,-0.7484 3.0197,-1.5871 4.0261,-2.5161 0.41289,-0.38706 0.61908,-0.87716 0.61908,-1.4707 l -5.2e-4,-0.001 c 0,-1.1871 -0.0259,-2.361 -0.0775,-3.5222 l -0.077,-3.5615 c -0.0774,-4.7223 -0.11627,-9.4574 -0.11627,-14.206003 0,-1.3161 -0.65789,-1.974 -1.974,-1.974 h -18.89 c -1.3161,0 -1.974,0.65789 -1.974,1.974 v 5.458003 c 0,1.3161 0.65788,1.974 1.974,1.974 h 8.0129 c 0.4387,0 0.65784,0.2067 0.65784,0.6196 l 0.0387,5.148 c 0,0.41287 -0.39991,0.76154 -1.1999,1.0454 -0.7742,0.28387 -1.716,0.51595 -2.8256,0.6966 -1.0839,0.15483 -2.1034,0.27087 -3.0582,0.34829 -0.95478,0.0774 -1.5998,0.11627 -1.9353,0.11627 -4.4643,0 -7.8706,-1.2645 -10.219,-3.7935 -2.3225,-2.5548 -3.484,-6.0128 -3.484,-10.374003 0,-10.348 5.1872,-15.522 15.561,-15.522 3.8451,0 7.5739,0.63204 11.187,1.8965 0.46447,0.15483 0.82558,0.23254 1.0836,0.23254 0.51615,0 0.87771,-0.14194 1.0842,-0.42581 0.23225,-0.30971 0.42548,-0.67127 0.58032,-1.0842 0.0774,-0.23227 0.25821,-0.813 0.54208,-1.742 0.30966,-0.929 0.63241,-1.961 0.96789,-3.0964 0.36129,-1.1355 0.67056,-2.142 0.92862,-3.0194 0.25806,-0.90324 0.38757,-1.4192 0.38757,-1.5482 0,-0.43868 -0.11656,-0.77439 -0.34882,-1.0066 -0.23226,-0.23225 -0.52909,-0.43844 -0.89037,-0.61908 -1.3677,-0.67097 -3.0446,-1.2133 -5.0317,-1.6262 -1.9613,-0.4387 -3.9614,-0.76093 -6.0001,-0.96737 -2.0129,-0.23225 -3.7934,-0.3483 -5.3417,-0.3483 z m -112.99,5.16e-4 c -3.8451,0 -7.3931,0.76103 -10.645,2.2836 -3.2516,1.5225 -6.0905,3.5999 -8.5162,6.2321 -2.3999,2.6322 -4.2706,5.6519 -5.6125,9.0583 -1.3161,3.3806 -1.9745,6.9287 -1.9745,10.645 v 5.17e-4 c 0,3.7934 0.65789,7.3804 1.974,10.761 1.3419,3.3806 3.2131,6.3868 5.613,9.019 2.4258,2.6064 5.2642,4.6584 8.5157,6.1551 3.2773,1.4709 6.8643,2.206 10.761,2.206 3.8193,0 7.3679,-0.73511 10.645,-2.206 3.3031,-1.4967 6.1804,-3.5358 8.632,-6.1164 2.4515,-2.6064 4.3611,-5.5867 5.7288,-8.9415 1.3935,-3.3808 2.0903,-6.9421 2.0903,-10.684 0,-3.7676 -0.69676,-7.3546 -2.0903,-10.761 -1.3677,-3.4064 -3.2902,-6.4385 -5.7676,-9.0965 -2.4516,-2.6581 -5.3288,-4.7489 -8.632,-6.2714 -3.3029,-1.5225 -6.8772,-2.2836 -10.722,-2.2836 z m 36.386,0.54156 c -1.3419,0 -2.0128,0.6838 -2.0128,2.0515 0,1.3677 0.0259,2.7483 0.0775,4.1418 0.0516,1.3677 0.0905,2.7353 0.11627,4.1031 0.0516,2.8903 0.09,5.7804 0.11576,8.6707 0.0258,2.8645 0.0388,5.7422 0.0388,8.6325 0,2.8903 -0.013,5.780397 -0.0388,8.670697 -0.0258,2.8903 -0.0642,5.7804 -0.11576,8.6707 -0.0258,1.3677 -0.0647,2.7483 -0.11627,4.1418 -0.0516,1.3677 -0.0775,2.7358 -0.0775,4.1036 0,1.3677 0.67085,2.0515 2.0128,2.0515 h 10.684 c 1.3161,0 1.9745,-0.6584 1.9745,-1.9745 0,-2.1935 0.013,-4.3739 0.0388,-6.5417 0.0258,-2.1935 0.0382,-4.3869 0.0382,-6.5804 0,-0.4387 0.21965,-0.65835 0.65835,-0.65835 h 2.0515 c 0.23225,0 0.41305,0.1036 0.54208,0.31006 1.2129,1.7807 2.3738,3.6 3.4835,5.458 1.1097,1.8323 2.2322,3.6516 3.3677,5.458 0.38712,0.59352 0.76164,1.2126 1.1229,1.8578 0.3871,0.61934 0.78702,1.213 1.1999,1.7808 0.46452,0.59354 1.0193,0.89038 1.6645,0.89038 h 12.077 c 0.38712,0 0.90358,-0.0518 1.5487,-0.15503 0.64515,-0.129 0.96789,-0.47715 0.96789,-1.0449 0,-0.36125 -0.11655,-0.72288 -0.34881,-1.0842 -0.20645,-0.36128 -0.41263,-0.67055 -0.61908,-0.92861 -0.23227,-0.30967 -0.74873,-0.98103 -1.5487,-2.0133 -0.77419,-1.0323 -1.6772,-2.2191 -2.7094,-3.561 -1.0322,-1.3419 -2.0388,-2.6582 -3.0194,-3.9486 -0.98065,-1.2903 -1.7934,-2.387 -2.4386,-3.2902 -0.64515,-0.92904 -0.96789,-1.445 -0.96789,-1.5482 0,-0.15484 0.14195,-0.32268 0.42581,-0.50333 3.2257,-1.8838 5.5611,-4.3611 7.0062,-7.431997 1.4709,-3.0969 2.2066,-6.4775 2.2066,-10.142 0,-4.8513 -0.9936,-8.6964 -2.9807,-11.535 -1.9613,-2.8645 -4.6706,-4.9159 -8.1286,-6.1546 -3.4579,-1.2645 -7.3931,-1.897 -11.806,-1.897 h -16.491 z m -104.13,5.17e-4 c -1.3161,0 -1.9745,0.67085 -1.9745,2.0128 h 5.17e-4 c 0,1.3677 0.01295,2.7483 0.03876,4.1418 0.05161,1.3677 0.08995,2.7353 0.11575,4.1031 0.05161,2.8903 0.09046,5.7804 0.11627,8.6707 0.02581,2.8903 0.03876,5.7804 0.03876,8.6707 0,2.8903 -0.01295,5.7804 -0.03876,8.6707 -0.02581,2.8903 -0.06466,5.7939 -0.11627,8.71 -0.02581,1.3677 -0.06414,2.7483 -0.11575,4.1418 -0.02581,1.3677 -0.03876,2.7353 -0.03876,4.1031 0,1.3419 0.65789,2.0128 1.974,2.0128 h 10.722 c 1.3161,0 1.974,-0.65789 1.974,-1.974 v -8.9808 c 0.02581,-2.9935 0.03876,-5.9868 0.03876,-8.9802 0,-0.41289 0.21914,-0.6196 0.65784,-0.6196 h 17.109 c 1.3419,0 2.0128,-0.67083 2.0128,-2.0128 0,-1.4709 -0.01295,-2.9417 -0.03876,-4.4126 v -4.4131 c 0,-1.3161 -0.65789,-1.974 -1.974,-1.974 h -17.109 c -0.4387,0 -0.65784,-0.20618 -0.65784,-0.61908 v -7.8196 c 0,-0.41289 0.21914,-0.61908 0.65784,-0.61908 h 20.477 c 1.2387,0 1.8966,-0.645 1.974,-1.9353 0.05161,-0.56773 0.06456,-1.1355 0.03876,-1.7032 0,-0.59353 0.01295,-1.1743 0.03876,-1.742 l 0.07751,-2.7099 c 0.02581,-0.9032 0.03876,-1.7932 0.03876,-2.6706 0,-1.3677 -0.67085,-2.0515 -2.0128,-2.0515 h -34.025 z m 210.96,0 c -1.3161,0 -1.9745,0.67085 -1.9745,2.0128 l 0.001,-5.17e-4 c 0,1.3677 0.013,2.7488 0.0388,4.1423 0.0516,1.3677 0.0905,2.7353 0.11627,4.1031 0.0516,2.8903 0.0905,5.7804 0.11627,8.6707 0.0258,2.8903 0.0388,5.7804 0.0388,8.6707 0,2.8903 -0.013,5.780397 -0.0388,8.670697 -0.0258,2.8903 -0.0647,5.7934 -0.11627,8.7095 -0.0258,1.3677 -0.0647,2.7488 -0.11627,4.1424 -0.0258,1.3677 -0.0388,2.7353 -0.0388,4.1031 0,1.3419 0.65841,2.0128 1.9745,2.0128 h 33.793 c 1.3419,0 2.0128,-0.6838 2.0128,-2.0515 0,-1.3935 -0.013,-2.8643 -0.0388,-4.4126 -0.0258,-1.5483 -0.0776,-3.0196 -0.15502,-4.4131 -0.0775,-1.2903 -0.73536,-1.9353 -1.974,-1.9353 h -20.245 c -0.4387,0 -0.65783,-0.20669 -0.65783,-0.61959 l 0.0388,-7.9736 c 0,-0.41289 0.20619,-0.6196 0.61908,-0.6196 h 16.451 c 1.3419,0 2.0128,-0.67084 2.0128,-2.012797 v -7.432 c 0,-1.3419 -0.67084,-2.0128 -2.0128,-2.0128 h -16.451 c -0.41289,0 -0.61908,-0.2067 -0.61908,-0.6196 l -0.0388,-7.7033 c 0,-0.41289 0.21913,-0.61908 0.65783,-0.61908 h 19.354 c 1.2645,0 1.9354,-0.65789 2.0128,-1.974 0.0516,-0.64512 0.0646,-1.2777 0.0388,-1.897 -0.0258,-0.64512 -0.0258,-1.2901 0,-1.9353 l 0.0775,-2.4773 c 0.0258,-0.8258 0.0388,-1.6515 0.0388,-2.4773 0,-1.3677 -0.67136,-2.0515 -2.0133,-2.0515 h -32.903 z m -143.03,12.232 c 2.7097,0 4.9419,0.80035 6.6967,2.4003 1.7806,1.5742 3.0964,3.5484 3.948,5.9226 0.8774,2.3742 1.3162,4.7484 1.3162,7.1225 0,1.7032 -0.21965,3.4449 -0.65835,5.2255 -0.43873,1.7807 -1.1225,3.4451 -2.0515,4.9934 -0.9032,1.5226 -2.0771,2.7612 -3.5222,3.716 -1.4451,0.929 -3.1614,1.3937 -5.1485,1.3937 -2.7096,0 -5.0061,-0.7745 -6.89,-2.3228 -1.8839,-1.5742 -3.3163,-3.5479 -4.2969,-5.9221 -0.9806,-2.3742 -1.4707,-4.7743 -1.4707,-7.2 0,-2.3483 0.45123,-4.6967 1.3544,-7.045 0.929,-2.3484 2.2842,-4.3097 4.0648,-5.8838 1.8064,-1.6 4.0257,-2.4003 6.6579,-2.4003 z m 48.928,0.58084 h 5.6125 c 1.9871,0 3.4837,0.74807 4.4901,2.2448 1.0323,1.4968 1.5487,3.1612 1.5487,4.9934 0,1.8322 -0.52942,3.4065 -1.5875,4.7227 -1.058,1.3161 -2.5547,1.974 -4.4901,1.974 h -5.5355 v -6.9675 c 0,-2.3225 -0.0124,-4.6449 -0.0382,-6.9675 z"
       fill="#ff003f"
       style="paint-order:markers fill stroke"
       id="path2" />
    <path
       d="m 129.83,5.5704 c -0.23225,0 -0.41304,0.11604 -0.54207,0.3483 -1.9613,4.0257 -3.8454,8.1028 -5.6518,12.232 -1.8065,4.1033 -3.6382,8.1942 -5.4962,12.271 -2.2451,4.9551 -4.5292,9.8969 -6.8517,14.826 -2.2967,4.9291 -4.6191,9.8581 -6.9675,14.787 -0.10322,0.23225 -0.20683,0.47729 -0.31005,0.73535 -0.10322,0.23225 -0.15452,0.49024 -0.15452,0.77411 0,0.59357 0.25799,0.96757 0.77411,1.1224 0.5419,0.15483 1.032,0.23254 1.4707,0.23254 l 9.9874,-10e-4 c 0.49034,7e-6 0.86435,-0.1036 1.1224,-0.31006 0.25806,-0.20645 0.49014,-0.51572 0.69659,-0.92862 0.15483,-0.30967 0.29677,-0.63241 0.42581,-0.96789 0.12902,-0.36126 0.25802,-0.69698 0.38705,-1.0066 0.30967,-0.77413 0.61948,-1.5481 0.92913,-2.3223 0.33548,-0.77413 0.65822,-1.5481 0.96789,-2.3223 0.0258,-0.05161 0.0388,-0.09046 0.0388,-0.11627 0,-0.05161 0.013,-0.09046 0.0388,-0.11627 0.12903,-0.20645 0.30931,-0.30954 0.54156,-0.30954 h 15.019 c 0.25806,0 0.45181,0.14194 0.58083,0.42581 0.43873,1.0839 0.82569,2.2065 1.1612,3.3677 0.33549,1.1355 0.74836,2.2321 1.2387,3.2902 0.20644,0.43868 0.43853,0.7744 0.69659,1.0066 0.25808,0.20645 0.64555,0.30954 1.1617,0.30954 h 12.503 c 0.43868,0 0.91583,-0.07719 1.432,-0.23202 0.54192,-0.15486 0.81286,-0.52938 0.81286,-1.1229 0,-0.28387 -0.0513,-0.54185 -0.15451,-0.77411 -0.0774,-0.25806 -0.18103,-0.5031 -0.31006,-0.73535 -2.3483,-4.9289 -4.6837,-9.8452 -7.0062,-14.748 -2.2967,-4.9288 -4.5803,-9.883 -6.8512,-14.864 -1.8581,-4.0775 -3.6904,-8.1684 -5.4968,-12.271 -1.8064,-4.1289 -3.6905,-8.206 -5.6518,-12.232 -0.10322,-0.23225 -0.2835,-0.3483 -0.54156,-0.3483 z m 32.167,0.42736 c -0.20645,0 -0.30954,0.090142 -0.30954,0.27078 0,1.5742 0.0389,3.1485 0.11626,4.7227 0.0774,1.5484 0.12872,3.1093 0.15451,4.6834 0.15483,6.529 0.23254,13.097 0.23254,19.703 0,2.8903 -0.0259,5.768 -0.0775,8.6325 -0.0258,2.8645 -0.0647,5.7417 -0.11626,8.632 -0.0258,1.3419 -0.0642,2.7095 -0.11576,4.1031 -0.0516,1.3677 -0.0775,2.7359 -0.0775,4.1036 0,1.3677 0.65789,2.0515 1.974,2.0515 h 10.993 c 1.3161,0 1.974,-0.6584 1.974,-1.9745 v -6.5417 c 0,-2.9935 -0.0124,-5.9743 -0.0382,-8.942 -0.0258,-2.9935 -0.0388,-5.9738 -0.0388,-8.9415 0,-0.12903 0.013,-0.29688 0.0388,-0.50332 0.0516,-0.23225 0.16766,-0.3483 0.3483,-0.3483 0.12903,0 0.24507,0.0518 0.34828,0.15503 0.10323,0.07741 0.20631,0.1546 0.30954,0.23202 0.46453,0.38713 1.4193,1.1999 2.8644,2.4386 1.4451,1.2129 3.1744,2.6966 5.1872,4.4514 2.0387,1.729 4.2062,3.5743 6.5029,5.5355 2.3225,1.9612 4.6066,3.8966 6.8517,5.8063 2.2709,1.8839 4.3354,3.6131 6.1934,5.1872 1.8839,1.5484 3.4064,2.787 4.5676,3.716 1.187,0.9548 1.832,1.4319 1.9353,1.4319 l 5.2e-4,0.001 c 0.12903,0 0.19378,-0.06424 0.19378,-0.19327 0,-1.5742 -0.0388,-3.1356 -0.11627,-4.6839 -0.0516,-1.5742 -0.10343,-3.1485 -0.15503,-4.7227 -0.15483,-6.5803 -0.23202,-13.174 -0.23202,-19.78 0,-2.8903 0.013,-5.7675 0.0388,-8.632 0.0516,-2.8645 0.10291,-5.7417 0.15451,-8.632 0.0258,-1.3677 0.0647,-2.7353 0.11627,-4.1031 0.0516,-1.3935 0.0775,-2.7746 0.0775,-4.1423 0,-1.3677 -0.65789,-2.0515 -1.974,-2.0515 h -10.839 c -1.3161,0 -1.9745,0.65841 -1.9745,1.9745 v 12.58 c 0.0258,4.1803 0.0387,8.3736 0.0387,12.58 0,0.10323 -0.0129,0.27055 -0.0387,0.50281 -0.0258,0.23225 -0.14185,0.34881 -0.3483,0.34881 -0.10322,0 -0.21927,-0.03885 -0.34829,-0.11627 -0.10323,-0.10322 -0.20632,-0.19336 -0.30954,-0.27078 -5.5997,-4.8517 -11.174,-9.7424 -16.722,-14.671 -5.5224,-4.9291 -11.148,-9.7292 -16.877,-14.4 C 162.31996,6.06224 162.15212,5.998 161.99729,5.998 Z M 7.587,7.66066 c -1.3419,0 -2.0128,0.6838 -2.0128,2.0515 H 5.57317 c 0,1.3677 0.025902,2.7483 0.077514,4.1418 0.051614,1.3677 0.090465,2.7353 0.11627,4.1031 0.051614,2.8903 0.090465,5.7804 0.11627,8.6707 0.025806,2.8645 0.038757,5.7417 0.038757,8.632 0,2.8903 -0.012951,5.781 -0.038757,8.6712 -0.025808,2.8903 -0.064659,5.7804 -0.11627,8.6707 -0.025808,1.3677 -0.064659,2.7483 -0.11627,4.1418 -0.051612,1.3677 -0.077514,2.7353 -0.077514,4.1031 0,1.3677 0.67136,2.0515 2.0133,2.0515 h 19.858 c 2.6838,0 5.316,-0.27094 7.8966,-0.81286 2.5806,-0.54193 4.903,-1.4319 6.9675,-2.6706 2.0903,-1.2645 3.7548,-2.9549 4.9934,-5.071 1.2387,-2.1161 1.8578,-4.7483 1.8578,-7.8966 0,-2.9935 -0.78694,-5.4578 -2.3611,-7.3933 -1.5483,-1.9613 -3.548,-3.6387 -5.9996,-5.0322 -0.10323,-0.05161 -0.21979,-0.11636 -0.34881,-0.19378 -0.12903,-0.10323 -0.19327,-0.23222 -0.19327,-0.38705 0,-0.12903 0.05128,-0.23212 0.15451,-0.30954 0.10322,-0.10322 0.20683,-0.19388 0.31006,-0.2713 1.8323,-1.4452 3.2387,-3.0967 4.2193,-4.9547 0.9806,-1.8839 1.4707,-4.0125 1.4707,-6.3866 0,-2.7613 -0.67084,-5.0453 -2.0128,-6.8517 -1.3161,-1.8064 -3.0454,-3.2129 -5.1872,-4.2193 -2.1161,-1.0322 -4.3996,-1.7549 -6.8512,-2.1678 -2.4515,-0.41289 -4.7869,-0.61908 -7.0062,-0.61908 h -17.767 z m 50.669,0 c -1.3419,0 -2.0128,0.68432 -2.0128,2.0521 0,1.3677 0.0259,2.7483 0.07751,4.1418 0.05161,1.3677 0.09046,2.7353 0.11627,4.1031 0.05161,2.8903 0.08995,5.7804 0.11575,8.6707 0.02581,2.8645 0.03876,5.7417 0.03876,8.632 0,2.8903 -0.01295,5.781 -0.03876,8.6712 -0.02581,2.8902 -0.06414,5.7804 -0.11575,8.6707 -0.02581,1.3677 -0.06466,2.7483 -0.11627,4.1418 -0.05161,1.3677 -0.07751,2.7353 -0.07751,4.1031 0,1.3677 0.67085,2.0515 2.0128,2.0515 H 68.94 c 1.3161,0 1.9745,-0.65789 1.9745,-1.974 0,-2.1935 0.01295,-4.3739 0.03876,-6.5417 0.02581,-2.1935 0.03824,-4.3874 0.03824,-6.5809 0,-0.4387 0.21965,-0.65784 0.65835,-0.65784 h 2.0515 c 0.23226,0 0.41305,0.10309 0.54208,0.30954 1.2129,1.7807 2.3738,3.6 3.4835,5.458 1.1097,1.8323 2.2323,3.6516 3.3677,5.458 0.38711,0.59352 0.76163,1.2131 1.1229,1.8583 0.38711,0.61933 0.78702,1.2125 1.1999,1.7802 0.46452,0.59354 1.0193,0.89038 1.6645,0.89038 h 12.077 c 0.38712,0 0.90358,-0.05128 1.5487,-0.15451 0.64515,-0.129 0.96789,-0.47767 0.96789,-1.0454 0,-0.36132 -0.11656,-0.72236 -0.34881,-1.0836 -0.20645,-0.36129 -0.41263,-0.67107 -0.61908,-0.92913 -0.23227,-0.30967 -0.74873,-0.98051 -1.5487,-2.0128 -0.77413,-1.0322 -1.6771,-2.2196 -2.7094,-3.5615 -1.0322,-1.3419 -2.0388,-2.6577 -3.0194,-3.948 -0.98065,-1.2903 -1.7934,-2.387 -2.4386,-3.2902 -0.64515,-0.92904 -0.96789,-1.4455 -0.96789,-1.5487 0,-0.15484 0.14194,-0.32268 0.42581,-0.50332 3.2257,-1.8838 5.5616,-4.3611 7.0067,-7.432 1.4709,-3.0969 2.206,-6.4775 2.206,-10.142 0,-4.8513 -0.9936,-8.6964 -2.9807,-11.535 -1.9613,-2.8645 -4.6706,-4.9159 -8.1286,-6.1546 -3.4579,-1.2645 -7.3931,-1.8965 -11.806,-1.8965 l -16.491,-5.168e-4 z m 164.51,0.00155 c -1.3161,0 -1.9745,0.68432 -1.9745,2.0521 0,1.3419 0.0259,2.6836 0.0775,4.0256 0.0516,1.3161 0.0905,2.6449 0.11627,3.9868 0.0516,2.9161 0.0905,5.8451 0.11627,8.787 0.0258,2.9161 0.0388,5.8322 0.0388,8.7482 0,2.9419 -0.013,5.8839 -0.0388,8.8257 -0.0258,2.9161 -0.0647,5.8322 -0.11627,8.7482 -0.0258,1.3419 -0.0647,2.6836 -0.11627,4.0256 -0.0516,1.3161 -0.0775,2.6449 -0.0775,3.9868 0,1.3677 0.6584,2.0515 1.9745,2.0515 l 19.045,-5.17e-4 c 5.29,0 10.064,-1.0579 14.322,-3.1739 4.2835,-2.1161 7.677,-5.1482 10.18,-9.0965 2.5032,-3.9738 3.7548,-8.6961 3.7548,-14.167 0,-6.374 -1.3158,-11.69 -3.948,-15.948 -2.6325,-4.2838 -6.2844,-7.4962 -10.955,-9.6381 -4.6451,-2.1419 -10.013,-3.2132 -16.103,-3.2132 h -16.296 z m 12.773,12.658 h 6.9292 c 3.1741,0 5.6774,0.6838 7.5096,2.0515 1.858,1.3419 3.1738,3.1742 3.948,5.4968 0.77421,2.2967 1.1612,4.8647 1.1612,7.7033 0,5.0321 -1.3806,8.7093 -4.1418,11.032 -2.7351,2.3225 -6.5286,3.484 -11.38,3.484 h -4.0256 l -5.2e-4,-5.16e-4 c 0.0774,-9.9353 0.0774,-19.858 0,-29.767 z M 20.319,20.4742 h 5.69 c 1.2129,0 2.4002,0.29684 3.5615,0.89038 1.1613,0.59353 1.7415,1.6125 1.7415,3.0577 0,1.3935 -0.50299,2.542 -1.5095,3.4452 -0.9806,0.8774 -2.155,1.3162 -3.5228,1.3162 h -5.9221 v -4.3356 c 0,-1.4709 -0.01295,-2.9287 -0.03876,-4.3739 z m 50.67,0 h 5.6125 c 1.9871,0 3.4837,0.74859 4.4901,2.2453 1.0323,1.4968 1.5488,3.1612 1.5487,4.9934 -1e-4,1.8322 -0.52949,3.4065 -1.5875,4.7227 -1.058,1.3161 -2.5547,1.974 -4.4901,1.974 h -5.5355 v -6.968 c 0,-2.3225 -0.01243,-4.6449 -0.03824,-6.9675 z m 58.257,12.582 c 0.59353,1.729 1.1872,3.4707 1.7808,5.2255 0.61933,1.7548 1.226,3.5094 1.8195,5.2642 h -7.7033 c 0.6968,-1.7548 1.3806,-3.5094 2.0515,-5.2642 0.6968,-1.7548 1.3806,-3.4965 2.0515,-5.2255 z m -108.89,8.9022 h 5.6125 c 1.0065,0 2.142,0.05129 3.4065,0.15451 1.2903,0.1032 2.4,0.43892 3.329,1.0066 0.9548,0.56773 1.4325,1.5484 1.4325,2.9419 0,1.2903 -0.43879,2.258 -1.3162,2.9032 -0.8774,0.61935 -1.9228,1.0322 -3.1357,1.2387 -1.1871,0.20645 -2.2709,0.30954 -3.2515,0.30954 h -6.1159 v -4.2963 c 0.02581,-1.4193 0.03876,-2.8388 0.03876,-4.2581 z m 185.84,27.58 c -9.5479,0 -16.889,2.6452 -22.025,7.9354 -5.1354,5.2907 -7.7033,12.671 -7.7033,22.142 -6e-5,4.3353 0.77443,8.1415 2.3228,11.419 1.5484,3.2775 3.677,6.0256 6.3866,8.2449 2.7355,2.1935 5.8841,3.8455 9.4453,4.9552 3.5611,1.1097 7.3673,1.6645 11.419,1.6645 1.3419,0 2.9422,-0.14194 4.8002,-0.42581 1.858,-0.25808 3.7546,-0.64555 5.69,-1.1617 1.9613,-0.51614 3.7806,-1.1352 5.458,-1.8578 1.6774,-0.7484 3.0192,-1.5871 4.0256,-2.5161 0.4129,-0.38706 0.6196,-0.87716 0.6196,-1.4707 l -5.2e-4,-0.001 c 0,-1.1871 -0.0259,-2.3615 -0.0775,-3.5228 l -0.0775,-3.561 c -0.0774,-4.7224 -0.11575,-9.458 -0.11575,-14.206 0,-1.3161 -0.65841,-1.974 -1.9745,-1.974 h -18.89 c -1.3161,0 -1.9745,0.65789 -1.9745,1.974 v 5.458 c 0,1.3161 0.6584,1.9745 1.9745,1.9745 h 8.0124 c 0.4387,0 0.65835,0.20619 0.65835,0.61908 l 0.0387,5.1485 c 0,0.41286 -0.39991,0.76102 -1.1999,1.0449 -0.7742,0.28386 -1.7165,0.51646 -2.8262,0.6971 -1.0839,0.15484 -2.1029,0.27088 -3.0577,0.3483 -0.95479,0.0774 -1.6003,0.11627 -1.9358,0.11627 -4.4643,0 -7.8706,-1.2645 -10.219,-3.7935 -2.3225,-2.5548 -3.4835,-6.0128 -3.4835,-10.374 0,-10.348 5.1867,-15.522 15.561,-15.522 3.8451,0 7.5745,0.63256 11.187,1.897 0.46447,0.15483 0.82558,0.23202 1.0836,0.23202 0.51609,0 0.8772,-0.14194 1.0836,-0.42581 0.23225,-0.30971 0.42599,-0.67075 0.58084,-1.0836 0.0774,-0.23227 0.2582,-0.813 0.54208,-1.742 0.30967,-0.929 0.6319,-1.9615 0.96736,-3.0969 0.36129,-1.1355 0.67108,-2.1415 0.92914,-3.0189 0.25806,-0.90324 0.38705,-1.4197 0.38705,-1.5487 0,-0.43868 -0.11604,-0.77388 -0.3483,-1.0061 -0.23225,-0.23225 -0.52909,-0.43896 -0.89037,-0.6196 -1.3677,-0.67097 -3.0451,-1.2128 -5.0322,-1.6257 -1.9613,-0.4387 -3.9614,-0.76144 -6.0001,-0.96789 -2.0129,-0.23225 -3.7934,-0.3483 -5.3417,-0.3483 z m -112.99,0.001 c -3.8451,0 -7.3937,0.76103 -10.645,2.2836 -3.2516,1.5225 -6.0899,3.5999 -8.5157,6.2321 -2.3999,2.6322 -4.2711,5.6514 -5.613,9.0578 -1.3161,3.3806 -1.974,6.9292 -1.974,10.645 l -5.16e-4,5.17e-4 c 0,3.793403 0.6584,7.380403 1.9745,10.761003 1.3419,3.3806 3.2126,6.3868 5.6125,9.019 2.4258,2.6064 5.2647,4.6579 8.5162,6.1546 3.2773,1.4709 6.8643,2.2066 10.761,2.2066 3.8193,0 7.367396,-0.73563 10.644996,-2.2066 3.3031,-1.4967 6.1809,-3.5352 8.6325,-6.1158 2.4515,-2.6064 4.3611,-5.5872 5.7288,-8.942 1.3935,-3.3808 2.0903,-6.9421 2.0903,-10.684003 0,-3.7676 -0.69676,-7.3546 -2.0903,-10.761 -1.3677,-3.4064 -3.2902,-6.4385 -5.7676,-9.0965 -2.4515,-2.6581 -5.3293,-4.7483 -8.6325,-6.2709 -3.3029,-1.5225 -6.876696,-2.2836 -10.721996,-2.2836 z m -67.741,0.54156 c -1.3161,0 -1.974,0.67085 -1.974,2.0128 0,1.3677 0.01295,2.7483 0.03876,4.1418 0.05161,1.3677 0.09046,2.7359 0.11627,4.1036 0.05161,2.8903 0.09046,5.7804 0.11627,8.6707 0.02581,2.8903 0.03876,5.7804 0.03876,8.6707 0,2.8903 -0.01295,5.7804 -0.03876,8.6707 -0.02581,2.8903 -0.06466,5.7934 -0.11627,8.7095 -0.02581,1.3677 -0.06466,2.7483 -0.11627,4.1418 -0.02581,1.3677 -0.03876,2.7359 -0.03876,4.1036 0,1.3419 0.6584,2.0128 1.9745,2.0128 h 10.722 c 1.3161,0 1.9745,-0.6584 1.9745,-1.9745 v -8.9802 c 0.02581,-2.9935 0.03824,-5.9873 0.03824,-8.9808 0,-0.4129 0.21965,-0.61908 0.65835,-0.61908 h 17.109 c 1.3419,0 2.0128,-0.67085 2.0128,-2.0128 0,-1.4709 -0.01295,-2.9422 -0.03876,-4.4131 v -4.4126 c 0,-1.3161 -0.65789,-1.974 -1.974,-1.974 h -17.109 c -0.4387,0 -0.65835,-0.2067 -0.65835,-0.6196 v -7.8191 c 0,-0.41289 0.21965,-0.6196 0.65835,-0.6196 h 20.477 c 1.2387,0 1.8966,-0.645 1.974,-1.9353 0.05161,-0.56773 0.06456,-1.1355 0.03876,-1.7032 0,-0.59353 0.01295,-1.1743 0.03876,-1.742 l 0.07751,-2.7094 c 0.02581,-0.9032 0.03876,-1.7937 0.03876,-2.6711 0,-1.3677 -0.67136,-2.0515 -2.0133,-2.0515 h -34.025 z m 104.13,0 c -1.3419,0 -2.0128,0.6838 -2.0128,2.0515 0,1.3677 0.0254,2.7483 0.077,4.1418 0.0516,1.3677 0.0905,2.7353 0.11627,4.1031 0.0516,2.8903 0.0905,5.7804 0.11627,8.6707 0.0258,2.8645 0.0388,5.7422 0.0388,8.6325 0,2.8903 -0.013,5.7804 -0.0388,8.6707 -0.0258,2.8903 -0.0647,5.7804 -0.11627,8.6707 -0.0258,1.3677 -0.0647,2.7483 -0.11627,4.1418 -0.0516,1.3677 -0.077,2.7353 -0.077,4.1031 0,1.3677 0.67084,2.0515 2.0128,2.0515 h 10.684 c 1.3161,0 1.974,-0.65788 1.974,-1.974 0,-2.1935 0.013,-4.3739 0.0388,-6.5417 0.0258,-2.1935 0.0388,-4.3869 0.0388,-6.5804 0,-0.4387 0.21914,-0.65835 0.65784,-0.65835 h 2.052 c 0.23224,0 0.41253,0.10309 0.54156,0.30954 1.2129,1.7807 2.3743,3.6 3.484,5.458 1.1097,1.8323 2.2322,3.6516 3.3677,5.458 0.38711,0.59352 0.76111,1.2131 1.1224,1.8583 0.3871,0.61933 0.78702,1.213 1.1999,1.7808 0.46452,0.59354 1.0193,0.88986 1.6645,0.88986 h 12.077 c 0.38712,0 0.90307,-0.0513 1.5482,-0.15451 0.64516,-0.129 0.96789,-0.47768 0.96789,-1.0454 0,-0.36132 -0.11604,-0.72236 -0.34829,-1.0836 -0.20645,-0.36128 -0.41314,-0.67107 -0.6196,-0.92913 -0.23226,-0.30967 -0.74821,-0.98051 -1.5482,-2.0128 -0.77413,-1.0322 -1.6771,-2.2196 -2.7094,-3.5615 -1.0323,-1.3419 -2.0388,-2.6578 -3.0194,-3.948 -0.98065,-1.2903 -1.7934,-2.387 -2.4386,-3.2902 -0.64515,-0.92904 -0.96789,-1.4455 -0.96789,-1.5487 0,-0.15483 0.14195,-0.32217 0.42581,-0.50281 3.2257,-1.8838 5.5611,-4.3611 7.0062,-7.432 1.4709,-3.0969 2.2066,-6.478 2.2066,-10.142 0,-4.8513 -0.9936,-8.6959 -2.9807,-11.535 -1.9613,-2.8645 -4.6711,-4.9165 -8.1291,-6.1551 -3.4579,-1.2645 -7.3931,-1.8965 -11.806,-1.8965 h -16.49 z m 106.84,0 c -1.3161,0 -1.974,0.67085 -1.974,2.0128 h 10e-4 c 0,1.3677 0.013,2.7483 0.0388,4.1418 0.0516,1.3677 0.0905,2.7353 0.11627,4.1031 0.0516,2.8903 0.0899,5.781 0.11575,8.6712 0.0258,2.8902 0.0388,5.7804 0.0388,8.6707 0,2.8903 -0.013,5.7804 -0.0388,8.6707 -0.0258,2.8903 -0.0642,5.7934 -0.11575,8.7095 -0.0258,1.3677 -0.0647,2.7483 -0.11627,4.1418 -0.0258,1.3677 -0.0388,2.7353 -0.0388,4.1031 0,1.3419 0.65789,2.0133 1.974,2.0133 h 33.793 c 1.3419,0 2.0133,-0.6838 2.0133,-2.0515 0,-1.3935 -0.013,-2.8648 -0.0388,-4.4131 -0.0258,-1.5483 -0.0776,-3.0191 -0.15502,-4.4126 -0.0775,-1.2903 -0.73536,-1.9353 -1.974,-1.9353 h -20.245 c -0.43871,0 -0.65835,-0.2067 -0.65835,-0.61959 l 0.0388,-7.9741 c 0,-0.4129 0.20669,-0.61908 0.61959,-0.61908 h 16.451 c 1.3419,0 2.0128,-0.67136 2.0128,-2.0133 v -7.432 c 0,-1.3419 -0.67084,-2.0128 -2.0128,-2.0128 h -16.451 c -0.4129,0 -0.61959,-0.20618 -0.61959,-0.61908 l -0.0388,-7.7033 c 0,-0.41289 0.21964,-0.61908 0.65835,-0.61908 h 19.354 c 1.2645,0 1.9359,-0.6584 2.0133,-1.9745 0.0516,-0.64512 0.0646,-1.2772 0.0388,-1.8965 -0.0258,-0.64512 -0.0258,-1.2901 0,-1.9353 l 0.077,-2.4779 c 0.0258,-0.8258 0.0388,-1.6515 0.0388,-2.4773 0,-1.3677 -0.67085,-2.0515 -2.0128,-2.0515 h -32.903 z m -143.03,12.232 c 2.7097,0 4.9419,0.79983 6.6967,2.3998 1.7806,1.5742 3.097,3.5484 3.9486,5.9226 0.8774,2.3742 1.3157,4.7484 1.3157,7.1225 0,1.7032 -0.21913,3.4454 -0.65783,5.226 -0.43874,1.7807 -1.1225,3.4451 -2.0515,4.9934 -0.9032,1.5226 -2.0776,2.7612 -3.5228,3.716 -1.4451,0.929 -3.1609,1.3932 -5.148,1.3932 -2.7096,0 -5.0066,-0.77398 -6.8905,-2.3223 -1.8839,-1.5742 -3.3157,-3.5484 -4.2963,-5.9226 -0.9806,-2.3742 -1.4712,-4.7743 -1.4712,-7.2 0,-2.3483 0.45174,-4.6967 1.3549,-7.045 0.929,-2.3484 2.2837,-4.3097 4.0643,-5.8838 1.8064,-1.6 4.0257,-2.3998 6.6579,-2.3998 z m 48.928,0.58032 h 5.613 c 1.9871,0 3.4837,0.74859 4.4901,2.2453 1.0323,1.4968 1.5482,3.1612 1.5482,4.9934 0,1.8322 -0.5289,3.4065 -1.587,4.7227 -1.058,1.3161 -2.5547,1.974 -4.4901,1.974 h -5.5355 v -6.9675 c 0,-2.3225 -0.013,-4.6455 -0.0388,-6.968 z"
       fill="#dfdfdf"
       style="paint-order:markers fill stroke"
       id="path3" />
  </g>
</svg>
