<?xml version="1.0" encoding="UTF-8"?>
<svg width="1050" height="496.91" version="1.1" viewBox="0 0 277.81 131.47" xmlns="http://www.w3.org/2000/svg">
 <g>
  <path d="m135.4 11.143c-0.23225 0-0.41305 0.11604-0.54208 0.3483-1.9613 4.0257-3.8449 8.1033-5.6513 12.232-1.8065 4.1033-3.6388 8.1936-5.4968 12.271-2.2451 4.9551-4.5292 9.8969-6.8517 14.826-2.2967 4.9291-4.6191 9.8581-6.9675 14.787-0.10322 0.23225-0.20631 0.47729-0.30953 0.73535-0.10322 0.23225-0.15503 0.49076-0.15503 0.77462 0 0.59357 0.25798 0.96757 0.7741 1.1224 0.5419 0.15483 1.0325 0.23202 1.4712 0.23202l9.9869-0.001033c0.49034 7e-6 0.86434-0.10309 1.1224-0.30954s0.49066-0.51624 0.69711-0.92913c0.15483-0.30967 0.29677-0.63189 0.42581-0.96737 0.12902-0.36126 0.25802-0.69698 0.38705-1.0066 0.30967-0.77413 0.61947-1.5481 0.92913-2.3223 0.33548-0.77413 0.6577-1.5486 0.96738-2.3228 0.0258-0.051613 0.03875-0.089947 0.03875-0.11575 0-0.051613 0.01296-0.090464 0.03876-0.11627 0.12903-0.20645 0.30983-0.30954 0.54208-0.30954h15.019c0.25806 0 0.45181 0.14194 0.58084 0.42581 0.43872 1.0839 0.82568 2.2065 1.1612 3.3677 0.33548 1.1355 0.74836 2.2321 1.2387 3.2902 0.20645 0.43868 0.43905 0.77388 0.69711 1.0061 0.25808 0.20645 0.64504 0.30954 1.1612 0.30954h12.503c0.43868 0 0.91582-0.077192 1.4319-0.23202 0.54192-0.15486 0.81338-0.52886 0.81338-1.1224 0-0.28387-0.0518-0.54185-0.15503-0.77411-0.07742-0.25806-0.18051-0.50361-0.30954-0.73587-2.3483-4.9289-4.6837-9.8447-7.0062-14.748-2.2967-4.9288-4.5808-9.8835-6.8517-14.864-1.8581-4.0775-3.6904-8.1678-5.4968-12.271-1.8064-4.1289-3.69-8.2065-5.6513-12.232-0.10322-0.23225-0.28402-0.3483-0.54208-0.3483zm32.167 0.42736c-0.20646 0-0.31006 0.090659-0.31006 0.2713 0 1.5742 0.03885 3.148 0.11627 4.7222 0.07743 1.5484 0.12923 3.1098 0.15503 4.6839 0.15483 6.529 0.23202 13.097 0.23202 19.703 0 2.8903-0.02591 5.7675-0.07751 8.632-0.02582 2.8645-0.06415 5.7422-0.11575 8.6325-0.02582 1.3419-0.06468 2.7095-0.11628 4.1031-0.0516 1.3677-0.07751 2.7353-0.07751 4.1031s0.65841 2.0515 1.9745 2.0515h10.993c1.3161 0 1.974-0.65789 1.974-1.974v-6.5417c0-2.9935-0.01296-5.9743-0.03876-8.942-0.0258-2.9935-0.03875-5.9743-0.03875-8.942 0-0.12903 0.01295-0.29636 0.03875-0.50281 0.05162-0.23225 0.16766-0.34881 0.3483-0.34881 0.12903 0 0.24507 0.051801 0.34829 0.15503 0.10323 0.077414 0.20683 0.15461 0.31006 0.23203 0.46453 0.38713 1.4193 1.2004 2.8644 2.4391 1.4451 1.2129 3.1738 2.6966 5.1867 4.4514 2.0387 1.729 4.2067 3.5743 6.5034 5.5355 2.3225 1.9612 4.6061 3.8966 6.8512 5.8063 2.2709 1.8839 4.3354 3.6126 6.1934 5.1867 1.8839 1.5484 3.4064 2.787 4.5676 3.716 1.187 0.9548 1.8326 1.4325 1.9358 1.4325l5.2e-4 0.001033c0.12902 0 0.19327-0.064758 0.19327-0.19378 0-1.5742-0.03886-3.1351-0.11627-4.6834-0.05163-1.5742-0.10292-3.1485-0.15452-4.7227-0.15483-6.5803-0.23254-13.174-0.23254-19.78 0-2.8903 0.01296-5.7675 0.03876-8.632 0.05162-2.8645 0.10343-5.7422 0.15503-8.6325 0.02582-1.3677 0.06467-2.7353 0.11627-4.1031 0.0516-1.3935 0.077-2.7741 0.077-4.1418 0-1.3677-0.65789-2.0515-1.974-2.0515h-10.839c-1.3161 0-1.974 0.65789-1.974 1.974v12.58c0.0258 4.1803 0.03875 8.3736 0.03875 12.58 0 0.10323-0.01295 0.27107-0.03875 0.50332-0.02581 0.23225-0.14185 0.3483-0.3483 0.3483-0.10322 0-0.21978-0.038851-0.34881-0.11627-0.10322-0.10322-0.20631-0.19336-0.30954-0.27078-5.5997-4.8517-11.174-9.7419-16.722-14.671-5.5224-4.9291-11.148-9.7292-16.877-14.4-0.18064-0.12903-0.34797-0.19378-0.5028-0.19378zm-154.41 1.6629c-1.3419 0-2.0128 0.6838-2.0128 2.0515h-5.16e-4c0 1.3677 0.0259 2.7483 0.077514 4.1418 0.051613 1.3677 0.089947 2.7359 0.11575 4.1036 0.051613 2.8903 0.090464 5.7804 0.11627 8.6707 0.025806 2.8645 0.038757 5.7417 0.038757 8.632 0 2.8903-0.012951 5.7804-0.038757 8.6707-0.025807 2.8903-0.064658 5.7804-0.11627 8.6707-0.025807 1.3677-0.064141 2.7483-0.11575 4.1418-0.051614 1.3677-0.077514 2.7359-0.077514 4.1036 0 1.3677 0.67084 2.0515 2.0128 2.0515h19.858c2.6838 0 5.316-0.27094 7.8966-0.81286 2.5806-0.54193 4.903-1.4325 6.9675-2.6711 2.0903-1.2645 3.7548-2.9549 4.9934-5.071 1.2387-2.1161 1.8583-4.7483 1.8583-7.8966 0-2.9935-0.78694-5.4578-2.3611-7.3933-1.5483-1.9613-3.5485-3.6387-6.0001-5.0322-0.10323-0.051606-0.21927-0.11585-0.3483-0.19327-0.12903-0.10323-0.19378-0.23222-0.19378-0.38705 0-0.12903 0.051801-0.23264 0.15503-0.31006 0.10322-0.10322 0.20631-0.19336 0.30954-0.27078 1.8323-1.4452 3.2387-3.0967 4.2193-4.9547 0.9806-1.8839 1.4707-4.013 1.4707-6.3872 0-2.7613-0.67084-5.0453-2.0128-6.8517-1.3161-1.8064-3.0448-3.2124-5.1867-4.2188-2.1161-1.0322-4.4001-1.7549-6.8517-2.1678-2.4515-0.41289-4.7869-0.6196-7.0062-0.6196h-17.767zm50.67 5.17e-4c-1.3419 0-2.0133 0.6838-2.0133 2.0515 0 1.3677 0.0259 2.7483 0.077514 4.1418 0.051613 1.3677 0.090464 2.7353 0.11627 4.1031 0.051613 2.8903 0.090464 5.781 0.11627 8.6712 0.025806 2.8645 0.038757 5.7417 0.038757 8.632s-0.012951 5.7804-0.038757 8.6707c-0.025807 2.8903-0.064658 5.7804-0.11627 8.6707-0.025807 1.3677-0.064658 2.7483-0.11627 4.1418-0.051614 1.3677-0.077514 2.7359-0.077514 4.1036 0 1.3677 0.67136 2.0515 2.0133 2.0515h10.684c1.3161 0 1.974-0.6584 1.974-1.9745 0-2.1935 0.01295-4.3739 0.038757-6.5417 0.025806-2.1935 0.038757-4.3869 0.038757-6.5804 0-0.4387 0.21914-0.65784 0.65784-0.65784h2.0515c0.23226 0 0.41305 0.10309 0.54208 0.30954 1.2129 1.7807 2.3743 3.6 3.484 5.458 1.1097 1.8323 2.2323 3.6516 3.3677 5.458 0.38711 0.59352 0.76112 1.2126 1.1224 1.8578 0.38711 0.61933 0.78702 1.213 1.1999 1.7808 0.46452 0.59354 1.0193 0.89038 1.6645 0.89038h12.077c0.38712 0 0.90306-0.051801 1.5482-0.15503 0.64515-0.129 0.96789-0.47716 0.96789-1.0449 0-0.36132-0.11604-0.72288-0.34829-1.0842-0.20646-0.36129-0.41315-0.67107-0.6196-0.92913-0.23227-0.30967-0.74821-0.98051-1.5482-2.0128-0.77413-1.0322-1.6776-2.2191-2.7099-3.561-1.0322-1.3419-2.0383-2.6582-3.0189-3.9486-0.98065-1.2903-1.794-2.387-2.4391-3.2902-0.64515-0.92904-0.96737-1.445-0.96737-1.5482 0-0.15484 0.14194-0.32268 0.42581-0.50332 3.2257-1.8838 5.5611-4.3611 7.0062-7.432 1.4709-3.0969 2.2066-6.4775 2.2066-10.142 0-4.8513-0.9936-8.6964-2.9807-11.535-1.9613-2.8645-4.6711-4.9159-8.1291-6.1546-3.4579-1.2645-7.3931-1.897-11.806-1.897h-16.49zm164.51 0.00155c-1.3161 0-1.974 0.6838-1.974 2.0515 0 1.3419 0.02591 2.6836 0.07751 4.0256 0.05162 1.3161 0.08996 2.6454 0.11576 3.9873 0.05162 2.9161 0.09047 5.8451 0.11627 8.787 0.0258 2.9161 0.03875 5.8322 0.03875 8.7482 0 2.9419-0.01295 5.8834-0.03875 8.8252-0.02582 2.9161-0.06467 5.8322-0.11627 8.7482-0.02582 1.3419-0.06416 2.6836-0.11576 4.0256-0.0516 1.3161-0.07751 2.6454-0.07751 3.9873 0 1.3677 0.65789 2.0515 1.974 2.0515l19.046-5.17e-4c5.29 0 10.064-1.0579 14.322-3.1739 4.2835-2.1161 7.6764-5.1482 10.18-9.0965 2.5032-3.9738 3.7548-8.6966 3.7548-14.167 0-6.374-1.3158-11.69-3.948-15.948-2.6325-4.2838-6.2839-7.4967-10.955-9.6386-4.6451-2.1419-10.013-3.2127-16.103-3.2127h-16.296zm12.774 12.658h6.9287c3.1741 0 5.6774 0.6838 7.5096 2.0515 1.858 1.3419 3.1744 3.1742 3.9486 5.4968 0.7742 2.2967 1.1612 4.8642 1.1612 7.7028 0 5.0321-1.3806 8.7093-4.1418 11.032-2.7351 2.3225-6.5286 3.484-11.38 3.484h-4.0256-5.2e-4c0.07742-9.9353 0.07742-19.858 0-29.767zm-215.22 0.15348h5.6906c1.2129 0 2.3997 0.29684 3.561 0.89038 1.1613 0.59353 1.742 1.613 1.742 3.0582 0 1.3935-0.5035 2.542-1.51 3.4452-0.9806 0.8774-2.1545 1.3157-3.5222 1.3157h-5.9226v-4.3351c0-1.4709-0.012951-2.9292-0.038757-4.3744zm50.67 5.17e-4h5.6125c1.9871 0 3.4842 0.74807 4.4906 2.2448 1.0323 1.4968 1.5483 3.1612 1.5482 4.9934s-0.52897 3.4065-1.587 4.7227c-1.058 1.3161-2.5547 1.974-4.4901 1.974h-5.5355v-6.9675c0-2.3225-0.012951-4.6449-0.038757-6.9675zm58.257 12.581c0.59352 1.729 1.1867 3.4707 1.7802 5.2255 0.61932 1.7548 1.226 3.5099 1.8195 5.2647h-7.7033c0.6968-1.7548 1.3811-3.5099 2.052-5.2647 0.6968-1.7548 1.3806-3.4965 2.0515-5.2255zm-108.89 8.9022h5.613c1.0065 0 2.1415 0.051801 3.406 0.15503 1.2903 0.1032 2.4005 0.43891 3.3295 1.0066 0.9548 0.56773 1.4319 1.5484 1.4319 2.9419 0 1.2903-0.43879 2.258-1.3162 2.9032-0.8774 0.61935-1.9223 1.0322-3.1352 1.2387-1.1871 0.20645-2.2709 0.30954-3.2515 0.30954h-6.1164v-4.2969c0.025806-1.4193 0.038757-2.8388 0.038757-4.2581zm185.84 27.58c-9.5479 0-16.889 2.6452-22.025 7.9354-5.1354 5.2907-7.7033 12.671-7.7033 22.142 0 4.3353 0.77399 8.142 2.3223 11.419 1.5484 3.2773 3.6776 6.0256 6.3872 8.2449 2.7355 2.1935 5.8836 3.845 9.4448 4.9547 3.5611 1.1097 7.3678 1.6645 11.419 1.6645 1.3419 0 2.9417-0.14195 4.7997-0.42581 1.858-0.25808 3.7546-0.64503 5.69-1.1612 1.9613-0.51614 3.7806-1.1357 5.458-1.8583 1.6774-0.7484 3.0197-1.5871 4.0261-2.5161 0.41289-0.38706 0.61907-0.87716 0.61907-1.4707l-5.1e-4 -0.00104c0-1.1871-0.0254-2.361-0.077-3.5222l-0.07751-3.561c-0.07742-4.7223-0.11628-9.4579-0.11628-14.206 0-1.3161-0.65788-1.974-1.974-1.974h-18.89c-1.3161 0-1.974 0.65789-1.974 1.974v5.458c0 1.3161 0.65789 1.974 1.974 1.974h8.0129c0.4387 0 0.65783 0.2067 0.65783 0.61959l0.03876 5.1485c0 0.41287-0.39992 0.76103-1.1999 1.0449-0.7742 0.28386-1.716 0.51594-2.8256 0.69659-1.0839 0.15483-2.1034 0.27087-3.0582 0.34829-0.95479 0.07742-1.5998 0.11627-1.9353 0.11627-4.4643 0-7.8706-1.2645-10.219-3.7935-2.3225-2.5548-3.484-6.0128-3.484-10.374 0-10.348 5.1872-15.522 15.561-15.522 3.8451 0 7.574 0.63204 11.187 1.8965 0.46447 0.15483 0.82558 0.23254 1.0836 0.23254 0.51615 0 0.87771-0.14194 1.0842-0.42581 0.23226-0.30971 0.42549-0.67127 0.58032-1.0842 0.07742-0.23227 0.25822-0.813 0.54208-1.742 0.30967-0.929 0.63241-1.961 0.96789-3.0964 0.36129-1.1355 0.67108-2.142 0.92914-3.0194 0.25806-0.90324 0.38705-1.4192 0.38705-1.5482 0-0.43868-0.11656-0.7744-0.34881-1.0066-0.23226-0.23225-0.52858-0.43844-0.88986-0.61908-1.3677-0.67097-3.0451-1.2128-5.0322-1.6257-1.9613-0.4387-3.9614-0.76144-6.0001-0.96789-2.0129-0.23225-3.7934-0.3483-5.3418-0.3483zm-112.99 5.17e-4c-3.8451 0-7.3931 0.76154-10.645 2.2841-3.2516 1.5225-6.0905 3.5999-8.5162 6.2321-2.3999 2.6322-4.2706 5.6514-5.6125 9.0578-1.3161 3.3806-1.9745 6.9287-1.9745 10.645v5.2e-4c0 3.7934 0.65789 7.3804 1.974 10.761 1.3419 3.3806 3.2131 6.3873 5.613 9.0195 2.4258 2.6064 5.2641 4.6579 8.5157 6.1546 3.2773 1.4709 6.8643 2.206 10.761 2.206 3.8193 0 7.3679-0.73511 10.645-2.206 3.3031-1.4967 6.1804-3.5358 8.632-6.1164 2.4515-2.6064 4.3611-5.5867 5.7288-8.9415 1.3935-3.3808 2.0903-6.9421 2.0903-10.684 0-3.7676-0.69676-7.3546-2.0903-10.761-1.3677-3.4064-3.2902-6.4385-5.7676-9.0965-2.4516-2.6581-5.3288-4.7483-8.632-6.2709-3.3029-1.5225-6.8772-2.2841-10.722-2.2841zm36.386 0.54156c-1.3419 0-2.0128 0.6838-2.0128 2.0515 0 1.3677 0.02591 2.7483 0.07751 4.1418 0.05162 1.3677 0.09047 2.7353 0.11627 4.1031 0.05162 2.8903 0.08995 5.781 0.11575 8.6712 0.0258 2.8645 0.03876 5.7417 0.03876 8.632s-0.01296 5.7804-0.03876 8.6707c-0.02582 2.8903-0.06415 5.7804-0.11575 8.6707-0.02582 1.3677-0.06467 2.7483-0.11627 4.1418-0.0516 1.3677-0.07751 2.7358-0.07751 4.1036 0 1.3677 0.67084 2.0515 2.0128 2.0515h10.684c1.3161 0 1.9745-0.6584 1.9745-1.9745 0-2.1935 0.01296-4.3739 0.03876-6.5417 0.0258-2.1935 0.03875-4.3869 0.03875-6.5804 0-0.43871 0.21914-0.65784 0.65784-0.65784h2.0515c0.23226 0 0.41306 0.10309 0.54209 0.30954 1.2129 1.7807 2.3738 3.6 3.4835 5.458 1.1097 1.8323 2.2323 3.6516 3.3677 5.458 0.38712 0.59352 0.76164 1.2126 1.1229 1.8578 0.38711 0.61934 0.78703 1.213 1.1999 1.7808 0.46451 0.59354 1.0193 0.89037 1.6645 0.89037h12.077c0.38712 0 0.90307-0.0518 1.5482-0.15502 0.64516-0.129 0.9679-0.47716 0.9679-1.0449 0-0.36125-0.11656-0.72288-0.34882-1.0842-0.20644-0.36129-0.41263-0.67056-0.61908-0.92862-0.23226-0.30967-0.74821-0.98103-1.5482-2.0133-0.77418-1.0323-1.6777-2.2191-2.7099-3.561-1.0322-1.3419-2.0388-2.6577-3.0194-3.948-0.98066-1.2903-1.7934-2.3875-2.4386-3.2907-0.64515-0.92904-0.96789-1.445-0.96789-1.5482 0-0.15484 0.14194-0.32268 0.42581-0.50332 3.2257-1.8838 5.5616-4.3611 7.0067-7.432 1.4709-3.0969 2.206-6.4775 2.206-10.142 0-4.8513-0.9936-8.6964-2.9807-11.535-1.9613-2.8645-4.6706-4.9159-8.1286-6.1546-3.4579-1.2645-7.3931-1.8965-11.806-1.8965l-16.491-5.17e-4zm-104.13 5.17e-4c-1.3161 0-1.9745 0.67084-1.9745 2.0128h5.17e-4c0 1.3677 0.01295 2.7483 0.038757 4.1418 0.051613 1.3677 0.089947 2.7353 0.11575 4.1031 0.051613 2.8903 0.090464 5.7804 0.11627 8.6707 0.025807 2.8903 0.038757 5.7804 0.038757 8.6707s-0.01295 5.781-0.038757 8.6712c-0.025807 2.8903-0.064658 5.7934-0.11627 8.7095-0.025807 1.3677-0.064141 2.7483-0.11575 4.1418-0.025807 1.3677-0.038757 2.7353-0.038757 4.1031 0 1.3419 0.65789 2.0128 1.974 2.0128h10.722c1.3161 0 1.974-0.65789 1.974-1.974v-8.9808c0.025807-2.9935 0.038757-5.9868 0.038757-8.9802 0-0.4129 0.21914-0.6196 0.65784-0.6196h17.109c1.3419 0 2.0128-0.67084 2.0128-2.0128 0-1.4709-0.01295-2.9417-0.038757-4.4126v-4.4126c0-1.3161-0.65789-1.9745-1.974-1.9745h-17.109c-0.4387 0-0.65784-0.20618-0.65784-0.61908v-7.8196c0-0.41289 0.21914-0.61908 0.65784-0.61908h20.477c1.2387 0 1.8966-0.645 1.974-1.9353 0.051613-0.56773 0.064564-1.1355 0.038757-1.7032 0-0.59353 0.01295-1.1743 0.038757-1.742l0.077514-2.7094c0.025807-0.9032 0.038757-1.7937 0.038757-2.6711 0-1.3677-0.67085-2.0515-2.0128-2.0515h-34.025zm210.96 0c-1.3161 0-1.9745 0.67084-1.9745 2.0128h0.00104c0 1.3677 0.01295 2.7483 0.03875 4.1418 0.05162 1.3677 0.09048 2.7353 0.11628 4.1031 0.05162 2.8903 0.09047 5.7804 0.11627 8.6707 0.0258 2.8903 0.03875 5.7804 0.03875 8.6707s-0.01295 5.781-0.03875 8.6712c-0.02582 2.8903-0.06467 5.7934-0.11627 8.7095-0.02582 1.3677-0.06468 2.7483-0.11628 4.1418-0.0258 1.3677-0.03875 2.7353-0.03875 4.1031 0 1.3419 0.6584 2.0128 1.9745 2.0128h33.793c1.3419 0 2.0128-0.6838 2.0128-2.0515 0-1.3935-0.01296-2.8643-0.03876-4.4126-0.02581-1.5483-0.07709-3.0196-0.15451-4.4131-0.07747-1.2903-0.73587-1.9353-1.9745-1.9353h-20.245c-0.4387 0-0.65784-0.20617-0.65784-0.61907l0.03876-7.9741c0-0.4129 0.20618-0.6196 0.61908-0.6196h16.451c1.3419 0 2.0128-0.67084 2.0128-2.0128v-7.432c0-1.3419-0.67085-2.0128-2.0128-2.0128h-16.451c-0.4129 0-0.61908-0.2067-0.61908-0.6196l-0.03876-7.7028c0-0.41289 0.21914-0.6196 0.65784-0.6196h19.354c1.2645 0 1.9354-0.65789 2.0128-1.974 0.0516-0.64512 0.06455-1.2777 0.03875-1.897-0.0258-0.64512-0.0258-1.2901 0-1.9353l0.07752-2.4773c0.0258-0.8258 0.03875-1.6515 0.03875-2.4773 0-1.3677-0.67084-2.0515-2.0128-2.0515h-32.903zm-143.03 12.232c2.7097 0 4.9419 0.79983 6.6967 2.3998 1.7806 1.5742 3.0964 3.5484 3.948 5.9226 0.8774 2.3742 1.3162 4.7484 1.3162 7.1225 0 1.7032-0.21913 3.4449-0.65783 5.2255-0.43874 1.7807-1.123 3.4451-2.052 4.9934-0.9032 1.5226-2.0771 2.7612-3.5222 3.716-1.4451 0.929-3.1614 1.3937-5.1485 1.3937-2.7096 0-5.0061-0.77398-6.89-2.3223-1.8839-1.5742-3.3163-3.5484-4.2969-5.9226-0.9806-2.3742-1.4707-4.7743-1.4707-7.2 0-2.3483 0.45123-4.6967 1.3544-7.045 0.929-2.3484 2.2842-4.3097 4.0648-5.8838 1.8064-1.6 4.0257-2.3998 6.6579-2.3998zm48.928 0.58032h5.6125c1.9871 0 3.4837 0.74859 4.4901 2.2453 1.0323 1.4968 1.5487 3.1612 1.5487 4.9934s-0.52942 3.406-1.5875 4.7222c-1.058 1.3161-2.5547 1.9745-4.4901 1.9745l-5.5355-5.2e-4v-6.9675c0-2.3225-0.01244-4.6449-0.03824-6.9675z" fill="#003eff" style="paint-order:markers fill stroke"/>
  <path d="m124.26-0.001461c-0.23226 0-0.41306 0.11604-0.54208 0.3483-1.9613 4.0257-3.8449 8.1033-5.6513 12.232-1.8065 4.1033-3.6388 8.1936-5.4968 12.271-2.2451 4.9551-4.5292 9.8969-6.8517 14.826-2.2967 4.9291-4.6191 9.8581-6.9675 14.787-0.10322 0.23225-0.20631 0.47729-0.30954 0.73535-0.10323 0.23225-0.15503 0.49024-0.15503 0.77411 0 0.59357 0.25799 0.96809 0.77411 1.1229 0.54189 0.15483 1.0325 0.23202 1.4712 0.23202l9.9869-0.001033c0.49034 6e-6 0.86435-0.10309 1.1224-0.30954 0.25806-0.20645 0.49066-0.51624 0.6971-0.92913 0.15484-0.30967 0.29678-0.63241 0.42581-0.96789 0.12903-0.36126 0.25802-0.69646 0.38706-1.0061 0.30966-0.77413 0.61894-1.5486 0.92861-2.3228 0.33548-0.77413 0.65822-1.5481 0.9679-2.3223 0.0258-0.051613 0.03875-0.090464 0.03875-0.11627 0-0.051613 0.01296-0.089947 0.03876-0.11575 0.12903-0.20645 0.30983-0.31006 0.54208-0.31006h15.019c0.25806 0 0.45181 0.14194 0.58083 0.42581 0.43872 1.0839 0.82568 2.2065 1.1612 3.3677 0.33549 1.1355 0.74836 2.2321 1.2387 3.2902 0.20644 0.43868 0.43905 0.77439 0.69711 1.0066 0.25808 0.20645 0.64503 0.30954 1.1612 0.30954h12.503c0.43868 0 0.91583-0.077192 1.432-0.23202 0.54192-0.15486 0.81286-0.52938 0.81286-1.1229 0-0.28387-0.05129-0.54185-0.15451-0.77411-0.07742-0.25806-0.18051-0.5031-0.30954-0.73535-2.3483-4.9289-4.6842-9.8447-7.0068-14.748-2.2967-4.9288-4.5803-9.8835-6.8512-14.864-1.8581-4.0775-3.6904-8.1678-5.4968-12.271-1.8064-4.1289-3.69-8.2065-5.6513-12.232-0.10323-0.23225-0.28402-0.3483-0.54208-0.3483zm32.167 0.42736c-0.20645 0-0.31005 0.090142-0.31005 0.27078 0 1.5742 0.03885 3.1485 0.11627 4.7227 0.07742 1.5484 0.12923 3.1098 0.15503 4.6839 0.15483 6.529 0.23202 13.097 0.23202 19.703 0 2.8903-0.02591 5.7675-0.07751 8.632-0.02582 2.8645-0.06416 5.7417-0.11576 8.632-0.02582 1.3419-0.06467 2.7101-0.11627 4.1036-0.0516 1.3677-0.07751 2.7353-0.07751 4.1031s0.65789 2.0515 1.974 2.0515h10.993c1.3161 0 1.9745-0.65789 1.9745-1.974v-6.5422c0-2.9935-0.01296-5.9738-0.03876-8.9415-0.0258-2.9935-0.03876-5.9743-0.03876-8.942 0-0.12903 0.01296-0.29688 0.03876-0.50332 0.05161-0.23225 0.16766-0.3483 0.3483-0.3483 0.12903 0 0.24507 0.051802 0.34829 0.15503 0.10323 0.077414 0.20632 0.1546 0.30954 0.23202 0.46453 0.38713 1.4198 1.1999 2.8649 2.4386 1.4451 1.2129 3.1738 2.6971 5.1867 4.4519 2.0387 1.729 4.2067 3.5737 6.5034 5.535 2.3225 1.9612 4.6061 3.8966 6.8512 5.8063 2.2709 1.8839 4.3354 3.6131 6.1934 5.1872 1.8839 1.5484 3.4064 2.787 4.5676 3.716 1.187 0.9548 1.8326 1.4325 1.9358 1.4325v0.001033c0.12903 0 0.19378-0.064758 0.19378-0.19378 0-1.5742-0.03885-3.1356-0.11627-4.6839-0.05162-1.5742-0.10291-3.148-0.15451-4.7222-0.15483-6.5803-0.23254-13.174-0.23254-19.78 0-2.8903 0.01296-5.768 0.03876-8.6325 0.05162-2.8645 0.10342-5.7417 0.15502-8.632 0.02582-1.3677 0.06416-2.7353 0.11576-4.1031 0.0516-1.3935 0.07751-2.7741 0.07751-4.1418 0-1.3677-0.65789-2.0515-1.974-2.0515h-10.839c-1.3161 0-1.974 0.65789-1.974 1.974v12.58c0.0258 4.1803 0.03824 8.3736 0.03824 12.58 0 0.10323-0.01244 0.27107-0.03824 0.50332-0.02581 0.23225-0.14236 0.3483-0.34882 0.3483-0.10322 0-0.21926-0.038851-0.34829-0.11627-0.10322-0.10322-0.20632-0.19336-0.30954-0.27078-5.5997-4.8517-11.174-9.7424-16.722-14.671-5.5224-4.9291-11.148-9.7292-16.877-14.4-0.18064-0.12903-0.34797-0.19327-0.50281-0.19327zm-154.41 1.6629c-1.3419 0-2.0128 0.6838-2.0128 2.0515h-5.1676e-4c0 1.3677 0.025385 2.7483 0.076997 4.1418 0.051614 1.3677 0.090465 2.7353 0.11627 4.1031 0.051614 2.8903 0.090465 5.7804 0.11627 8.6707 0.025806 2.8645 0.038757 5.7422 0.038757 8.6325 0 2.8903-0.012951 5.7804-0.038757 8.6707-0.025808 2.8903-0.064659 5.7804-0.11627 8.6707-0.025808 1.3677-0.064659 2.7483-0.11627 4.1418-0.051612 1.3677-0.076997 2.7353-0.076997 4.1031s0.67085 2.0521 2.0128 2.0521h19.858c2.6838 0 5.316-0.27145 7.8966-0.81338 2.5806-0.54193 4.903-1.4319 6.9675-2.6706 2.0903-1.2645 3.7548-2.9549 4.9934-5.071 1.2387-2.1161 1.8583-4.7483 1.8583-7.8966 0-2.9935-0.78746-5.4578-2.3616-7.3933-1.5483-1.9613-3.548-3.6387-5.9996-5.0322-0.10323-0.051606-0.21927-0.11636-0.3483-0.19378-0.12903-0.10323-0.19378-0.23222-0.19378-0.38705 0-0.12903 0.051801-0.23212 0.15503-0.30954 0.10322-0.10322 0.20631-0.19336 0.30954-0.27078 1.8323-1.4452 3.2387-3.0972 4.2193-4.9552 0.9806-1.8839 1.4707-4.0125 1.4707-6.3866 0-2.7613-0.67085-5.0453-2.0128-6.8517-1.3161-1.8064-3.0448-3.2129-5.1867-4.2193-2.1161-1.0322-4.4002-1.7549-6.8517-2.1678-2.4515-0.41289-4.7869-0.61908-7.0062-0.61908h-17.767zm50.67 5.167e-4c-1.3419 0-2.0133 0.6838-2.0133 2.0515 0 1.3677 0.025901 2.7483 0.077514 4.1418 0.051614 1.3677 0.090465 2.7353 0.11627 4.1031 0.051614 2.8903 0.090465 5.7804 0.11627 8.6707 0.025807 2.8645 0.03824 5.7422 0.03824 8.6325s-0.012433 5.7804-0.03824 8.6707c-0.025806 2.8903-0.064657 5.7804-0.11627 8.6707-0.025806 1.3677-0.064657 2.7483-0.11627 4.1418-0.051613 1.3677-0.077514 2.7353-0.077514 4.1031 0 1.3677 0.67136 2.0515 2.0133 2.0515h10.684c1.3161 0 1.974-0.65789 1.974-1.974 0-2.1935 0.012951-4.3739 0.038757-6.5417 0.025807-2.1935 0.038757-4.3869 0.038757-6.5804 0-0.4387 0.21914-0.65835 0.65784-0.65835h2.0515c0.23225 0 0.41305 0.10361 0.54208 0.31006 1.2129 1.7807 2.3743 3.5995 3.484 5.4575 1.1097 1.8323 2.2317 3.6516 3.3672 5.458 0.38712 0.59352 0.76164 1.2131 1.1229 1.8583 0.38711 0.61933 0.78702 1.213 1.1999 1.7808 0.46452 0.59354 1.0193 0.88986 1.6645 0.88986h12.077c0.38712 0 0.90306-0.051285 1.5482-0.15451 0.64515-0.129 0.96789-0.47767 0.96789-1.0454 0-0.36131-0.11604-0.72236-0.3483-1.0836-0.20645-0.36129-0.41315-0.67107-0.6196-0.92913-0.23227-0.30967-0.74821-0.98051-1.5482-2.0128-0.77413-1.0322-1.6776-2.2191-2.7099-3.561s-2.0383-2.6583-3.0189-3.9486c-0.98065-1.2903-1.794-2.387-2.4391-3.2902-0.64515-0.92904-0.96737-1.445-0.96737-1.5482 0-0.15484 0.14194-0.32268 0.42581-0.50332 3.2257-1.8838 5.5611-4.3611 7.0062-7.432 1.4709-3.0969 2.206-6.478 2.206-10.142 0-4.8513-0.99309-8.6959-2.9802-11.535-1.9613-2.8645-4.6711-4.9165-8.1291-6.1551-3.4579-1.2645-7.3931-1.8965-11.806-1.8965h-16.49zm164.51 0.0015503c-1.3161 0-1.974 0.6838-1.974 2.0515 0 1.3419 0.02539 2.6836 0.07699 4.0256 0.05162 1.3161 0.09047 2.6449 0.11627 3.9868 0.05162 2.9161 0.09047 5.8451 0.11627 8.787 0.0258 2.9161 0.03876 5.8322 0.03876 8.7482 0 2.9419-0.01296 5.8839-0.03876 8.8257-0.02582 2.9161-0.06467 5.8322-0.11627 8.7482-0.02582 1.3419-0.06467 2.6836-0.11627 4.0256-0.0516 1.3161-0.07699 2.6454-0.07699 3.9873 0 1.3677 0.65788 2.0515 1.974 2.0515l19.046-5.17e-4c5.29 0 10.064-1.0584 14.322-3.1745 4.2835-2.1161 7.6764-5.1482 10.18-9.0965 2.5032-3.9738 3.7548-8.6961 3.7548-14.167 0-6.374-1.3158-11.69-3.948-15.948-2.6325-4.2838-6.2844-7.4967-10.955-9.6386-4.6451-2.1419-10.013-3.2127-16.103-3.2127h-16.296zm12.774 12.657h6.9287c3.1741 0 5.6774 0.6838 7.5096 2.0515 1.858 1.3419 3.1738 3.1742 3.948 5.4968 0.7742 2.2967 1.1617 4.8647 1.1617 7.7033 0 5.0321-1.3806 8.7093-4.1418 11.032-2.7351 2.3225-6.5286 3.484-11.38 3.484h-4.0261v-5.17e-4c0.07741-9.9353 0.07741-19.858 0-29.767zm-215.22 0.15399h5.69c1.2129 0 2.4002 0.29684 3.5615 0.89038 1.1613 0.59353 1.742 1.613 1.742 3.0582 0 1.3935-0.50357 2.5415-1.51 3.4447-0.9806 0.8774-2.1545 1.3162-3.5222 1.3162h-5.9226v-4.3356c0-1.4709-0.01295-2.9287-0.038757-4.3739zm50.67 0h5.6125c1.9871 0 3.4837 0.74859 4.4901 2.2453 1.0323 1.4968 1.5487 3.1612 1.5487 4.9934s-0.5289 3.4065-1.587 4.7227c-1.058 1.3161-2.5552 1.974-4.4906 1.974h-5.535v-6.9675c0-2.3225-0.01295-4.6455-0.038757-6.968zm58.257 12.582c0.59353 1.729 1.1867 3.4707 1.7802 5.2255 0.61933 1.7548 1.226 3.5099 1.8195 5.2647h-7.7033c0.6968-1.7548 1.3806-3.5099 2.0515-5.2647 0.6968-1.7548 1.3811-3.4965 2.0521-5.2255zm-108.89 8.9022h5.6125c1.0065 0 2.142 0.051801 3.4065 0.15503 1.2903 0.1032 2.4 0.4384 3.329 1.0061 0.9548 0.56773 1.4325 1.5484 1.4325 2.9419 0 1.2903-0.43879 2.258-1.3162 2.9032-0.8774 0.61935-1.9223 1.0322-3.1352 1.2387-1.1871 0.20645-2.2714 0.31006-3.252 0.31006h-6.1159v-4.2969c0.025807-1.4193 0.038757-2.8388 0.038757-4.2581zm185.84 27.581c-9.5479 0-16.89 2.6452-22.025 7.9354-5.1354 5.2907-7.7028 12.671-7.7028 22.142 0 4.3353 0.77398 8.142 2.3223 11.419 1.5484 3.2773 3.6776 6.0256 6.3872 8.2449 2.7355 2.1935 5.8836 3.845 9.4448 4.9547 3.5611 1.1097 7.3678 1.6645 11.419 1.6645 1.3419 0 2.9417-0.14195 4.7997-0.42581 1.858-0.25808 3.7546-0.64504 5.69-1.1612 1.9613-0.51613 3.7806-1.1357 5.458-1.8583 1.6774-0.7484 3.0197-1.5871 4.0261-2.5161 0.41289-0.38706 0.61908-0.87716 0.61908-1.4707l-5.2e-4 -0.00103c0-1.1871-0.02591-2.361-0.07751-3.5222l-0.077-3.5615c-0.07742-4.7223-0.11627-9.4574-0.11627-14.206 0-1.3161-0.65789-1.974-1.974-1.974h-18.89c-1.3161 0-1.974 0.65789-1.974 1.974v5.458c0 1.3161 0.65788 1.974 1.974 1.974h8.0129c0.4387 0 0.65784 0.2067 0.65784 0.6196l0.03875 5.148c0 0.41287-0.39991 0.76154-1.1999 1.0454-0.7742 0.28387-1.716 0.51595-2.8256 0.6966-1.0839 0.15483-2.1034 0.27087-3.0582 0.34829-0.95478 0.07741-1.5998 0.11627-1.9353 0.11627-4.4643 0-7.8706-1.2645-10.219-3.7935-2.3225-2.5548-3.484-6.0128-3.484-10.374 0-10.348 5.1872-15.522 15.561-15.522 3.8451 0 7.5739 0.63204 11.187 1.8965 0.46447 0.15483 0.82558 0.23254 1.0836 0.23254 0.51615 0 0.87771-0.14194 1.0842-0.42581 0.23225-0.30971 0.42548-0.67127 0.58032-1.0842 0.07742-0.23227 0.25821-0.813 0.54208-1.742 0.30966-0.929 0.63241-1.961 0.96789-3.0964 0.36129-1.1355 0.67056-2.142 0.92862-3.0194 0.25806-0.90324 0.38757-1.4192 0.38757-1.5482 0-0.43868-0.11656-0.77439-0.34882-1.0066-0.23226-0.23225-0.52909-0.43844-0.89037-0.61908-1.3677-0.67097-3.0446-1.2133-5.0317-1.6262-1.9613-0.4387-3.9614-0.76093-6.0001-0.96737-2.0129-0.23225-3.7934-0.3483-5.3417-0.3483zm-112.99 5.16e-4c-3.8451 0-7.3931 0.76103-10.645 2.2836-3.2516 1.5225-6.0905 3.5999-8.5162 6.2321-2.3999 2.6322-4.2706 5.6519-5.6125 9.0583-1.3161 3.3806-1.9745 6.9287-1.9745 10.645v5.17e-4c0 3.7934 0.65789 7.3804 1.974 10.761 1.3419 3.3806 3.2131 6.3868 5.613 9.019 2.4258 2.6064 5.2642 4.6584 8.5157 6.1551 3.2773 1.4709 6.8643 2.206 10.761 2.206 3.8193 0 7.3679-0.73511 10.645-2.206 3.3031-1.4967 6.1804-3.5358 8.632-6.1164 2.4515-2.6064 4.3611-5.5867 5.7288-8.9415 1.3935-3.3808 2.0903-6.9421 2.0903-10.684 0-3.7676-0.69676-7.3546-2.0903-10.761-1.3677-3.4064-3.2902-6.4385-5.7676-9.0965-2.4516-2.6581-5.3288-4.7489-8.632-6.2714-3.3029-1.5225-6.8772-2.2836-10.722-2.2836zm36.386 0.54156c-1.3419 0-2.0128 0.6838-2.0128 2.0515 0 1.3677 0.02591 2.7483 0.07751 4.1418 0.05162 1.3677 0.09047 2.7353 0.11627 4.1031 0.05162 2.8903 0.08996 5.7804 0.11576 8.6707 0.0258 2.8645 0.03876 5.7422 0.03876 8.6325s-0.01296 5.7804-0.03876 8.6707c-0.02582 2.8903-0.06416 5.7804-0.11576 8.6707-0.02582 1.3677-0.06467 2.7483-0.11627 4.1418-0.0516 1.3677-0.07751 2.7358-0.07751 4.1036 0 1.3677 0.67085 2.0515 2.0128 2.0515h10.684c1.3161 0 1.9745-0.6584 1.9745-1.9745 0-2.1935 0.01296-4.3739 0.03876-6.5417 0.0258-2.1935 0.03824-4.3869 0.03824-6.5804 0-0.4387 0.21965-0.65835 0.65835-0.65835h2.0515c0.23225 0 0.41305 0.1036 0.54208 0.31006 1.2129 1.7807 2.3738 3.6 3.4835 5.458 1.1097 1.8323 2.2322 3.6516 3.3677 5.458 0.38712 0.59352 0.76164 1.2126 1.1229 1.8578 0.3871 0.61934 0.78702 1.213 1.1999 1.7808 0.46452 0.59354 1.0193 0.89038 1.6645 0.89038h12.077c0.38712 0 0.90358-0.0518 1.5487-0.15503 0.64515-0.129 0.96789-0.47715 0.96789-1.0449 0-0.36125-0.11655-0.72288-0.34881-1.0842-0.20645-0.36128-0.41263-0.67055-0.61908-0.92861-0.23227-0.30967-0.74873-0.98103-1.5487-2.0133-0.77419-1.0323-1.6772-2.2191-2.7094-3.561s-2.0388-2.6582-3.0194-3.9486c-0.98065-1.2903-1.7934-2.387-2.4386-3.2902-0.64515-0.92904-0.96789-1.445-0.96789-1.5482 0-0.15484 0.14195-0.32268 0.42581-0.50333 3.2257-1.8838 5.5611-4.3611 7.0062-7.432 1.4709-3.0969 2.2066-6.4775 2.2066-10.142 0-4.8513-0.9936-8.6964-2.9807-11.535-1.9613-2.8645-4.6706-4.9159-8.1286-6.1546-3.4579-1.2645-7.3931-1.897-11.806-1.897h-16.491zm-104.13 5.17e-4c-1.3161 0-1.9745 0.67085-1.9745 2.0128h5.17e-4c0 1.3677 0.01295 2.7483 0.038757 4.1418 0.051613 1.3677 0.089947 2.7353 0.11575 4.1031 0.051613 2.8903 0.090464 5.7804 0.11627 8.6707 0.025807 2.8903 0.038757 5.7804 0.038757 8.6707s-0.01295 5.7804-0.038757 8.6707c-0.025807 2.8903-0.064658 5.7939-0.11627 8.71-0.025807 1.3677-0.064141 2.7483-0.11575 4.1418-0.025807 1.3677-0.038757 2.7353-0.038757 4.1031 0 1.3419 0.65789 2.0128 1.974 2.0128h10.722c1.3161 0 1.974-0.65789 1.974-1.974v-8.9808c0.025807-2.9935 0.038757-5.9868 0.038757-8.9802 0-0.41289 0.21914-0.6196 0.65784-0.6196h17.109c1.3419 0 2.0128-0.67084 2.0128-2.0128 0-1.4709-0.01295-2.9417-0.038757-4.4126v-4.4131c0-1.3161-0.65789-1.974-1.974-1.974h-17.109c-0.4387 0-0.65784-0.20618-0.65784-0.61908v-7.8196c0-0.41289 0.21914-0.61908 0.65784-0.61908h20.477c1.2387 0 1.8966-0.645 1.974-1.9353 0.051613-0.56773 0.064564-1.1355 0.038757-1.7032 0-0.59353 0.01295-1.1743 0.038757-1.742l0.077514-2.7099c0.025807-0.9032 0.038757-1.7932 0.038757-2.6706 0-1.3677-0.67085-2.0515-2.0128-2.0515h-34.025zm210.96 0c-1.3161 0-1.9745 0.67085-1.9745 2.0128l0.00103-5.17e-4c0 1.3677 0.01296 2.7488 0.03876 4.1423 0.05162 1.3677 0.09047 2.7353 0.11627 4.1031 0.05162 2.8903 0.09047 5.7804 0.11627 8.6707 0.0258 2.8903 0.03876 5.7804 0.03876 8.6707s-0.01296 5.7804-0.03876 8.6707c-0.02582 2.8903-0.06467 5.7934-0.11627 8.7095-0.02582 1.3677-0.06467 2.7488-0.11627 4.1424-0.0258 1.3677-0.03876 2.7353-0.03876 4.1031 0 1.3419 0.65841 2.0128 1.9745 2.0128h33.793c1.3419 0 2.0128-0.6838 2.0128-2.0515 0-1.3935-0.01296-2.8643-0.03876-4.4126-0.0258-1.5483-0.0776-3.0196-0.15502-4.4131-0.07747-1.2903-0.73536-1.9353-1.974-1.9353h-20.245c-0.4387 0-0.65783-0.20669-0.65783-0.61959l0.03875-7.9736c0-0.41289 0.20619-0.6196 0.61908-0.6196h16.451c1.3419 0 2.0128-0.67084 2.0128-2.0128v-7.432c0-1.3419-0.67084-2.0128-2.0128-2.0128h-16.451c-0.41289 0-0.61908-0.2067-0.61908-0.6196l-0.03875-7.7033c0-0.41289 0.21913-0.61908 0.65783-0.61908h19.354c1.2645 0 1.9354-0.65789 2.0128-1.974 0.0516-0.64512 0.06456-1.2777 0.03876-1.897-0.0258-0.64512-0.0258-1.2901 0-1.9353l0.07751-2.4773c0.0258-0.8258 0.03876-1.6515 0.03876-2.4773 0-1.3677-0.67136-2.0515-2.0133-2.0515h-32.903zm-143.03 12.232c2.7097 0 4.9419 0.80035 6.6967 2.4003 1.7806 1.5742 3.0964 3.5484 3.948 5.9226 0.8774 2.3742 1.3162 4.7484 1.3162 7.1225 0 1.7032-0.21965 3.4449-0.65835 5.2255-0.43873 1.7807-1.1225 3.4451-2.0515 4.9934-0.9032 1.5226-2.0771 2.7612-3.5222 3.716-1.4451 0.929-3.1614 1.3937-5.1485 1.3937-2.7096 0-5.0061-0.7745-6.89-2.3228-1.8839-1.5742-3.3163-3.5479-4.2969-5.9221-0.9806-2.3742-1.4707-4.7743-1.4707-7.2 0-2.3483 0.45123-4.6967 1.3544-7.045 0.929-2.3484 2.2842-4.3097 4.0648-5.8838 1.8064-1.6 4.0257-2.4003 6.6579-2.4003zm48.928 0.58084h5.6125c1.9871 0 3.4837 0.74807 4.4901 2.2448 1.0323 1.4968 1.5487 3.1612 1.5487 4.9934s-0.52942 3.4065-1.5875 4.7227c-1.058 1.3161-2.5547 1.974-4.4901 1.974h-5.5355v-6.9675c0-2.3225-0.01244-4.6449-0.03824-6.9675z" fill="#ff003f" style="paint-order:markers fill stroke"/>
  <path d="m129.83 5.5708c-0.23226 0-0.41305 0.11604-0.54208 0.3483-1.9613 4.0257-3.8454 8.1028-5.6518 12.232-1.8065 4.1033-3.6382 8.1942-5.4962 12.271-2.2451 4.9551-4.5292 9.8969-6.8517 14.826-2.2967 4.9291-4.6191 9.8581-6.9675 14.787-0.10322 0.23225-0.20683 0.47729-0.31005 0.73535-0.10322 0.23225-0.15452 0.49024-0.15452 0.77411 0 0.59357 0.25799 0.96757 0.77411 1.1224 0.5419 0.15483 1.032 0.23254 1.4707 0.23254l9.9874-0.001034c0.49034 7e-6 0.86435-0.1036 1.1224-0.31006 0.25806-0.20645 0.49014-0.51572 0.69659-0.92862 0.15483-0.30967 0.29677-0.63241 0.42581-0.96789 0.12902-0.36126 0.25802-0.69698 0.38705-1.0066 0.30967-0.77413 0.61947-1.5481 0.92913-2.3223 0.33548-0.77413 0.65822-1.5481 0.96789-2.3223 0.0258-0.051614 0.03876-0.090464 0.03876-0.11627 0-0.051613 0.01296-0.090464 0.03876-0.11627 0.12903-0.20645 0.30931-0.30954 0.54156-0.30954h15.019c0.25806 0 0.45181 0.14194 0.58083 0.42581 0.43873 1.0839 0.82569 2.2065 1.1612 3.3677 0.33549 1.1355 0.74836 2.2321 1.2387 3.2902 0.20644 0.43868 0.43853 0.7744 0.69659 1.0066 0.25808 0.20645 0.64555 0.30954 1.1617 0.30954h12.503c0.43868 0 0.91583-0.077191 1.432-0.23202 0.54192-0.15486 0.81286-0.52938 0.81286-1.1229 0-0.28387-0.05129-0.54185-0.15451-0.77411-0.07742-0.25806-0.18103-0.5031-0.31006-0.73535-2.3483-4.9289-4.6837-9.8452-7.0062-14.748-2.2967-4.9288-4.5803-9.883-6.8512-14.864-1.8581-4.0775-3.6904-8.1684-5.4968-12.271-1.8064-4.1289-3.6905-8.206-5.6518-12.232-0.10322-0.23225-0.2835-0.3483-0.54156-0.3483zm32.167 0.42736c-0.20645 0-0.30954 0.090142-0.30954 0.27078 0 1.5742 0.03885 3.1485 0.11627 4.7227 0.07742 1.5484 0.12871 3.1093 0.15451 4.6834 0.15483 6.529 0.23254 13.097 0.23254 19.703 0 2.8903-0.02591 5.768-0.07751 8.6325-0.02582 2.8645-0.06467 5.7417-0.11627 8.632-0.02582 1.3419-0.06416 2.7095-0.11576 4.1031-0.0516 1.3677-0.07751 2.7359-0.07751 4.1036 0 1.3677 0.65789 2.0515 1.974 2.0515h10.993c1.3161 0 1.974-0.6584 1.974-1.9745v-6.5417c0-2.9935-0.01244-5.9743-0.03824-8.942-0.0258-2.9935-0.03876-5.9738-0.03876-8.9415 0-0.12903 0.01296-0.29688 0.03876-0.50332 0.05161-0.23225 0.16766-0.3483 0.3483-0.3483 0.12903 0 0.24507 0.051801 0.34829 0.15503 0.10323 0.077413 0.20631 0.1546 0.30954 0.23202 0.46453 0.38713 1.4193 1.1999 2.8644 2.4386 1.4451 1.2129 3.1744 2.6966 5.1872 4.4514 2.0387 1.729 4.2062 3.5743 6.5029 5.5355 2.3225 1.9612 4.6066 3.8966 6.8517 5.8063 2.2709 1.8839 4.3354 3.6131 6.1934 5.1872 1.8839 1.5484 3.4064 2.787 4.5676 3.716 1.187 0.9548 1.832 1.4319 1.9353 1.4319l5.2e-4 0.001033c0.12903 0 0.19378-0.064241 0.19378-0.19327 0-1.5742-0.03885-3.1356-0.11627-4.6839-0.05162-1.5742-0.10343-3.1485-0.15503-4.7227-0.15483-6.5803-0.23202-13.174-0.23202-19.78 0-2.8903 0.01296-5.7675 0.03876-8.632 0.05162-2.8645 0.10291-5.7417 0.15451-8.632 0.02582-1.3677 0.06467-2.7353 0.11627-4.1031 0.0516-1.3935 0.07751-2.7746 0.07751-4.1423 0-1.3677-0.65789-2.0515-1.974-2.0515h-10.839c-1.3161 0-1.9745 0.65841-1.9745 1.9745v12.58c0.0258 4.1803 0.03875 8.3736 0.03875 12.58 0 0.10323-0.01295 0.27055-0.03875 0.50281-0.02581 0.23225-0.14185 0.34881-0.3483 0.34881-0.10322 0-0.21927-0.038851-0.34829-0.11627-0.10323-0.10322-0.20632-0.19336-0.30954-0.27078-5.5997-4.8517-11.174-9.7424-16.722-14.671-5.5224-4.9291-11.148-9.7292-16.877-14.4-0.18065-0.12903-0.34849-0.19327-0.50332-0.19327zm-154.41 1.6629c-1.3419 0-2.0128 0.6838-2.0128 2.0515h-0.0010335c0 1.3677 0.025902 2.7483 0.077514 4.1418 0.051614 1.3677 0.090465 2.7353 0.11627 4.1031 0.051614 2.8903 0.090465 5.7804 0.11627 8.6707 0.025806 2.8645 0.038757 5.7417 0.038757 8.632s-0.012951 5.781-0.038757 8.6712c-0.025808 2.8903-0.064659 5.7804-0.11627 8.6707-0.025808 1.3677-0.064659 2.7483-0.11627 4.1418-0.051612 1.3677-0.077514 2.7353-0.077514 4.1031 0 1.3677 0.67136 2.0515 2.0133 2.0515h19.858c2.6838 0 5.316-0.27094 7.8966-0.81286 2.5806-0.54193 4.903-1.4319 6.9675-2.6706 2.0903-1.2645 3.7548-2.9549 4.9934-5.071 1.2387-2.1161 1.8578-4.7483 1.8578-7.8966 0-2.9935-0.78694-5.4578-2.3611-7.3933-1.5483-1.9613-3.548-3.6387-5.9996-5.0322-0.10323-0.051607-0.21979-0.11636-0.34881-0.19378-0.12903-0.10323-0.19327-0.23222-0.19327-0.38705 0-0.12903 0.051284-0.23212 0.15451-0.30954 0.10322-0.10322 0.20683-0.19388 0.31006-0.2713 1.8323-1.4452 3.2387-3.0967 4.2193-4.9547 0.9806-1.8839 1.4707-4.0125 1.4707-6.3866 0-2.7613-0.67084-5.0453-2.0128-6.8517-1.3161-1.8064-3.0454-3.2129-5.1872-4.2193-2.1161-1.0322-4.3996-1.7549-6.8512-2.1678-2.4515-0.41289-4.7869-0.61908-7.0062-0.61908h-17.767zm50.669 0c-1.3419 0-2.0128 0.68432-2.0128 2.0521 0 1.3677 0.025901 2.7483 0.077514 4.1418 0.051613 1.3677 0.090464 2.7353 0.11627 4.1031 0.051613 2.8903 0.089947 5.7804 0.11575 8.6707 0.025807 2.8645 0.038757 5.7417 0.038757 8.632 0 2.8903-0.01295 5.781-0.038757 8.6712s-0.064141 5.7804-0.11575 8.6707c-0.025807 1.3677-0.064658 2.7483-0.11627 4.1418-0.051613 1.3677-0.077514 2.7353-0.077514 4.1031 0 1.3677 0.67085 2.0515 2.0128 2.0515h10.684c1.3161 0 1.9745-0.65789 1.9745-1.974 0-2.1935 0.01295-4.3739 0.038757-6.5417 0.025806-2.1935 0.03824-4.3874 0.03824-6.5809 0-0.4387 0.21965-0.65784 0.65835-0.65784h2.0515c0.23226 0 0.41305 0.10309 0.54208 0.30954 1.2129 1.7807 2.3738 3.6 3.4835 5.458 1.1097 1.8323 2.2323 3.6516 3.3677 5.458 0.38711 0.59352 0.76163 1.2131 1.1229 1.8583 0.38711 0.61933 0.78702 1.2125 1.1999 1.7802 0.46452 0.59354 1.0193 0.89038 1.6645 0.89038h12.077c0.38712 0 0.90358-0.051284 1.5487-0.15451 0.64515-0.129 0.96789-0.47767 0.96789-1.0454 0-0.36132-0.11656-0.72236-0.34881-1.0836-0.20645-0.36129-0.41263-0.67107-0.61908-0.92913-0.23227-0.30967-0.74873-0.98051-1.5487-2.0128-0.77413-1.0322-1.6771-2.2196-2.7094-3.5615-1.0322-1.3419-2.0388-2.6577-3.0194-3.948-0.98065-1.2903-1.7934-2.387-2.4386-3.2902-0.64515-0.92904-0.96789-1.4455-0.96789-1.5487 0-0.15484 0.14194-0.32268 0.42581-0.50332 3.2257-1.8838 5.5616-4.3611 7.0067-7.432 1.4709-3.0969 2.206-6.4775 2.206-10.142 0-4.8513-0.9936-8.6964-2.9807-11.535-1.9613-2.8645-4.6706-4.9159-8.1286-6.1546-3.4579-1.2645-7.3931-1.8965-11.806-1.8965l-16.491-5.168e-4zm164.51 0.0015503c-1.3161 0-1.9745 0.68432-1.9745 2.0521 0 1.3419 0.02591 2.6836 0.07751 4.0256 0.05162 1.3161 0.09047 2.6449 0.11627 3.9868 0.05162 2.9161 0.09047 5.8451 0.11627 8.787 0.0258 2.9161 0.03876 5.8322 0.03876 8.7482 0 2.9419-0.01296 5.8839-0.03876 8.8257-0.02582 2.9161-0.06467 5.8322-0.11627 8.7482-0.02582 1.3419-0.06467 2.6836-0.11627 4.0256-0.0516 1.3161-0.07751 2.6449-0.07751 3.9868 0 1.3677 0.6584 2.0515 1.9745 2.0515l19.045-5.17e-4c5.29 0 10.064-1.0579 14.322-3.1739 4.2835-2.1161 7.677-5.1482 10.18-9.0965 2.5032-3.9738 3.7548-8.6961 3.7548-14.167 0-6.374-1.3158-11.69-3.948-15.948-2.6325-4.2838-6.2844-7.4962-10.955-9.6381-4.6451-2.1419-10.013-3.2132-16.103-3.2132h-16.296zm12.773 12.658h6.9292c3.1741 0 5.6774 0.6838 7.5096 2.0515 1.858 1.3419 3.1738 3.1742 3.948 5.4968 0.7742 2.2967 1.1612 4.8647 1.1612 7.7033 0 5.0321-1.3806 8.7093-4.1418 11.032-2.7351 2.3225-6.5286 3.484-11.38 3.484h-4.0256l-5.2e-4 -5.16e-4c0.07742-9.9353 0.07742-19.858 0-29.767zm-215.22 0.15399h5.69c1.2129 0 2.4002 0.29684 3.5615 0.89038 1.1613 0.59353 1.7415 1.6125 1.7415 3.0577 0 1.3935-0.50299 2.542-1.5095 3.4452-0.9806 0.8774-2.155 1.3162-3.5228 1.3162h-5.9221v-4.3356c0-1.4709-0.01295-2.9287-0.038757-4.3739zm50.67 0h5.6125c1.9871 0 3.4837 0.74859 4.4901 2.2453 1.0323 1.4968 1.5488 3.1612 1.5487 4.9934s-0.52949 3.4065-1.5875 4.7227c-1.058 1.3161-2.5547 1.974-4.4901 1.974h-5.5355v-6.968c0-2.3225-0.012434-4.6449-0.03824-6.9675zm58.257 12.582c0.59353 1.729 1.1872 3.4707 1.7808 5.2255 0.61933 1.7548 1.226 3.5094 1.8195 5.2642h-7.7033c0.6968-1.7548 1.3806-3.5094 2.0515-5.2642 0.6968-1.7548 1.3806-3.4965 2.0515-5.2255zm-108.89 8.9022h5.6125c1.0065 0 2.142 0.051285 3.4065 0.15451 1.2903 0.1032 2.4 0.43892 3.329 1.0066 0.9548 0.56773 1.4325 1.5484 1.4325 2.9419 0 1.2903-0.43879 2.258-1.3162 2.9032-0.8774 0.61935-1.9228 1.0322-3.1357 1.2387-1.1871 0.20645-2.2709 0.30954-3.2515 0.30954h-6.1159v-4.2963c0.025807-1.4193 0.038757-2.8388 0.038757-4.2581zm185.84 27.58c-9.5479 0-16.889 2.6452-22.025 7.9354-5.1354 5.2907-7.7033 12.671-7.7033 22.142-7e-5 4.3353 0.77443 8.1415 2.3228 11.419s3.677 6.0256 6.3866 8.2449c2.7355 2.1935 5.8841 3.8455 9.4453 4.9552 3.5611 1.1097 7.3673 1.6645 11.419 1.6645 1.3419 0 2.9422-0.14194 4.8002-0.42581 1.858-0.25808 3.7546-0.64555 5.69-1.1617 1.9613-0.51614 3.7806-1.1352 5.458-1.8578 1.6774-0.7484 3.0192-1.5871 4.0256-2.5161 0.4129-0.38706 0.6196-0.87716 0.6196-1.4707l-5.2e-4 -0.00103c0-1.1871-0.02591-2.3615-0.07751-3.5228l-0.07752-3.561c-0.07741-4.7224-0.11575-9.458-0.11575-14.206 0-1.3161-0.65841-1.974-1.9745-1.974h-18.89c-1.3161 0-1.9745 0.65789-1.9745 1.974v5.458c0 1.3161 0.6584 1.9745 1.9745 1.9745h8.0124c0.4387 0 0.65835 0.20619 0.65835 0.61908l0.03875 5.1485c0 0.41286-0.39991 0.76102-1.1999 1.0449-0.7742 0.28386-1.7165 0.51646-2.8262 0.6971-1.0839 0.15484-2.1029 0.27088-3.0577 0.3483-0.95479 0.07742-1.6003 0.11627-1.9358 0.11627-4.4643 0-7.8706-1.2645-10.219-3.7935-2.3225-2.5548-3.4835-6.0128-3.4835-10.374 0-10.348 5.1867-15.522 15.561-15.522 3.8451 0 7.5745 0.63256 11.187 1.897 0.46447 0.15483 0.82558 0.23202 1.0836 0.23202 0.51609 0 0.8772-0.14194 1.0836-0.42581 0.23225-0.30971 0.426-0.67075 0.58084-1.0836 0.07742-0.23227 0.25821-0.813 0.54208-1.742 0.30967-0.929 0.6319-1.9615 0.96737-3.0969 0.36129-1.1355 0.67108-2.1415 0.92914-3.0189 0.25806-0.90324 0.38705-1.4197 0.38705-1.5487 0-0.43868-0.11604-0.77388-0.3483-1.0061-0.23225-0.23225-0.52909-0.43896-0.89037-0.6196-1.3677-0.67097-3.0451-1.2128-5.0322-1.6257-1.9613-0.4387-3.9614-0.76144-6.0001-0.96789-2.0129-0.23225-3.7934-0.3483-5.3417-0.3483zm-112.99 0.001034c-3.8451 0-7.3937 0.76103-10.645 2.2836-3.2516 1.5225-6.0899 3.5999-8.5157 6.2321-2.3999 2.6322-4.2711 5.6514-5.613 9.0578-1.3161 3.3806-1.974 6.9292-1.974 10.645l-5.16e-4 5.17e-4c0 3.7934 0.6584 7.3804 1.9745 10.761 1.3419 3.3806 3.2126 6.3868 5.6125 9.019 2.4258 2.6064 5.2647 4.6579 8.5162 6.1546 3.2773 1.4709 6.8643 2.2066 10.761 2.2066 3.8193 0 7.3674-0.73563 10.645-2.2066 3.3031-1.4967 6.1809-3.5352 8.6325-6.1158 2.4515-2.6064 4.3611-5.5872 5.7288-8.942 1.3935-3.3808 2.0903-6.9421 2.0903-10.684 0-3.7676-0.69676-7.3546-2.0903-10.761-1.3677-3.4064-3.2902-6.4385-5.7676-9.0965-2.4515-2.6581-5.3293-4.7483-8.6325-6.2709-3.3029-1.5225-6.8767-2.2836-10.722-2.2836zm-67.741 0.54156c-1.3161 0-1.974 0.67085-1.974 2.0128 0 1.3677 0.01295 2.7483 0.038757 4.1418 0.051613 1.3677 0.090464 2.7359 0.11627 4.1036 0.051613 2.8903 0.090464 5.7804 0.11627 8.6707 0.025806 2.8903 0.038757 5.7804 0.038757 8.6707 0 2.8903-0.012951 5.7804-0.038757 8.6707-0.025807 2.8903-0.064658 5.7934-0.11627 8.7095-0.025807 1.3677-0.064658 2.7483-0.11627 4.1418-0.025807 1.3677-0.038757 2.7359-0.038757 4.1036 0 1.3419 0.6584 2.0128 1.9745 2.0128h10.722c1.3161 0 1.9745-0.6584 1.9745-1.9745v-8.9802c0.025807-2.9935 0.03824-5.9873 0.03824-8.9808 0-0.4129 0.21965-0.61908 0.65835-0.61908h17.109c1.3419 0 2.0128-0.67085 2.0128-2.0128 0-1.4709-0.01295-2.9422-0.038757-4.4131v-4.4126c0-1.3161-0.65789-1.974-1.974-1.974h-17.109c-0.4387 0-0.65835-0.2067-0.65835-0.6196v-7.8191c0-0.41289 0.21965-0.6196 0.65835-0.6196h20.477c1.2387 0 1.8966-0.645 1.974-1.9353 0.051613-0.56773 0.064563-1.1355 0.038757-1.7032 0-0.59353 0.01295-1.1743 0.038757-1.742l0.077514-2.7094c0.025806-0.9032 0.038757-1.7937 0.038757-2.6711 0-1.3677-0.67136-2.0515-2.0133-2.0515h-34.025zm104.13 0c-1.3419 0-2.0128 0.6838-2.0128 2.0515s0.0254 2.7483 0.077 4.1418c0.05161 1.3677 0.09047 2.7353 0.11627 4.1031 0.05162 2.8903 0.09047 5.7804 0.11627 8.6707 0.0258 2.8645 0.03876 5.7422 0.03876 8.6325 0 2.8903-0.01296 5.7804-0.03876 8.6707-0.02582 2.8903-0.06467 5.7804-0.11627 8.6707-0.02582 1.3677-0.06467 2.7483-0.11627 4.1418-0.0516 1.3677-0.077 2.7353-0.077 4.1031 0 1.3677 0.67084 2.0515 2.0128 2.0515h10.684c1.3161 0 1.974-0.65788 1.974-1.974 0-2.1935 0.01295-4.3739 0.03875-6.5417 0.0258-2.1935 0.03876-4.3869 0.03876-6.5804 0-0.4387 0.21914-0.65835 0.65784-0.65835h2.052c0.23225 0 0.41253 0.10309 0.54156 0.30954 1.2129 1.7807 2.3743 3.6 3.484 5.458 1.1097 1.8323 2.2322 3.6516 3.3677 5.458 0.38711 0.59352 0.76111 1.2131 1.1224 1.8583 0.3871 0.61933 0.78702 1.213 1.1999 1.7808 0.46452 0.59354 1.0193 0.88986 1.6645 0.88986h12.077c0.38712 0 0.90307-0.05129 1.5482-0.15451 0.64516-0.129 0.96789-0.47768 0.96789-1.0454 0-0.36132-0.11604-0.72236-0.34829-1.0836-0.20645-0.36128-0.41314-0.67107-0.6196-0.92913-0.23226-0.30967-0.74821-0.98051-1.5482-2.0128-0.77413-1.0322-1.6771-2.2196-2.7094-3.5615-1.0323-1.3419-2.0388-2.6578-3.0194-3.948-0.98065-1.2903-1.7934-2.387-2.4386-3.2902-0.64515-0.92904-0.96789-1.4455-0.96789-1.5487 0-0.15483 0.14195-0.32217 0.42581-0.50281 3.2257-1.8838 5.5611-4.3611 7.0062-7.432 1.4709-3.0969 2.2066-6.478 2.2066-10.142 0-4.8513-0.9936-8.6959-2.9807-11.535-1.9613-2.8645-4.6711-4.9165-8.1291-6.1551-3.4579-1.2645-7.3931-1.8965-11.806-1.8965h-16.49zm106.84 0c-1.3161 0-1.974 0.67085-1.974 2.0128h0.00103c0 1.3677 0.01296 2.7483 0.03876 4.1418 0.05162 1.3677 0.09047 2.7353 0.11627 4.1031 0.05161 2.8903 0.08995 5.781 0.11575 8.6712s0.03876 5.7804 0.03876 8.6707c0 2.8903-0.01296 5.7804-0.03876 8.6707-0.02581 2.8903-0.06415 5.7934-0.11575 8.7095-0.02582 1.3677-0.06467 2.7483-0.11627 4.1418-0.0258 1.3677-0.03876 2.7353-0.03876 4.1031 0 1.3419 0.65789 2.0133 1.974 2.0133h33.793c1.3419 0 2.0133-0.6838 2.0133-2.0515 0-1.3935-0.01296-2.8648-0.03876-4.4131-0.0258-1.5483-0.0776-3.0191-0.15502-4.4126-0.07747-1.2903-0.73536-1.9353-1.974-1.9353h-20.245c-0.43871 0-0.65835-0.2067-0.65835-0.61959l0.03876-7.9741c0-0.4129 0.20669-0.61908 0.61959-0.61908h16.451c1.3419 0 2.0128-0.67136 2.0128-2.0133v-7.432c0-1.3419-0.67084-2.0128-2.0128-2.0128h-16.451c-0.4129 0-0.61959-0.20618-0.61959-0.61908l-0.03876-7.7033c0-0.41289 0.21964-0.61908 0.65835-0.61908h19.354c1.2645 0 1.9359-0.6584 2.0133-1.9745 0.0516-0.64512 0.06456-1.2772 0.03876-1.8965-0.0258-0.64512-0.0258-1.2901 0-1.9353l0.07699-2.4779c0.0258-0.8258 0.03876-1.6515 0.03876-2.4773 0-1.3677-0.67085-2.0515-2.0128-2.0515h-32.903zm-143.03 12.232c2.7097 0 4.9419 0.79983 6.6967 2.3998 1.7806 1.5742 3.097 3.5484 3.9486 5.9226 0.8774 2.3742 1.3157 4.7484 1.3157 7.1225 0 1.7032-0.21913 3.4454-0.65783 5.226-0.43874 1.7807-1.1225 3.4451-2.0515 4.9934-0.9032 1.5226-2.0776 2.7612-3.5228 3.716-1.4451 0.929-3.1609 1.3932-5.148 1.3932-2.7096 0-5.0066-0.77398-6.8905-2.3223-1.8839-1.5742-3.3157-3.5484-4.2963-5.9226-0.9806-2.3742-1.4712-4.7743-1.4712-7.2 0-2.3483 0.45174-4.6967 1.3549-7.045 0.929-2.3484 2.2837-4.3097 4.0643-5.8838 1.8064-1.6 4.0257-2.3998 6.6579-2.3998zm48.928 0.58032h5.613c1.9871 0 3.4837 0.74859 4.4901 2.2453 1.0323 1.4968 1.5482 3.1612 1.5482 4.9934s-0.5289 3.4065-1.587 4.7227c-1.058 1.3161-2.5547 1.974-4.4901 1.974h-5.5355v-6.9675c0-2.3225-0.01296-4.6455-0.03876-6.968z" fill="#fff" style="paint-order:markers fill stroke"/>
 </g>
</svg>
