<?xml version="1.0" encoding="UTF-8"?>
<svg width="1020" height="470" version="1.1" viewBox="0 0 269.87 124.35" xmlns="http://www.w3.org/2000/svg">
 <path d="m125.93-5e-4c-1.1097 0-2.3921 0.8831-2.8478 1.7012a2.6461 2.6461 0 0 0-0.0667 0.12661c-1.9618 4.016-3.8471 8.0828-5.6538 12.201l4e-3 -0.0036c-1.7877 4.0496-3.6006 8.085-5.4394 12.109a2.6461 2.6461 0 0 0-4e-3 0.0062c-2.2221 4.8908-4.4821 9.7673-6.7809 14.632a2.6461 2.6461 0 0 0-4e-3 0.01188c-2.2755 4.8703-4.5778 9.7412-6.9044 14.611a2.6461 2.6461 0 0 0-0.02894 0.06253c-0.07403 0.16612-0.14592 0.34582-0.2191 0.52141-0.04584-0.08183-0.03649-0.2001-0.08578-0.2775-0.24202-0.41389-0.4934-0.80635-0.7834-1.1679-0.26159-0.34674-0.73759-0.9625-1.4862-1.9259l-0.01964-0.02739c-0.0026-0.0033-0.0031-0.0024-0.0057-0.0057-0.77145-1.0255-1.6618-2.1935-2.6814-3.5155-1.0214-1.3242-2.0169-2.6227-2.9863-3.8948-0.82303-1.08-1.4575-1.9436-2.0293-2.7321 2.6907-1.9446 4.9419-4.2745 6.3106-7.1741 1.6313-3.4282 2.4432-7.1881 2.4432-11.166 0-5.1542-1.057-9.5292-3.4276-12.916-2.2548-3.2802-5.4602-5.6848-9.3446-7.0739-3.769-1.3731-7.985-2.0355-12.611-2.0355h-16.359c-1.1142 0-2.4336 0.3301-3.3847 1.2971-0.95115 0.96696-1.2598 2.2685-1.2598 3.3791 0 1.3869 0.02771 2.7843 0.0801 4.195a2.6461 2.6461 0 0 0 0 0.0021c0.05058 1.3367 0.08788 2.6729 0.11317 4.0095 0.05105 2.8513 0.08971 5.7036 0.11524 8.5549 0.02553 2.8262 0.03721 5.6657 0.03721 8.5177s-0.01167 5.7026-0.03721 8.5544c-0.02554 2.8519-0.06417 5.7045-0.11524 8.5564-0.0253 1.3357-0.0626 2.6854-0.11317 4.0472-0.05241 1.3857-0.0801 2.7715-0.0801 4.1578 0 1.1106 0.30845 2.4122 1.2598 3.3791 0.9514 0.96683 2.2709 1.2971 3.3847 1.2971h10.6c1.0926 0 2.3867-0.31167 3.3377-1.2599 0.95102-0.94818 1.2676-2.2463 1.2676-3.3398 0-2.1601 0.01173-4.3073 0.03721-6.4414 0.01148-0.97327 0.01125-1.947 0.01757-2.9202 0.59745 0.92964 1.2175 1.8422 1.7869 2.7931a2.6461 2.6461 0 0 0 0.0098 0.01395c1.1085 1.8254 2.2286 3.6374 3.363 5.4373a2.6461 2.6461 0 0 0 0.02532 0.03721c0.34972 0.53474 0.68872 1.098 1.0196 1.6872a2.6461 2.6461 0 0 0 0.06666 0.10955c0.41583 0.66348 0.8476 1.3006 1.295 1.9141a2.6461 2.6461 0 0 0 0.05478 0.07596c0.82811 1.0552 2.2844 1.8929 3.7341 1.8929h11.983c0.61984 0 1.2321-0.07051 1.9528-0.18552a2.6461 2.6461 0 0 0 0.09973-0.01964c0.68498-0.13659 1.4948-0.45122 2.1425-1.1487 0.17657-0.19015 0.26489-0.43332 0.39067-0.65783 0.04761 0.08287 0.01859 0.16727 0.07441 0.24804 0.49995 0.72353 1.2929 1.2139 1.9942 1.4237a2.6461 2.6461 0 0 0 0.0331 0.0098c0.71811 0.20463 1.4375 0.33021 2.1838 0.33021h9.9078c0.85692 1e-5 1.8702-0.17025 2.7657-0.88469 0.65758-0.52464 1.0825-1.1544 1.4066-1.8009 0.19379-0.38653 0.36795-0.7844 0.52501-1.1916a2.6461 2.6461 0 0 0 0.0217-0.06046c0.1147-0.32026 0.22821-0.6094 0.33589-0.86712a2.6461 2.6461 0 0 0 0.0139-0.03514c0.29771-0.74218 0.59451-1.486 0.89244-2.2288l0.0274-0.06408c7.6e-4 -0.0019 5.5e-4 -0.0043 2e-3 -0.0062 0.16954-0.39104 0.32727-0.7823 0.4904-1.1736h12.08c0.21807 0.60999 0.45169 1.2052 0.63664 1.8438a2.6461 2.6461 0 0 0 4e-3 0.0155c0.36895 1.2453 0.82506 2.4534 1.3668 3.6194a2.6461 2.6461 0 0 0 6e-3 0.0155c0.30967 0.65626 0.70731 1.2856 1.3182 1.834a2.6461 2.6461 0 0 0 0.1173 0.09973c0.92852 0.74074 1.9368 0.88469 2.8008 0.88469h12.406c0.73761 0 1.4534-0.13026 2.1544-0.33796 0.69558-0.20008 1.4888-0.65682 2.0117-1.3772 0.52508-0.72321 0.70693-1.5736 0.70693-2.2711 0-0.57791-0.12329-1.195-0.36742-1.7714-0.12029-0.34674-0.24951-0.69101-0.42736-1.0103l0.076 0.14676c-2.3291-4.8752-4.6458-9.7383-6.9493-14.588-2.2733-4.8653-4.5331-9.7553-6.7809-14.672-1.8381-4.0228-3.6507-8.0572-5.4378-12.106l-2e-3 -0.0036c-1.7939-4.0886-3.6644-8.1255-5.6111-12.113-0.43685-0.98038-1.908-1.912-2.9553-1.912zm31.916 0.42167c-0.48759 0-1.2616 0.10025-1.9709 0.71881-0.70926 0.61855-0.98236 1.5994-0.98236 2.1952 0 1.6011 0.0384 3.2019 0.11731 4.8027a2.6461 2.6461 0 0 0 0 0.00207c0.0753 1.5024 0.12681 3.019 0.15192 4.5469a2.6461 2.6461 0 0 0 0 0.01964c0.15312 6.4389 0.22893 12.915 0.22893 19.432 0 2.8442-0.0256 5.6759-0.0765 8.4939a2.6461 2.6461 0 0 0 0 0.02325c-0.0255 2.8264-0.0642 5.6656-0.11524 8.5177-0.0253 1.3102-0.0626 2.6471-0.11317 4.0095-0.0524 1.3857-0.078 2.772-0.078 4.1583 0 1.1023 0.29386 2.387 1.2325 3.3594 0.9386 0.97241 2.261 1.3162 3.3708 1.3162h10.908c1.0926 0 2.3852-0.31322 3.3362-1.2614 0.95102-0.94818 1.2676-2.2442 1.2676-3.3377v-6.4729c0-2.9698-0.0136-5.9272-0.0393-8.8711-0.0128-1.4824-0.0133-2.9515-0.0196-4.4276 1.3313 1.1198 2.8246 2.3916 4.625 3.9568a2.6461 2.6461 0 0 0 0.0274 0.02377c2.0201 1.7086 4.1688 3.5336 6.4455 5.4724a2.6461 2.6461 0 0 0 0.0114 0.0098c2.302 1.9385 4.5661 3.8506 6.7912 5.7381a2.6461 2.6461 0 0 0 0.0253 0.0217c2.2473 1.8592 4.288 3.5649 6.123 5.1154a2.6461 2.6461 0 0 0 0.031 0.02325c1.8747 1.5367 3.3919 2.7685 4.5588 3.6995 0.60021 0.4814 1.0704 0.84775 1.4433 1.1229 0.18718 0.13811 0.34335 0.25079 0.52915 0.36896 0.0929 0.05909 0.18757 0.12039 0.35346 0.20308 0.12996 0.06478 0.46062 0.17379 0.9746 0.23461-1.939-0.21377-3.7209-0.34364-5.2983-0.34364-9.9604 0-18.081 2.8303-23.748 8.652-5.6455 5.8004-8.3926 13.903-8.3926 23.754-8e-5 4.6055 0.82895 8.7809 2.5585 12.432 1.693 3.5736 4.0633 6.6328 7.0547 9.0763a2.6461 2.6461 0 0 0 0.0212 0.0155c2.9815 2.3843 6.4168 4.1758 10.238 5.3634 3.8048 1.1824 7.8547 1.7658 12.115 1.7658 1.5138 0 3.2165-0.15724 5.1484-0.45113 1.9473-0.27078 3.9246-0.67174 5.9313-1.2051 2.06-0.54066 3.9892-1.1944 5.7871-1.9668a2.6461 2.6461 0 0 0 0.0315-0.0139c1.8559-0.8258 3.4336-1.7853 4.7107-2.961a2.6461 2.6461 0 0 0 0.0155-0.0134c0.90314-0.84431 1.4531-2.1867 1.4531-3.3889a2.6461 2.6461 0 0 0-2e-3 -6e-3c-8e-5 -1.1902-0.0248-2.3691-0.076-3.5372l-2e-3 -0.0605-0.0765-3.4633 2e-3 0.0139c-0.0766-4.6581-0.11524-9.328-0.11524-14.012 0-1.0931-0.3167-2.3914-1.2676-3.3398-0.9509-0.94843-2.2451-1.2599-3.3377-1.2599h-18.742c-1.0926 0-2.3848 0.31142-3.3356 1.2599-0.9509 0.94843-1.2676 2.2466-1.2676 3.3398v5.4006c0 1.0931 0.3167 2.3893 1.2676 3.3377 0.95089 0.94843 2.243 1.2598 3.3356 1.2598h5.9726l0.014 1.7461c-0.49921 0.15028-1.0095 0.30341-1.7461 0.42374-1.0147 0.14388-1.9647 0.25166-2.8401 0.32245-0.92216 0.0746-1.576 0.10749-1.7068 0.10749-3.9234 0-6.4301-1.0196-8.1895-2.9026-1.7938-1.973-2.7595-4.6325-2.7595-8.4707 0-4.6762 1.1319-7.7049 3.0799-9.6427 1.9479-1.9378 5.0052-3.07 9.7129-3.07 3.5257 0 6.9177 0.57569 10.227 1.7306a2.6461 2.6461 0 0 0 0.0367 0.01137c0.60128 0.19989 1.1292 0.36535 1.9104 0.36535 0.99168 0 2.378-0.38013 3.2029-1.5001 0.39262-0.52682 0.69879-1.1046 0.92602-1.7089a2.6461 2.6461 0 0 0 0.0331-0.09198c0.10162-0.304 0.27127-0.85776 0.53691-1.7244l0.0103-0.02945c5e-3 -0.01683 5e-3 -0.01599 0.01-0.03307 0.30758-0.9227 0.62414-1.9324 0.95134-3.0349 0.36298-1.1377 0.67624-2.1527 0.93946-3.0452a2.6461 2.6461 0 0 0 6e-3 -0.01912c0.13261-0.46288 0.23393-0.83323 0.31057-1.1389 0.0766-0.3057 0.17621-0.17334 0.17621-1.1208 0-0.90251-0.30342-2.0518-1.1234-2.8695-0.47259-0.47131-1.0083-0.82736-1.5699-1.1074a2.6461 2.6461 0 0 0-0.0181-0.0078c-1.6127-0.789-3.4756-1.3751-5.5975-1.8164-1.9946-0.44423-4.0282-0.76579-6.0936-0.98029 0.50952-0.02573 1.2536-0.18949 1.8593-0.79115 0.65799-0.65361 0.82836-1.5142 0.82836-2.0215 0-1.586-0.0377-3.1584-0.11523-4.7206l-2e-3 -0.04496c-0.0505-1.5347-0.10198-3.0684-0.15244-4.6033v-0.02377c-0.15277-6.4824-0.22841-12.978-0.22841-19.486 0-2.8435 0.0118-5.6746 0.0372-8.4924v-0.02532c0.051-2.8249 0.10298-5.6635 0.154-8.5136v-0.0041c0.0253-1.3353 0.0627-2.6705 0.11317-4.0059a2.6461 2.6461 0 0 0 0-5.16e-4 2.6461 2.6461 0 0 0 0-5.17e-4 2.6461 2.6461 0 0 0 0-5.17e-4 2.6461 2.6461 0 0 0 0-5.17e-4c0.0524-1.4107 0.078-2.8101 0.078-4.1971 0-1.1023-0.29334-2.387-1.2319-3.3594-0.93861-0.97241-2.2615-1.3162-3.3713-1.3162h-10.754c-1.0926 0-2.3872 0.31167-3.3382 1.2599-0.95102 0.94818-1.2676 2.2463-1.2676 3.3398v12.447a2.6461 2.6461 0 0 0 0 0.0155c0.0164 2.6432 0.02 5.3015 0.0258 7.9555-4.415-3.8342-8.8267-7.6739-13.209-11.557l-6e-3 -0.0041c-5.5066-4.9018-11.117-9.6753-16.83-14.32a2.6461 2.6461 0 0 0-0.13487-0.10335c-0.46864-0.3338-1.1439-0.6816-2.0329-0.6816zm-153.2 1.6464c-1.1138 0-2.4333 0.33022-3.3847 1.2971-0.95088 0.9663-1.258 2.2668-1.2583 3.377a2.6461 2.6461 0 0 0-0.0015503 0.002067c0 1.3869 0.027707 2.7843 0.080097 4.195a2.6461 2.6461 0 0 0 0 0.0021c0.05058 1.3367 0.087881 2.6729 0.11317 4.0095 0.051051 2.8513 0.089709 5.7016 0.11524 8.5528a2.6461 2.6461 0 0 0 0 0.0021c0.02553 2.8262 0.037206 5.6636 0.037206 8.5156s-0.011674 5.7046-0.037206 8.5564c-0.025535 2.8519-0.06417 5.703-0.11524 8.5549-0.025296 1.3363-0.06257 2.6863-0.11317 4.0488-0.05241 1.3857-0.080097 2.7715-0.080097 4.1578 0 1.1106 0.30845 2.4122 1.2598 3.3791 0.9514 0.96683 2.2709 1.2971 3.3847 1.2971h19.701c2.8405 0 5.6368-0.28754 8.3771-0.86143 2.8176-0.5901 5.4108-1.5732 7.7301-2.961a2.6461 2.6461 0 0 0 0.0078-0.0057c2.4349-1.469 4.4279-3.4881 5.8693-5.9437 1.5188-2.5876 2.2071-5.689 2.2071-9.1523 0-3.4223-0.95322-6.5453-2.9316-8.9766-1.2615-1.5895-2.8536-2.9343-4.5919-4.164 1.1906-1.2151 2.2589-2.5091 3.0313-3.9687a2.6461 2.6461 0 0 0 0.0057-0.01344c1.1839-2.2683 1.7601-4.8287 1.7601-7.5431 0-3.1579-0.80305-6.0475-2.5156-8.3513-1.5666-2.1396-3.6599-3.8272-6.135-4.9903-2.3306-1.1315-4.8402-1.9208-7.4981-2.3673-2.5613-0.4302-5.0254-0.64853-7.3906-0.64853zm213.5 0c-1.1102 0-2.435 0.34416-3.3734 1.3167-0.93836 0.97253-1.2325 2.2586-1.2325 3.361 0 1.362 0.0276 2.7225 0.0801 4.0839a2.6461 2.6461 0 0 0 0 0.0021c0.0505 1.2842 0.0884 2.5823 0.11369 3.8927 0.051 2.8761 0.0897 5.7643 0.11523 8.666 0.0255 2.8774 0.0367 5.7553 0.0367 8.6329 0 2.9032-0.0112 5.8074-0.0367 8.7104-0.0256 2.8769-0.0642 5.754-0.11523 8.6309-0.0253 1.3094-0.0632 2.6204-0.11369 3.9299-0.0525 1.3366-0.0801 2.6853-0.0801 4.0467 0 1.1023 0.29386 2.387 1.2325 3.3594 0.93861 0.97241 2.2636 1.3162 3.3734 1.3162l18.896-0.0016c5.6004 0 10.77-1.1289 15.385-3.4163 4.6487-2.2916 8.4236-5.6502 11.158-9.9512a2.6461 2.6461 0 0 0 4e-3 -0.0057c2.7764-4.3955 4.1351-9.614 4.1351-15.432 0-6.6693-1.3902-12.453-4.3108-17.168l-4e-3 -0.0041c-2.8739-4.6619-6.9458-8.2307-12.011-10.549l-6e-3 -0.00207c-5.0062-2.301-10.728-3.4199-17.078-3.4199zm-92.212 0.5767c0.25604 0 0.43554 0.11487 0.53794 0.34468 1.9459 3.9833 3.8151 8.018 5.6073 12.103 1.7922 4.0599 3.6098 8.1071 5.4533 12.142 2.2531 4.9281 4.5192 9.8305 6.7979 14.707 2.3043 4.8515 4.6215 9.7157 6.9514 14.593 0.12802 0.22981 0.23067 0.47225 0.30747 0.72759 0.10238 0.22981 0.15348 0.48496 0.15348 0.76583 0 0.58729-0.26898 0.9578-0.80665 1.111-0.51208 0.15321-0.98584 0.22996-1.4211 0.22996h-12.405c-0.51207 0-0.8963-0.10216-1.1524-0.30644-0.25604-0.22981-0.4866-0.56173-0.69143-0.99579-0.48646-1.0469-0.89598-2.1321-1.2288-3.2556-0.33284-1.149-0.71707-2.2601-1.1524-3.3326-0.12802-0.28088-0.32014-0.42116-0.57618-0.42116h-14.901c-0.23043 0-0.40941 0.10216-0.53743 0.30644-0.0256 0.02553-0.0388 0.06365-0.0388 0.11472 0 0.02554-0.0126 0.06417-0.0382 0.11524-0.30725 0.76604-0.62729 1.532-0.96014 2.298-0.30724 0.76604-0.61464 1.532-0.92189 2.298-0.12802 0.30641-0.25593 0.63833-0.38395 0.99579-0.12802 0.33195-0.26857 0.65114-0.42219 0.95755-0.20483 0.40854-0.43538 0.71451-0.69142 0.91879-0.25602 0.20428-0.62761 0.30644-1.1141 0.30644l-9.9088 0.0016c-0.43526 0-0.92166-0.07675-1.4593-0.22996-0.51207-0.1532-0.76789-0.52371-0.76789-1.111 0-0.28088 0.0511-0.53603 0.15348-0.76583 0.10241-0.25534 0.20505-0.49778 0.30746-0.72759 2.3299-4.877 4.6339-9.7543 6.9126-14.631 2.3043-4.877 4.5704-9.7668 6.7979-14.67 1.8434-4.0344 3.6615-8.0816 5.4538-12.142 1.7922-4.0854 3.6614-8.1201 5.6073-12.103 0.12803-0.22981 0.30699-0.34468 0.53742-0.34468zm31.915 0.42271c0.15362 0 0.31995 0.064049 0.49919 0.19172 5.684 4.6217 11.266 9.3713 16.745 14.249 5.5048 4.877 11.035 9.7156 16.591 14.516 0.10242 0.07661 0.20454 0.16606 0.30696 0.2682 0.12802 0.0766 0.24329 0.11472 0.34571 0.11472 0.20482 0 0.32011-0.11487 0.34571-0.34468 0.0256-0.22981 0.0382-0.3955 0.0382-0.49764 0-4.1621-0.0126-8.3114-0.0382-12.448v-12.448c0-1.3023 0.65319-1.9533 1.959-1.9533h10.754c1.3058 0 1.959 0.67649 1.959 2.0298 0 1.3533-0.0258 2.7195-0.077 4.0984-0.0512 1.3533-0.0896 2.7068-0.11524 4.0602-0.0512 2.8598-0.10228 5.7066-0.15348 8.5409-0.0256 2.8343-0.0382 5.6816-0.0382 8.5415 0 6.5367 0.0769 13.061 0.23048 19.572 0.0512 1.5576 0.10228 3.1149 0.15348 4.6725 0.0768 1.532 0.11522 3.0772 0.11522 4.6348 0 0.12767-0.0642 0.1912-0.19222 0.1912l-5.2e-4 -1e-3c-0.10241 0-0.74252-0.4722-1.9203-1.4169-1.1522-0.91921-2.6628-2.1446-4.532-3.6767-1.8434-1.5576-3.8916-3.2684-6.1447-5.1324-2.2276-1.8896-4.4936-3.8048-6.7979-5.7453-2.2787-1.9406-4.4295-3.7663-6.4522-5.4771-1.9971-1.7363-3.7126-3.2047-5.1464-4.4048-1.4338-1.2256-2.3808-2.0297-2.8416-2.4127-0.10242-0.0766-0.20505-0.15336-0.30747-0.22996-0.10242-0.10214-0.21768-0.15296-0.3457-0.15296-0.17923 0-0.29452 0.11487-0.34572 0.34468-0.0256 0.20427-0.0382 0.36996-0.0382 0.49764 0 2.9364 0.0126 5.8859 0.0382 8.8479 0.0256 2.9364 0.0388 5.8854 0.0388 8.8474v6.4729c0 1.3023-0.6532 1.9533-1.959 1.9533h-10.907c-1.3058 0-1.959-0.67649-1.959-2.0298 0-1.3533 0.0258-2.7068 0.077-4.0602 0.0512-1.3789 0.0896-2.7318 0.11524-4.0596 0.0512-2.8598 0.0896-5.7072 0.11523-8.5415 0.0512-2.8343 0.0765-5.6811 0.0765-8.5409 0-6.5367-0.0763-13.035-0.22995-19.496-0.0256-1.5576-0.0772-3.1022-0.154-4.6343-0.0768-1.5576-0.11523-3.1154-0.11523-4.673 0-0.17874 0.10263-0.2682 0.30747-0.2682zm-153.2 1.6459h17.628c2.2019 0 4.5191 0.20381 6.9514 0.61236 2.4324 0.40854 4.6979 1.1237 6.7974 2.1451 2.1251 0.99586 3.8405 2.3875 5.1464 4.1749 1.3314 1.7874 1.9973 4.0471 1.9973 6.7793 0 2.3491-0.4864 4.4559-1.4593 6.3199-0.97292 1.8384-2.3683 3.4725-4.1862 4.9025-0.10242 0.07661-0.20506 0.16606-0.30747 0.2682-0.10242 0.0766-0.15348 0.17877-0.15348 0.30644 0 0.1532 0.06422 0.28078 0.19223 0.38292 0.12802 0.07661 0.24329 0.14066 0.34571 0.19172 2.4324 1.3789 4.4163 3.0383 5.9525 4.9789 1.5618 1.9151 2.343 4.3538 2.343 7.3157 0 3.1152-0.61482 5.7196-1.8438 7.8133-1.229 2.0938-2.8802 3.766-4.9541 5.0172-2.0483 1.2256-4.3528 2.1065-6.9131 2.6427-2.5604 0.53622-5.1718 0.80459-7.8345 0.80459h-19.702c-1.3314 0-1.9973-0.67649-1.9973-2.0298 0-1.3533 0.025789-2.7068 0.076997-4.0602 0.051208-1.3789 0.089631-2.7451 0.11524-4.0984 0.051208-2.8598 0.08963-5.7194 0.11524-8.5792 0.025604-2.8598 0.03824-5.7199 0.03824-8.5797s-0.012636-5.7066-0.03824-8.5409c-0.025604-2.8598-0.064027-5.7199-0.11524-8.5797-0.025604-1.3533-0.064027-2.7068-0.11524-4.0602-0.051208-1.3789-0.076996-2.7445-0.076996-4.0979h5.168e-4c0-1.3533 0.66584-2.0298 1.9973-2.0298zm50.273 0 16.361 5.168e-4c4.3782 0 8.283 0.62519 11.714 1.8763 3.4309 1.2256 6.1191 3.2557 8.065 6.09 1.9715 2.8088 2.9574 6.6134 2.9574 11.414 0 3.6259-0.72957 6.9712-2.189 10.035-1.4338 3.0386-3.7509 5.4895-6.9514 7.3534-0.28164 0.17874-0.4227 0.34494-0.4227 0.49815 0 0.10214 0.32004 0.61293 0.96013 1.5322 0.64009 0.89369 1.4465 1.9788 2.4194 3.2556 0.97297 1.2767 1.972 2.5789 2.9961 3.9067 1.0242 1.3278 1.9201 2.5024 2.6882 3.5238 0.79373 1.0214 1.3059 1.6852 1.5363 1.9916 0.20483 0.25534 0.40959 0.56183 0.61442 0.91931 0.23043 0.35748 0.34571 0.71476 0.34571 1.0723 0 0.56175-0.32004 0.90639-0.96013 1.034-0.64009 0.10214-1.1522 0.15348-1.5363 0.15348h-11.983c-0.64009 0-1.1907-0.29378-1.6515-0.88107-0.40966-0.56175-0.80653-1.1488-1.1906-1.7616-0.35846-0.63835-0.72953-1.2513-1.1136-1.8386-1.1266-1.7874-2.2404-3.5876-3.3413-5.4006-1.101-1.8384-2.2532-3.6382-3.4566-5.4001-0.12802-0.20427-0.30698-0.30644-0.53743-0.30644h-2.0355c-0.43526 0-0.65318 0.21703-0.65318 0.65111 0 2.1704-0.01263 4.3408-0.03824 6.5111-0.02561 2.1449-0.03824 4.3025-0.03824 6.4729 0 1.3023-0.6532 1.9533-1.959 1.9533h-10.6c-1.3314 0-1.9973-0.67649-1.9973-2.0298 0-1.3533 0.02579-2.7068 0.077-4.0602 0.05121-1.3789 0.08963-2.7451 0.11524-4.0984 0.05121-2.8598 0.08963-5.7194 0.11524-8.5792 0.02561-2.8598 0.03824-5.7199 0.03824-8.5797s-0.01263-5.7066-0.03824-8.5409c-0.02561-2.8598-0.06403-5.7199-0.11524-8.5797-0.02561-1.3533-0.06403-2.7068-0.11524-4.0602-0.05121-1.3789-0.077-2.7445-0.077-4.0979 0-1.3533 0.66584-2.0303 1.9973-2.0303zm163.22 0.00155h16.168c6.0425 0 11.368 1.0598 15.977 3.1791 4.6343 2.1193 8.2571 5.2981 10.869 9.5367 2.6116 4.2131 3.9175 9.4733 3.9175 15.78 0 5.4132-1.2417 10.086-3.7253 14.018-2.4836 3.9067-5.8506 6.9066-10.1 9.0003-4.2246 2.0938-8.9612 3.1408-14.21 3.1408l-18.896 5.17e-4c-1.3058 0-1.959-0.67649-1.959-2.0298 0-1.3278 0.0258-2.6427 0.077-3.9449 0.0512-1.3278 0.0896-2.6559 0.11524-3.9837 0.0512-2.8854 0.0896-5.7703 0.11523-8.6557 0.0256-2.9109 0.0382-5.8218 0.0382-8.7327 0-2.8853-0.0126-5.7708-0.0382-8.6562-0.0256-2.9109-0.064-5.8091-0.11523-8.6944-0.0256-1.3278-0.064-2.6427-0.11524-3.9449-0.0512-1.3278-0.077-2.6554-0.077-3.9832 0-1.3533 0.65319-2.0303 1.959-2.0303zm12.673 12.524c0.0768 9.805 0.0768 19.623 0 29.454h3.9945c4.8135 0 8.5774-1.1487 11.291-3.4468 2.7396-2.2981 4.1092-5.9368 4.1092-10.916 0-2.8088-0.38423-5.3496-1.1524-7.6221-0.76813-2.2981-2.0736-4.1111-3.917-5.4389-1.8178-1.3533-4.3018-2.0298-7.4511-2.0298zm-213.54 0.15244c0.02561 1.4299 0.03824 2.8724 0.03824 4.3278v4.2896h5.876c1.357 0 2.5224-0.43407 3.4953-1.3022 0.99858-0.89369 1.4976-2.0297 1.4976-3.4085 0-1.4299-0.57586-2.4388-1.728-3.0261-1.1522-0.58729-2.3302-0.88055-3.5336-0.88055zm50.273 0c0.02561 2.2981 0.03876 4.596 0.03876 6.894v6.8946h5.4921c1.9203 0 3.4052-0.65107 4.4549-1.9533 1.0497-1.3023 1.5745-2.8601 1.5746-4.673 6.6e-5 -1.8129-0.51207-3.4597-1.5363-4.9407-0.99852-1.481-2.4834-2.2215-4.4549-2.2215zm165.91 2.4928h4.2286c2.7704 0 4.6408 0.59023 5.8714 1.5063a2.6461 2.6461 0 0 0 0.0331 0.02532c1.3973 1.0065 2.3382 2.2903 2.9532 4.1304a2.6461 2.6461 0 0 0 4e-3 0.0083c0.66228 1.9594 1.0113 4.2077 1.0113 6.7752 0 4.4939-1.1433 7.1954-3.162 8.8887a2.6461 2.6461 0 0 0-0.01 0.0078c-2.1248 1.7994-5.1896 2.8205-9.5822 2.8205h-1.3477c0.0516-8.0628 0.0516-16.117 0-24.162zm-213.51 0.15244h2.9765c0.77351 0 1.5125 0.17445 2.3321 0.5922 0.37764 0.19249 0.28318-0.04984 0.28318 0.66972 0 0.74055-0.12229 0.9928-0.61701 1.4355-0.51502 0.45858-0.93966 0.62889-1.7306 0.62889h-3.2302v-1.6443c0-0.56532-0.01018-1.1204-0.01395-1.682zm50.265 0h2.9062c1.3089 0 1.7145 0.24288 2.2618 1.0547a2.6461 2.6461 0 0 0 0.01757 0.02532c0.73704 1.0657 1.0666 2.1229 1.0666 3.4375-4.7e-5 1.3024-0.31546 2.1771-0.98855 3.0122-0.55501 0.68855-1.0718 0.9684-2.3941 0.9684h-2.8458v-4.2498c0-1.4161-0.01399-2.8324-0.02377-4.2482zm55.139 9.8034c-0.66568 1.7108-1.3442 3.4343-2.0355 5.1707-0.66568 1.7363-1.3442 3.4726-2.0355 5.2089h7.6428c-0.58889-1.7363-1.1911-3.4726-1.8055-5.2089-0.5889-1.7363-1.1774-3.4599-1.7663-5.1707zm-0.16898 7.6656h5.2e-4c8e-3 0.02276 0.0153 0.04544 0.0233 0.06821h-0.0506c9e-3 -0.02286 0.0181-0.04535 0.0269-0.06821zm-107.87 1.1431c0 1.4044-0.01263 2.8087-0.03824 4.2131v4.2514h6.0683c0.97292 0 2.0483-0.10216 3.2261-0.30644 1.2034-0.20427 2.2403-0.6124 3.1109-1.2252 0.87052-0.63835 1.3058-1.5959 1.3058-2.8726 0-1.3789-0.47376-2.3491-1.4211-2.9109-0.92172-0.56175-2.0229-0.89368-3.3031-0.99579-1.2546-0.10214-2.381-0.15348-3.3796-0.15348zm2.6215 2.6458h2.9476c0.9079 0 1.9657 0.04713 3.1641 0.14469a2.6461 2.6461 0 0 0 0.0057 0c0.9471 0.07554 1.6192 0.30157 2.1368 0.61701a2.6461 2.6461 0 0 0 0.02739 0.01757c0.13053 0.0774 0.12506-0.13772 0.12506 0.63509 0 0.66124-0.03891 0.5929-0.22065 0.72242-0.50911 0.35193-1.1327 0.62116-1.9942 0.76738a2.6461 2.6461 0 0 0-0.0098 0c-1.057 0.18332-1.9857 0.26768-2.7734 0.26768h-3.422v-1.6056c0.0094-0.52217 0.0076-1.0442 0.01344-1.5663zm66.453 2.328c-0.0239 0.01676-0.10047 0.09321-0.1018 0.09405l-0.08578 0.05271c0.07108-0.0414 0.11716-0.10474 0.18758-0.14676zm3.207 19.671v5.17e-4c-4.1633 0-8.0935 0.83216-11.682 2.5078-3.5272 1.6471-6.6375 3.9174-9.2716 6.768a2.6461 2.6461 0 0 0-0.0098 0.0098c-2.599 2.8428-4.6343 6.122-6.0781 9.777a2.6461 2.6461 0 0 0-0.0036 0.0098c-1.4252 3.6507-2.1388 7.5039-2.1388 11.494 0 4.0602 0.71107 7.9536 2.1388 11.611a2.6461 2.6461 0 0 0 0.0057 0.016c1.4446 3.6294 3.4805 6.8905 6.0765 9.73a2.6461 2.6461 0 0 0 0.01757 0.0217c2.6368 2.8254 5.7504 5.0676 9.2789 6.6873a2.6461 2.6461 0 0 0 0.02377 0.0119c3.6084 1.6152 7.5595 2.4138 11.758 2.4138 4.1282 0 8.041-0.80176 11.642-2.4138a2.6461 2.6461 0 0 0 8e-3 -4e-3c3.5733-1.6148 6.7249-3.8406 9.3905-6.6388a2.6461 2.6461 0 0 0 0.01-0.01c2.6502-2.8099 4.7297-6.0465 6.2052-9.6525l2e-3 -6e-3c1.5127-3.662 2.2717-7.5468 2.2717-11.576 0-4.0486-0.75801-7.9523-2.266-11.635l-2e-3 -0.0021c-1.473-3.6579-3.5597-6.9469-6.2321-9.8085-2.6636-2.8802-5.8179-5.1657-9.4003-6.8124-3.631-1.6692-7.5811-2.5001-11.744-2.5001zm-67.211 0.53588c-1.1012 0-2.4105 0.32805-3.3553 1.2888-0.94476 0.96074-1.2485 2.2522-1.2485 3.3496 0 1.3705 0.01338 2.752 0.03927 4.1464a2.6461 2.6461 0 0 0 0.0021 0.05116c0.05058 1.3367 0.08788 2.6729 0.11317 4.0095 0.05105 2.8513 0.0897 5.7016 0.11524 8.5528 0.02553 2.8518 0.03721 5.7044 0.03721 8.5564s-0.01168 5.7051-0.03721 8.557c-0.02554 2.852-0.06416 5.716-0.11524 8.5936-0.0253 1.3357-0.0626 2.6849-0.11317 4.0467a2.6461 2.6461 0 0 0-0.0021 0.0486c-0.02591 1.3696-0.03927 2.7393-0.03927 4.1098 0 1.0978 0.30514 2.3891 1.25 3.3496 0.94489 0.96049 2.2546 1.2867 3.3558 1.2867h10.636c1.0926 0 2.3873-0.31091 3.3382-1.2593 0.95089-0.94843 1.2676-2.2451 1.2676-3.3382v-8.8867c0.01969-2.284 0.02434-4.5691 0.02894-6.8532h14.99c1.1054 0 2.4098-0.31504 3.3672-1.2697 0.95741-0.95463 1.2759-2.261 1.2759-3.3672 0-1.4551-0.01188-2.9116-0.03721-4.3671v-4.365c0-1.0935-0.31682-2.3899-1.2676-3.3382-0.95078-0.94831-2.2453-1.2614-3.3382-1.2614h-14.982v-3.67h18.324c1.0726 0 2.342-0.33511 3.2618-1.2345 0.91376-0.89358 1.2671-2.0911 1.3343-3.1465 0.05764-0.66046 0.07521-1.3229 0.04496-1.9864l0.0016 0.12144c0-0.54934 0.01354-1.0842 0.03721-1.6035a2.6461 2.6461 0 0 0 0-0.04496c0.02559-0.8933 0.05241-1.7879 0.07803-2.682 0.02632-0.91853 0.03927-1.8248 0.03927-2.7187 0-1.1106-0.30845-2.4102-1.2598-3.377-0.9514-0.96683-2.2689-1.2986-3.3827-1.2986zm103.31 0c-1.1138 0-2.4334 0.33022-3.3848 1.2971-0.95139 0.96683-1.2593 2.268-1.2593 3.3786 0 1.387 0.0277 2.7869 0.0801 4.1976a2.6461 2.6461 0 0 0 0 0.0016c0.0506 1.3367 0.0879 2.6734 0.11317 4.01 0.051 2.8506 0.0897 5.7022 0.11524 8.5528 0.0255 2.8262 0.0372 5.6651 0.0372 8.5172s-0.0117 5.7031-0.0372 8.5549c-0.0255 2.8519-0.0642 5.7045-0.11524 8.5564-0.0253 1.3363-0.0626 2.6847-0.11317 4.0472-0.0524 1.3857-0.0801 2.7715-0.0801 4.1578 0 1.1106 0.30819 2.4121 1.2593 3.3791 0.95116 0.96696 2.2706 1.297 3.3848 1.297h10.6c1.093 0 2.3869-0.31154 3.3377-1.2598 0.95077-0.94831 1.2676-2.2463 1.2676-3.3398 0-2.1601 0.0117-4.3072 0.0372-6.4414 0.0115-0.9742 0.0113-1.9481 0.0176-2.9222 0.59786 0.93035 1.2192 1.8436 1.789 2.7951a2.6461 2.6461 0 0 0 8e-3 0.0134c1.1086 1.8254 2.2286 3.64 3.363 5.4399a2.6461 2.6461 0 0 0 0.0253 0.0367c0.35012 0.53534 0.68904 1.0971 1.0196 1.6857a2.6461 2.6461 0 0 0 0.0667 0.10955c0.41546 0.6629 0.84711 1.302 1.295 1.9161a2.6461 2.6461 0 0 0 0.0563 0.0739c0.82811 1.0552 2.2828 1.8929 3.7325 1.8929h11.983c0.61991 0 1.2322-0.0711 1.9528-0.18603a2.6461 2.6461 0 0 0 0.0997-0.0176c0.68498-0.1366 1.4948-0.45072 2.1425-1.1482 0.64769-0.69753 0.9472-1.6971 0.9472-2.4804 0-0.91755-0.31858-1.791-0.75962-2.4825-0.24101-0.41202-0.49273-0.80201-0.78134-1.1622-0.26141-0.34653-0.73675-0.96504-1.4862-1.9296l-0.0217-0.0274-4e-3 -6e-3c-0.77146-1.0255-1.6643-2.194-2.684-3.516-1.0212-1.3239-2.0167-2.6219-2.9863-3.8943-0.82309-1.0801-1.4575-1.9441-2.0293-2.7326 2.6908-1.9448 4.9419-4.2741 6.3106-7.1736 1.6313-3.428 2.4437-7.1881 2.4437-11.166 0-5.1542-1.0575-9.5292-3.4282-12.916-2.2542-3.2802-5.459-5.6853-9.3434-7.0744-3.7687-1.373-7.9828-2.035-12.609-2.035zm106 0c-1.1012 0-2.4105 0.32804-3.3553 1.2888-0.94476 0.96074-1.25 2.2522-1.25 3.3496a2.6461 2.6461 0 0 0 2e-3 0.0041c4e-5 1.3679 0.0134 2.7492 0.0393 4.1423a2.6461 2.6461 0 0 0 2e-3 0.05116c0.0506 1.3367 0.0879 2.6729 0.11317 4.0095 0.0511 2.8513 0.0897 5.7016 0.11523 8.5528 0.0255 2.8518 0.0372 5.7044 0.0372 8.5564 0 2.852-0.0117 5.7031-0.0372 8.5549-0.0255 2.852-0.0642 5.718-0.11523 8.5957-0.0253 1.3357-0.0626 2.6849-0.11317 4.0467a2.6461 2.6461 0 0 0-2e-3 0.0486c-0.0259 1.3702-0.0393 2.74-0.0393 4.1098 0 1.0974 0.3032 2.3889 1.248 3.3496 0.94475 0.96074 2.2546 1.2867 3.3558 1.2867h33.529c1.1142 0 2.4337-0.32933 3.3848-1.2965 0.95101-0.9672 1.2578-2.2688 1.2578-3.3791 0-1.395-0.0134-2.8645-0.0393-4.41-0.0261-1.5628-0.0771-3.0519-0.15606-4.4689a2.6461 2.6461 0 0 0 0-0.0119c-0.0639-1.0607-0.42011-2.2706-1.3399-3.1698-0.91984-0.89916-2.1892-1.2325-3.2618-1.2325h-18.082l0.0176-3.824h14.301c1.1057 0 2.41-0.31492 3.3672-1.2697 0.95716-0.95475 1.2754-2.261 1.2754-3.3672v-7.3534c0-1.1062-0.31819-2.4124-1.2754-3.3672-0.95717-0.95476-2.2614-1.2712-3.3672-1.2712h-14.301l-0.0176-3.5548h17.199c1.085 0 2.3645-0.33767 3.2912-1.2443 0.92289-0.90289 1.2781-2.1151 1.3436-3.1853 0.0565-0.72368 0.0744-1.4421 0.045-2.1523v-0.0062c-0.0225-0.56579-0.0227-1.1312 0-1.697a2.6461 2.6461 0 0 0 0-0.02377l0.0765-2.451c0.0264-0.84393 0.0408-1.6897 0.0408-2.5352 0-1.1106-0.30843-2.4102-1.2598-3.377-0.95139-0.96684-2.2709-1.2986-3.3847-1.2986zm-29.995 2.1094c1.5362 0 3.3028 0.11487 5.2998 0.34468 2.0227 0.20427 4.0071 0.52347 5.953 0.95755 1.9715 0.40854 3.6359 0.94476 4.9929 1.6087 0.35845 0.17874 0.65269 0.38307 0.88312 0.61287 0.23044 0.22981 0.34572 0.56173 0.34572 0.99579 0 0.12767-0.12792 0.63794-0.38396 1.5317-0.25603 0.86816-0.56342 1.8644-0.92188 2.9879-0.33285 1.1235-0.65289 2.1446-0.96014 3.0638-0.28164 0.91921-0.46063 1.4936-0.53742 1.7234-0.15362 0.40854-0.34575 0.76634-0.57618 1.0728-0.20483 0.28088-0.56333 0.42116-1.0754 0.42116-0.25603 0-0.61453-0.07624-1.0754-0.22944-3.5846-1.2511-7.2844-1.8769-11.099-1.8769-10.293 0-15.439 5.1195-15.439 15.358 0 4.3153 1.1522 7.737 3.4566 10.265 2.3299 2.5024 5.7099 3.7532 10.139 3.7532 0.33284 0 0.97295-0.0381 1.9203-0.11472 0.94732-0.0766 1.9585-0.19148 3.0339-0.34468 1.101-0.17874 2.0353-0.40847 2.8034-0.68934 0.79372-0.28087 1.1906-0.62551 1.1906-1.034l-0.0382-5.0942c0-0.40855-0.21741-0.61288-0.65266-0.61288h-7.9503c-1.3058 0-1.9585-0.65106-1.9585-1.9533v-5.4006c0-1.3023 0.65268-1.9533 1.9585-1.9533h18.742c1.3058 0 1.9585 0.65107 1.9585 1.9533 0 4.6982 0.0384 9.3836 0.11524 14.056l0.077 3.5238c0.0512 1.149 0.0765 2.311 0.0765 3.4855l5.1e-4 5.1e-4c0 0.5873-0.20474 1.0727-0.61441 1.4557-0.99852 0.91922-2.3298 1.7487-3.994 2.4892-1.6643 0.71493-3.4697 1.3279-5.4156 1.8386-1.9203 0.51067-3.8021 0.89389-5.6456 1.1493-1.8434 0.28087-3.431 0.42115-4.7624 0.42115-4.0198 0-7.7961-0.54892-11.329-1.6469-3.5333-1.098-6.6568-2.732-9.3708-4.9025-2.6884-2.196-4.8007-4.9157-6.337-8.1585-1.5363-3.2428-2.3043-7.0087-2.3042-11.298 0-9.3709 2.5476-16.674 7.6428-21.909 5.0952-5.2345 12.379-7.8516 21.852-7.8516zm-112.11 5.17e-4c3.8149 0 7.3609 0.75328 10.638 2.2598 3.2773 1.5065 6.1324 3.5746 8.5647 6.2047 2.458 2.63 4.3656 5.6303 5.7225 9.0009 1.3826 3.3705 2.0737 6.9198 2.0737 10.648 0 3.7025-0.69112 7.2261-2.0737 10.571-1.357 3.3194-3.252 6.2689-5.6843 8.8479-2.4324 2.5534-5.2869 4.5702-8.5642 6.0512-3.2517 1.4554-6.7726 2.1833-10.562 2.1833-3.8662 0-7.4251-0.72786-10.677-2.1833-3.2261-1.481-6.0422-3.5105-8.4489-6.0895-2.3811-2.6045-4.2376-5.5794-5.5691-8.9244-1.3058-3.345-1.9585-6.8943-1.9585-10.648v-5.17e-4c0-3.6769 0.6532-7.1875 1.959-10.533 1.3314-3.3705 3.1874-6.3581 5.5686-8.9626 2.4067-2.6045 5.2233-4.66 8.4495-6.1664 3.2261-1.5065 6.7464-2.2598 10.561-2.2598zm36.101 0.53588h16.361c4.3782 0 8.2825 0.62571 11.713 1.8769 3.4309 1.2256 6.1191 3.2557 8.065 6.09 1.9715 2.8088 2.9574 6.6134 2.9574 11.414 0 3.6259-0.72958 6.9706-2.189 10.035-1.4338 3.0386-3.7509 5.49-6.9514 7.354-0.28164 0.17873-0.4227 0.34495-0.4227 0.49815 0 0.10214 0.32003 0.61242 0.96013 1.5317 0.64009 0.89369 1.447 1.9793 2.42 3.2561 0.97292 1.2767 1.9714 2.5789 2.9956 3.9067 1.0242 1.3278 1.9201 2.5024 2.6882 3.5238 0.79373 1.0214 1.3059 1.6852 1.5363 1.9916 0.20483 0.25534 0.40959 0.56184 0.61442 0.91931 0.23044 0.35749 0.34572 0.71477 0.34572 1.0723 0 0.56173-0.32004 0.90637-0.96014 1.034-0.64009 0.10218-1.1522 0.15348-1.5363 0.15348h-11.983c-0.64009 0-1.1907-0.2938-1.6516-0.88107-0.40967-0.56175-0.80654-1.1493-1.1906-1.7621-0.35844-0.63834-0.72952-1.2508-1.1136-1.8381-1.1266-1.7874-2.2404-3.5876-3.3413-5.4006-1.101-1.8384-2.2532-3.6387-3.4566-5.4006-0.12803-0.20427-0.307-0.30644-0.53743-0.30644h-2.0355c-0.43526 0-0.65317 0.21704-0.65317 0.65112 0 2.1704-0.0126 4.3408-0.0382 6.5111-0.0256 2.1449-0.0382 4.3025-0.0382 6.4729 0 1.3023-0.6532 1.9539-1.959 1.9539h-10.6c-1.3314 0-1.9973-0.67701-1.9973-2.0303 0-1.3533 0.0258-2.7063 0.077-4.0596 0.0512-1.3788 0.0896-2.7451 0.11523-4.0984 0.0512-2.8598 0.0896-5.7199 0.11524-8.5797 0.0256-2.8598 0.0382-5.7194 0.0382-8.5792s-0.0126-5.7072-0.0382-8.5415c-0.0256-2.8598-0.064-5.7194-0.11524-8.5792-0.0256-1.3533-0.064-2.7068-0.11523-4.0602-0.0512-1.3789-0.077-2.7451-0.077-4.0984 0-1.3533 0.66583-2.0298 1.9973-2.0298zm-103.31 5.17e-4h33.759c1.3314 0 1.9973 0.67649 1.9973 2.0298 0 0.86816-0.01263 1.749-0.03824 2.6427-0.02561 0.89369-0.0514 1.7872-0.077 2.6809-0.02561 0.56175-0.03824 1.1366-0.03824 1.7239 0.0256 0.56175 0.01245 1.1234-0.03876 1.6851-0.07681 1.2767-0.72949 1.9151-1.9585 1.9151h-20.317c-0.43526 0-0.65266 0.20433-0.65266 0.61287v7.7369c0 0.40854 0.2174 0.61236 0.65266 0.61236h16.975c1.3058 0 1.959 0.65158 1.959 1.9539v4.3661c0.02561 1.4554 0.03824 2.9111 0.03824 4.3666 0 1.3278-0.66584 1.9916-1.9973 1.9916h-16.975c-0.43526 0-0.65266 0.20432-0.65266 0.61287 0 2.9619-0.01315 5.9236-0.03876 8.8856v8.8861c0 1.3023-0.65268 1.9533-1.9585 1.9533h-10.638c-1.3058 0-1.959-0.66379-1.959-1.9916 0-1.3533 0.01315-2.7068 0.03876-4.0602 0.05121-1.3789 0.08963-2.7451 0.11524-4.0984 0.05121-2.8854 0.08963-5.7576 0.11524-8.6174 0.02561-2.8598 0.03824-5.7199 0.03824-8.5797s-0.01263-5.7194-0.03824-8.5792c-0.02561-2.8598-0.06403-5.7199-0.11524-8.5797-0.02561-1.3533-0.06403-2.7068-0.11524-4.0602-0.02561-1.3789-0.03876-2.7445-0.03876-4.0979 0-1.3278 0.65268-1.9916 1.9585-1.9916zm209.31 0h32.645c1.3314 0 1.9973 0.67649 1.9973 2.0298 0 0.8171-0.0132 1.6344-0.0388 2.4515l-0.0765 2.451c-0.0256 0.63835-0.0256 1.2768 0 1.9151 0.0256 0.61282 0.0124 1.2385-0.0388 1.8769-0.0768 1.3023-0.74214 1.9533-1.9967 1.9533h-19.203c-0.43527 0-0.65266 0.20433-0.65266 0.61287l0.0382 7.6216c0 0.40854 0.20475 0.61287 0.61442 0.61287h16.322c1.3314 0 1.9973 0.6643 1.9973 1.9921v7.3534c0 1.3278-0.66584 1.9921-1.9973 1.9921h-16.322c-0.40967 0-0.61442 0.2038-0.61442 0.61236l-0.0382 7.8903c0 0.40855 0.21739 0.61288 0.65266 0.61288h20.086c1.229 0 1.8821 0.63842 1.959 1.9151 0.0768 1.3789 0.12786 2.834 0.15346 4.3661 0.0256 1.532 0.0382 2.9872 0.0382 4.3661 0 1.3533-0.66531 2.0303-1.9967 2.0303h-33.529c-1.3058 0-1.9585-0.66379-1.9585-1.9916 0-1.3533 0.0126-2.7068 0.0382-4.0602 0.0512-1.3789 0.0896-2.7451 0.11524-4.0984 0.0512-2.8854 0.0896-5.7581 0.11524-8.6179 0.0256-2.8598 0.0382-5.7194 0.0382-8.5792 0-2.8598-0.0126-5.7199-0.0382-8.5797s-0.064-5.7194-0.11524-8.5792c-0.0256-1.3533-0.064-2.7068-0.11524-4.0602-0.0256-1.3789-0.0382-2.7451-0.0382-4.0984l-1e-3 5.16e-4c0-1.3278 0.65268-1.9916 1.9585-1.9916zm-141.91 12.103c-2.6116 0-4.8134 0.79186-6.6057 2.375-1.7666 1.5576-3.1105 3.4981-4.0322 5.8218-0.89612 2.3236-1.3446 4.6469-1.3446 6.9705 0 2.4002 0.48692 4.7748 1.4598 7.124 0.97292 2.3491 2.3936 4.3029 4.2627 5.8605 1.8691 1.532 4.1478 2.298 6.8362 2.298 1.9715 0 3.6743-0.4595 5.1081-1.3787 1.4338-0.94474 2.5987-2.1707 3.4948-3.6772 0.92172-1.532 1.6002-3.1788 2.0355-4.9407 0.43526-1.7618 0.65318-3.4854 0.65318-5.1707 0-2.3491-0.43532-4.6983-1.3058-7.0475-0.84493-2.3491-2.1509-4.3024-3.9175-5.86-1.7411-1.5831-3.956-2.375-6.6444-2.375zm48.544 0.57463c0.0256 2.2981 0.0388 4.596 0.0388 6.894v6.894l5.4921 5.17e-4c1.9203 0 3.4052-0.65158 4.4549-1.9539 1.0498-1.3023 1.5746-2.8596 1.5746-4.6725s-0.51213-3.4597-1.5363-4.9407c-0.99851-1.481-2.4834-2.2215-4.4549-2.2215zm-48.545 2.0706c2.1689 0 3.6257 0.56005 4.8652 1.6872a2.6461 2.6461 0 0 0 0.02945 0.02739c1.4288 1.2597 2.4684 2.798 3.1775 4.7697a2.6461 2.6461 0 0 0 0.0098 0.02532c0.77069 2.0798 1.1405 4.1049 1.1405 6.1272 0 1.4572-0.18796 2.9657-0.57618 4.5371-0.37382 1.5131-0.9486 2.9047-1.7342 4.2105a2.6461 2.6461 0 0 0-0.0057 0.0119c-0.70151 1.1794-1.5691 2.0854-2.6701 2.8127-0.96575 0.61384-2.1102 0.94928-3.6602 0.94928-2.1829 0-3.7652-0.55869-5.152-1.6934-1.5339-1.2811-2.6811-2.8485-3.502-4.8301v-0.0021c-0.85064-2.0546-1.2578-4.0694-1.2578-6.1112 0-1.9793 0.37718-3.9628 1.1637-6.0063 0.78252-1.9676 1.8715-3.5266 3.3165-4.8007a2.6461 2.6461 0 0 0 0.0021-0.0021c1.3145-1.1611 2.7766-1.7125 4.8534-1.7125zm51.207 0.57618h2.9083c1.3089 0 1.7124 0.24287 2.2598 1.0547a2.6461 2.6461 0 0 0 0.0176 0.02532c0.73702 1.0658 1.0661 2.1208 1.0661 3.4354 0 1.3023-0.3147 2.1764-0.98805 3.0117-0.55522 0.68882-1.0728 0.96892-2.3946 0.96892h-2.8458v-4.2482c0-1.4162-0.0136-2.8318-0.0232-4.2477zm16.178 23.584c-0.0239 0.0168-0.0999 0.0932-0.10129 0.094l-0.0863 0.0522c0.0711-0.0414 0.11715-0.10422 0.18758-0.14624z" stroke-linecap="round" stroke-linejoin="round" style="paint-order:stroke fill markers"/>
</svg>
