<svg width="1e3" height="450" version="1.1" viewBox="0 0 264.58 119.06" xmlns="http://www.w3.org/2000/svg">
 <g transform="matrix(.99217 0 0 .98947 -5.5278 -5.5134)" fill="#fff" stroke-linecap="square" stroke-linejoin="round" stroke-width="6.1934">
  <path d="m23.496 72.094q0-2.0129 1.9742-2.0129h34.025q2.0129 0 2.0129 2.0516 0 1.3161-.03871 2.6709t-.07742 2.7096q-.03871.8516-.03871 1.7419.03871.8516-.03871 1.7032-.11613 1.9354-1.9742 1.9354h-20.477q-.65805 0-.65805.61934v7.8192q0 .61934.65805.61934h17.109q1.9742 0 1.9742 1.9742 0 2.2064 0 4.4128.03871 2.2064.03871 4.4128 0 2.0129-2.0129 2.0129h-17.109q-.65805 0-.65805.61935 0 4.4902-.03871 8.9805 0 4.4902 0 8.9805 0 1.9742-1.9742 1.9742h-10.722q-1.9742 0-1.9742-2.0129 0-2.0516.03871-4.1032.07742-2.0903.11613-4.1419.07742-4.3741.11613-8.7095t.03871-8.6708-.03871-8.6708-.11613-8.6708q-.03871-2.0516-.11613-4.1032-.03871-2.0903-.03871-4.1419zm42.967 25.664q0-5.5741 1.9742-10.645 2.0129-5.1096 5.6128-9.0579 3.6386-3.9483 8.516-6.2321 4.8773-2.2838 10.645-2.2838 5.7676 0 10.722 2.2838 4.9548 2.2838 8.6321 6.2709 3.7161 3.987 5.7676 9.0966 2.0903 5.1096 2.0903 10.761 0 5.6128-2.0903 10.684-2.0516 5.0322-5.7289 8.9418-3.6774 3.8709-8.6321 6.116-4.916 2.2064-10.645 2.2064-5.8451 0-10.761-2.2064-4.8773-2.2451-8.516-6.1547-3.5999-3.9483-5.6128-9.0192-1.9742-5.0709-1.9742-10.761zm27.522 15.329q2.9806 0 5.1483-1.3935 2.1677-1.4322 3.5225-3.7161 1.3935-2.3225 2.0516-4.9935.65805-2.6709.65805-5.2257 0-3.5612-1.3161-7.1225-1.2774-3.5612-3.9483-5.9225-2.6322-2.4-6.6967-2.4-3.9483 0-6.6579 2.4-2.6709 2.3612-4.0644 5.8838-1.3548 3.5225-1.3548 7.045 0 3.6386 1.4709 7.1999 1.4709 3.5612 4.2967 5.9225 2.8258 2.3225 6.8902 2.3225zm52.102-43.006q6.6192 0 11.806 1.8967 5.187 1.858 8.1289 6.1547 2.9806 4.258 2.9806 11.535 0 5.4967-2.2064 10.142-2.1677 4.6064-7.0063 7.4321-.4258.27096-.4258.50321 0 .15484.96773 1.5484.96772 1.3548 2.4387 3.2903 1.4709 1.9354 3.0193 3.9483t2.7096 3.5612q1.2 1.5484 1.5484 2.0129.30968.38709.61935.92901.34838.54193.34838 1.0839 0 .85159-.96773 1.0451-.96772.15483-1.5484.15483h-12.077q-.96772 0-1.6645-.8903-.61935-.8516-1.2-1.7806-.54193-.96772-1.1226-1.858-1.7032-2.7096-3.3677-5.458-1.6645-2.787-3.4838-5.458-.19355-.30967-.54193-.30967h-2.0516q-.65805 0-.65805.65805 0 3.2903-.0387 6.5805-.0387 3.2516-.0387 6.5418 0 1.9742-1.9742 1.9742h-10.684q-2.0129 0-2.0129-2.0516t.0774-4.1032q.0774-2.0903.11612-4.1419.0774-4.3354.11613-8.6708.0387-4.3354.0387-8.6708t-.0387-8.6321q-.0387-4.3354-.11613-8.6708-.0387-2.0516-.11612-4.1032-.0774-2.0903-.0774-4.1419t2.0129-2.0516zm1.8193 26.748q2.9032 0 4.4902-1.9742 1.5871-1.9742 1.5871-4.7225t-1.5484-4.9935q-1.5096-2.2451-4.4902-2.2451h-5.6128q.0387 3.4838.0387 6.9676t0 6.9676zm78.734 21.638q0 .89031-.61935 1.4709-1.5096 1.3935-4.0257 2.5161-2.5161 1.0838-5.458 1.858-2.9032.77418-5.6902 1.1613-2.787.4258-4.7999.4258-6.0773 0-11.419-1.6645-5.3418-1.6645-9.445-4.9548-4.0644-3.329-6.387-8.245t-2.3225-11.419q0-14.206 7.7031-22.142 7.7031-7.9353 22.025-7.9353 2.3225 0 5.3418.34838 3.058.30967 5.9999.96772 2.9806.61934 5.0322 1.6258.54193.27096.89031.61934t.34838 1.0064q0 .19354-.38709 1.5484-.38709 1.3161-.92902 3.0193-.50321 1.7032-.96772 3.0967-.4258 1.3935-.54193 1.7419-.23225.61934-.58063 1.0839-.30967.4258-1.0838.4258-.38709 0-1.0838-.23225-5.4193-1.8967-11.187-1.8967-15.561 0-15.561 15.522 0 6.5418 3.4838 10.374 3.5225 3.7935 10.219 3.7935.50321 0 1.9354-.11613 1.4322-.11613 3.058-.34838 1.6645-.27096 2.8258-.69676 1.2-.4258 1.2-1.0451l-.0387-5.1483q0-.61934-.65805-.61934h-8.0128q-1.9742 0-1.9742-1.9742v-5.458q0-1.9742 1.9742-1.9742h18.89q1.9742 0 1.9742 1.9742 0 7.1224.11613 14.206.0387 1.7806.0774 3.5612.0774 1.7419.0774 3.5225zm7.8192-46.373q0-2.0129 1.9742-2.0129h32.903q2.0129 0 2.0129 2.0516 0 1.2387-.0387 2.4774t-.0774 2.4774q-.0387.96772 0 1.9354.0387.92902-.0387 1.8967-.11613 1.9742-2.0129 1.9742h-19.354q-.65806 0-.65806.61934l.0387 7.7031q0 .61934.61935.61934h16.451q2.0129 0 2.0129 2.0129v7.4321q0 2.0129-2.0129 2.0129h-16.451q-.61935 0-.61935.61935l-.0387 7.974q0 .61934.65806.61934h20.245q1.858 0 1.9742 1.9354.11613 2.0903.15484 4.4128.0387 2.3225.0387 4.4128 0 2.0516-2.0129 2.0516h-33.793q-1.9742 0-1.9742-2.0129 0-2.0516.0387-4.1032.0774-2.0903.11613-4.1419.0774-4.3741.11612-8.7095.0387-4.3354.0387-8.6708t-.0387-8.6708-.11612-8.6708q-.0387-2.0516-.11613-4.1032-.0387-2.0903-.0387-4.1419z" style="paint-order:markers fill stroke" aria-label="FORGE"/>
  <path d="m5.5721 9.7125q0-2.0516 2.0129-2.0516h17.767q3.329 0 7.0063.61934 3.6774.61934 6.8515 2.1677 3.2128 1.5097 5.187 4.2193 2.0129 2.7096 2.0129 6.8515 0 3.5612-1.4709 6.387-1.4709 2.787-4.2193 4.9548-.15484.11613-.30967.27096-.15484.11613-.15484.30967 0 .23225.19354.38709.19354.11613.34838.19354 3.6774 2.0903 5.9999 5.0322 2.3612 2.9032 2.3612 7.3934 0 4.7225-1.858 7.8966t-4.9935 5.0709q-3.0967 1.858-6.9676 2.6709-3.8709.81289-7.8966.81289h-19.858q-2.0129 0-2.0129-2.0516t.077418-4.1032q.077418-2.0903.11613-4.1419.077418-4.3354.11613-8.6708.038709-4.3354.038709-8.6708t-.038709-8.6321q-.038709-4.3354-.11613-8.6708-.038709-2.0516-.11613-4.1032-.077418-2.0903-.077418-4.1419zm20.709 19.471q2.0516 0 3.5225-1.3161 1.5097-1.3548 1.5097-3.4451 0-2.1677-1.7419-3.058-1.7419-.89031-3.5612-.89031h-5.6902q.03871 2.1677.03871 4.3741 0 2.1677 0 4.3354zm.15484 21.329q1.4709 0 3.2516-.30967 1.8193-.30967 3.1354-1.2387 1.3161-.96772 1.3161-2.9032 0-2.0903-1.4322-2.9419-1.3935-.8516-3.329-1.0064-1.8967-.15484-3.4064-.15484h-5.6128q0 2.129-.03871 4.258 0 2.129 0 4.2967zm48.309-42.851q6.6192 0 11.806 1.8967 5.187 1.858 8.1289 6.1547 2.9806 4.258 2.9806 11.535 0 5.4967-2.2064 10.142-2.1677 4.6064-7.0063 7.4321-.4258.27096-.4258.50322 0 .15484.96772 1.5484.96772 1.3548 2.4387 3.2903t3.0193 3.9483q1.5484 2.0129 2.7096 3.5612 1.2 1.5484 1.5484 2.0129.30967.38709.61934.92902.34838.54193.34838 1.0839 0 .8516-.96772 1.0451-.96772.15484-1.5484.15484h-12.077q-.96772 0-1.6645-.89031-.61934-.8516-1.2-1.7806-.54193-.96772-1.1226-1.858-1.7032-2.7096-3.3677-5.458-1.6645-2.787-3.4838-5.458-.19354-.30967-.54193-.30967h-2.0516q-.65805 0-.65805.65805 0 3.2903-.03871 6.5805-.03871 3.2516-.03871 6.5418 0 1.9742-1.9742 1.9742h-10.684q-2.0129 0-2.0129-2.0516t.07742-4.1032q.07742-2.0903.11613-4.1419.07742-4.3354.11613-8.6708t.03871-8.6708-.03871-8.6321q-.03871-4.3354-.11613-8.6708-.03871-2.0516-.11613-4.1032-.07742-2.0903-.07742-4.1419t2.0129-2.0516zm1.8193 26.748q2.9032 0 4.4902-1.9742t1.5871-4.7225-1.5484-4.9935q-1.5096-2.2451-4.4902-2.2451h-5.6128q.03871 3.4838.03871 6.9676t0 6.9676zm29.535 28.49q-.65805 0-1.4709-.23225-.77418-.23225-.77418-1.1226 0-.4258.15483-.77418.15484-.38709.30968-.73547 3.5225-7.3934 6.9676-14.787 3.4838-7.3934 6.8515-14.826 2.787-6.116 5.4967-12.271 2.7096-6.1934 5.6515-12.232.19355-.34838.54193-.34838.38709 0 .54192.34838 2.9419 6.0386 5.6515 12.232 2.7096 6.1547 5.4967 12.271 3.4064 7.4708 6.8515 14.864 3.4838 7.3547 7.0063 14.748.19354.34838.30967.73547.15484.34838.15484.77418 0 .89031-.81289 1.1226-.77418.23225-1.4322.23225h-12.503q-.77418 0-1.1613-.30967-.38709-.34838-.69676-1.0064-.73547-1.5871-1.2387-3.2903-.50321-1.7419-1.1613-3.3677-.19354-.4258-.58063-.4258h-15.019q-.34838 0-.54192.30967-.0387.03871-.0387.11613 0 .03871-.0387.11613-.46451 1.1613-.96773 2.3225-.4645 1.1613-.92901 2.3225-.19355.46451-.38709 1.0064-.19355.50322-.4258.96772-.30967.61934-.69676.92902t-1.1226.30967zm19.045-19.354h7.7031q-.89031-2.6322-1.8193-5.2644-.89031-2.6322-1.7806-5.2257-1.0064 2.5935-2.0516 5.2257-1.0064 2.6322-2.0516 5.2644zm86.669 21.058q-.15483 0-1.9354-1.4322-1.7419-1.3935-4.5677-3.7161-2.787-2.3612-6.1934-5.187-3.3677-2.8645-6.8515-5.8063-3.4451-2.9419-6.5031-5.5354-3.0193-2.6322-5.187-4.4515-2.1677-1.858-2.8645-2.4387-.15484-.11613-.30968-.23225-.15483-.15484-.34838-.15484-.27096 0-.34838.34838-.0387.30967-.0387.50322 0 4.4515.0387 8.9418.0387 4.4515.0387 8.9418v6.5418q0 1.9742-1.9742 1.9742h-10.993q-1.9742 0-1.9742-2.0516t.0774-4.1032q.0774-2.0903.11613-4.1032.0774-4.3354.11613-8.6321.0774-4.2967.0774-8.6321 0-9.9095-.23225-19.703-.0387-2.3612-.15484-4.6838-.11612-2.3612-.11612-4.7225 0-.27096.30967-.27096.23225 0 .50322.19354 8.5934 7.0063 16.877 14.4 8.3224 7.3934 16.722 14.671.15484.11613.30968.27096.19354.11613.34838.11613.30967 0 .34838-.34838.0387-.34838.0387-.50322 0-6.3096-.0387-12.58 0-6.2709 0-12.58 0-1.9742 1.9742-1.9742h10.839q1.9742 0 1.9742 2.0516t-.0774 4.1419q-.0774 2.0516-.11612 4.1032-.0774 4.3354-.15484 8.6321-.0387 4.2967-.0387 8.6321 0 9.9095.23225 19.78.0774 2.3612.15484 4.7225.11613 2.3225.11613 4.6838 0 .19354-.19355.19354zm10.955-1.7032q-1.9742 0-1.9742-2.0516 0-2.0129.0774-3.987.0774-2.0129.11613-4.0257.0774-4.3741.11613-8.7482.0387-4.4128.0387-8.8256 0-4.3741-.0387-8.7482-.0387-4.4128-.11613-8.7869-.0387-2.0129-.11613-3.987-.0774-2.0129-.0774-4.0257 0-2.0516 1.9742-2.0516h16.296q9.1353 0 16.103 3.2128 7.0063 3.2128 10.955 9.6385 3.9483 6.387 3.9483 15.948 0 8.2063-3.7548 14.167-3.7548 5.9225-10.18 9.0966-6.387 3.1741-14.322 3.1741zm12.774-12.813h4.0257q7.2773 0 11.38-3.4838 4.1419-3.4838 4.1419-11.032 0-4.258-1.1613-7.7031-1.1613-3.4838-3.9483-5.4967-2.7483-2.0516-7.5095-2.0516h-6.9289q.11613 14.864 0 29.767z" style="paint-order:markers fill stroke" aria-label="BRAND"/>
 </g>
</svg>
