<?xml version="1.0" encoding="UTF-8" standalone="no"?>
<svg
   width="1050"
   height="496.91"
   version="1.1"
   viewBox="0 0 277.81 131.47"
   id="svg6"
   sodipodi:docname="logo.svg"
   inkscape:version="1.4 (e7c3feb100, 2024-10-09)"
   xmlns:inkscape="http://www.inkscape.org/namespaces/inkscape"
   xmlns:sodipodi="http://sodipodi.sourceforge.net/DTD/sodipodi-0.dtd"
   xmlns="http://www.w3.org/2000/svg"
   xmlns:svg="http://www.w3.org/2000/svg">
  <defs
     id="defs6" />
  <sodipodi:namedview
     id="namedview6"
     pagecolor="#505050"
     bordercolor="#ffffff"
     borderopacity="1"
     inkscape:showpageshadow="0"
     inkscape:pageopacity="0"
     inkscape:pagecheckerboard="1"
     inkscape:deskcolor="#505050"
     inkscape:zoom="1.1863918"
     inkscape:cx="616.15395"
     inkscape:cy="479.18402"
     inkscape:window-width="2560"
     inkscape:window-height="1564"
     inkscape:window-x="0"
     inkscape:window-y="0"
     inkscape:window-maximized="1"
     inkscape:current-layer="svg6" />
  <g
     id="g7"
     inkscape:label="BRAND"
     sodipodi:insensitive="true">
    <path
       d="m 2.5034e-6,4.1404 q 0,-2.0516 2.0128999966,-2.0516 H 19.779903 q 3.329,0 7.0063,0.61934 3.6773,0.61934 6.8515,2.1677 3.2128,1.5097 5.187,4.2193 2.0129,2.7096 2.0129,6.8515 0,3.5612 -1.4709,6.387 -1.4709,2.787 -4.2193,4.9548 -0.15484,0.11613 -0.30967,0.27096 -0.15484,0.11613 -0.15484,0.30967 0,0.23225 0.19354,0.38709 0.19354,0.11613 0.34838,0.19354 3.6774,2.0903 5.9999,5.0322 2.3612,2.9032 2.3612,7.3934 0,4.7225 -1.858,7.8966 -1.858,3.1741 -4.9935,5.0709 -3.0967,1.858 -6.9676,2.6709 -3.8709,0.81289 -7.8966,0.81289 H 2.0122125 q -2.0128999966,0 -2.0128999966,-2.0516 0,-2.0516 0.0774179966,-4.1032 0.077418,-2.0903 0.11613,-4.1419 0.077418,-4.3354 0.11613,-8.6708 0.038709,-4.3354 0.038709,-8.6708 0,-4.3354 -0.038709,-8.6321 -0.038709,-4.3354 -0.11613,-8.6708 -0.038709,-2.0516 -0.11613,-4.1032 Q -6.874966e-4,6.19189 -6.874966e-4,4.14029 Z M 20.709003,23.6114 q 2.0516,0 3.5225,-1.3161 1.5096,-1.3548 1.5096,-3.4451 0,-2.1677 -1.7419,-3.058 -1.7419,-0.89031 -3.5612,-0.89031 h -5.6902 q 0.03871,2.1677 0.03871,4.3741 0,2.1677 0,4.3354 z m 0.15484,21.329 q 1.4709,0 3.2516,-0.30967 1.8193,-0.30967 3.1354,-1.2387 1.3161,-0.96772 1.3161,-2.9032 0,-2.0903 -1.4322,-2.9419 -1.3935,-0.8516 -3.329,-1.0064 -1.8967,-0.15484 -3.4064,-0.15484 h -5.6128 q 0,2.129 -0.03871,4.258 0,2.129 0,4.2967 z m 48.309,-42.851 q 6.6192,0 11.806,1.8967 5.187,1.858 8.1289,6.1547 2.9806,4.258 2.9806,11.535 0,5.4967 -2.2064,10.142 -2.1677,4.6064 -7.0063,7.4321 -0.4258,0.27096 -0.4258,0.50322 0,0.15484 0.96772,1.5484 0.96772,1.3548 2.4387,3.2903 1.4709,1.9354 3.0193,3.9483 1.5484,2.0129 2.7096,3.5612 1.2,1.5484 1.5484,2.0129 0.30967,0.38709 0.61934,0.92902 0.34838,0.54193 0.34838,1.0839 0,0.8516 -0.96772,1.0451 -0.96772,0.15484 -1.5484,0.15484 h -12.077 q -0.96772,0 -1.6645,-0.89031 -0.61934,-0.8516 -1.2,-1.7806 -0.54192,-0.96772 -1.1226,-1.858 -1.7032,-2.7096 -3.3677,-5.458 -1.6645,-2.787 -3.4838,-5.458 -0.19354,-0.30967 -0.54192,-0.30967 h -2.0516 q -0.65805,0 -0.65805,0.65805 0,3.2903 -0.03871,6.5805 -0.03871,3.2516 -0.03871,6.5418 0,1.9742 -1.9742,1.9742 h -10.684 q -2.0129,0 -2.0129,-2.0516 0,-2.0516 0.07742,-4.1032 0.07742,-2.0903 0.11613,-4.1419 0.07742,-4.3354 0.11613,-8.6708 0.03871,-4.3354 0.03871,-8.6708 0,-4.3354 -0.03871,-8.6321 -0.03871,-4.3354 -0.11613,-8.6708 -0.03871,-2.0516 -0.11613,-4.1032 -0.07742,-2.0903 -0.07742,-4.1419 0,-2.0516 2.0129,-2.0516 z m 1.8193,26.748 q 2.9032,0 4.4902,-1.9742 1.5871,-1.9742 1.5871,-4.7225 0,-2.7483 -1.5484,-4.9935 -1.5096,-2.2451 -4.4902,-2.2451 h -5.6128 q 0.03871,3.4838 0.03871,6.9676 0,3.4838 0,6.9676 z m 29.534997,28.49 q -0.658057,0 -1.470897,-0.23225 -0.77418,-0.23225 -0.77418,-1.1226 0,-0.4258 0.15484,-0.77418 0.15484,-0.38709 0.30967,-0.73547 3.522497,-7.3934 6.967597,-14.787 3.4838,-7.3934 6.8515,-14.826 2.787,-6.116 5.4967,-12.271 2.7096,-6.1934 5.6515,-12.232 0.19354,-0.34838 0.54192,-0.34838 0.38709,0 0.54193,0.34838 2.9419,6.0386 5.6515,12.232 2.7096,6.1547 5.4967,12.271 3.4064,7.4708 6.8515,14.864 3.4838,7.3547 7.0063,14.748 0.19355,0.34838 0.30968,0.73547 0.15483,0.34838 0.15483,0.77418 0,0.89031 -0.81289,1.1226 -0.77418,0.23225 -1.4322,0.23225 h -12.503 q -0.77418,0 -1.1613,-0.30967 -0.38709,-0.34838 -0.69676,-1.0064 -0.73547,-1.5871 -1.2387,-3.2903 -0.50322,-1.7419 -1.1613,-3.3677 -0.19354,-0.4258 -0.58063,-0.4258 h -15.019 q -0.34838,0 -0.54193,0.30967 -0.0387,0.03871 -0.0387,0.11613 0,0.03871 -0.0387,0.11613 -0.46451,1.1613 -0.96773,2.3225 -0.46451,1.1613 -0.92901,2.3225 -0.19355,0.46451 -0.38709,1.0064 -0.19355,0.50322 -0.4258,0.96772 -0.30967,0.61934 -0.69676,0.92902 -0.38709,0.30968 -1.1226,0.30967 z m 19.045,-19.354 h 7.7031 q -0.89031,-2.6322 -1.8193,-5.2644 -0.8903,-2.6322 -1.7806,-5.2257 -1.0064,2.5935 -2.0516,5.2257 -1.0064,2.6322 -2.0516,5.2644 z m 86.669,21.058 q -0.15484,0 -1.9354,-1.4322 -1.7419,-1.3935 -4.5677,-3.7161 -2.787,-2.3612 -6.1934,-5.187 -3.3677,-2.8645 -6.8515,-5.8063 -3.4451,-2.9419 -6.5031,-5.5354 -3.0193,-2.6322 -5.187,-4.4515 -2.1677,-1.858 -2.8645,-2.4387 -0.15483,-0.11613 -0.30967,-0.23225 -0.15483,-0.15484 -0.34838,-0.15484 -0.27096,0 -0.34838,0.34838 -0.0387,0.30967 -0.0387,0.50322 0,4.4515 0.0387,8.9418 0.0387,4.4515 0.0387,8.9418 v 6.5418 q 0,1.9742 -1.9742,1.9742 h -10.993 q -1.9742,0 -1.9742,-2.0516 0,-2.0516 0.0774,-4.1032 0.0774,-2.0903 0.11613,-4.1032 0.0774,-4.3354 0.11613,-8.6321 0.0774,-4.2967 0.0774,-8.6321 0,-9.9095 -0.23225,-19.703 -0.0387,-2.3612 -0.15484,-4.6838 -0.11613,-2.3612 -0.11613,-4.7225 0,-0.27096 0.30968,-0.27096 0.23225,0 0.50321,0.19354 8.5934,7.0063 16.877,14.4 8.3224,7.3934 16.722,14.671 0.15484,0.11613 0.30967,0.27096 0.19355,0.11613 0.34838,0.11613 0.30968,0 0.34839,-0.34838 0.0387,-0.34838 0.0387,-0.50322 0,-6.3096 -0.0387,-12.58 0,-6.2709 0,-12.58 0,-1.9742 1.9742,-1.9742 h 10.839 q 1.9742,0 1.9742,2.0516 0,2.0516 -0.0774,4.1419 -0.0774,2.0516 -0.11613,4.1032 -0.0774,4.3354 -0.15483,8.6321 -0.0387,4.2967 -0.0387,8.6321 0,9.9095 0.23225,19.78 0.0774,2.3612 0.15484,4.7225 0.11612,2.3225 0.11612,4.6838 0,0.19354 -0.19354,0.19354 z m 10.955,-1.7032 q -1.9742,0 -1.9742,-2.0516 0,-2.0129 0.0774,-3.987 0.0774,-2.0129 0.11613,-4.0257 0.0774,-4.3741 0.11613,-8.7482 0.0387,-4.4128 0.0387,-8.8256 0,-4.3741 -0.0387,-8.7482 -0.0387,-4.4128 -0.11613,-8.7869 -0.0387,-2.0129 -0.11613,-3.987 -0.0774,-2.0129 -0.0774,-4.0257 0,-2.0516 1.9742,-2.0516 h 16.296 q 9.1353,0 16.103,3.2128 7.0063,3.2128 10.955,9.6385 3.9483,6.387 3.9483,15.948 0,8.2063 -3.7548,14.167 -3.7548,5.9225 -10.18,9.0966 -6.387,3.1741 -14.322,3.1741 z m 12.774,-12.813 h 4.0257 q 7.2773,0 11.38,-3.4838 4.1419,-3.4838 4.1419,-11.032 0,-4.258 -1.1613,-7.7031 -1.1613,-3.4838 -3.9483,-5.4967 -2.7483,-2.0516 -7.5095,-2.0516 h -6.9289 q 0.11612,14.864 0,29.767 z"
       fill="#FF0000"
       style="paint-order:markers fill stroke"
       aria-label="BRAND"
       id="path1"
       inkscape:label="red" />
    <path
       d="m 11.144,15.285 q 0,-2.0516 2.0129,-2.0516 h 17.767 q 3.329,0 7.0063,0.61934 3.6774,0.61934 6.8515,2.1677 3.2128,1.5097 5.187,4.2193 2.0129,2.7096 2.0129,6.8515 0,3.5612 -1.4709,6.387 -1.4709,2.787 -4.2193,4.9548 -0.15484,0.11613 -0.30967,0.27096 -0.15484,0.11613 -0.15484,0.30967 0,0.23225 0.19354,0.38709 0.19354,0.11613 0.34838,0.19354 3.6774,2.0903 5.9999,5.0322 2.3612,2.9032 2.3612,7.3934 0,4.7225 -1.858,7.8966 -1.858,3.1741 -4.9935,5.0709 -3.0967,1.858 -6.9676,2.6709 -3.8709,0.81289 -7.8966,0.81289 h -19.858 q -2.0129,0 -2.0129,-2.0516 0,-2.0516 0.077418,-4.1032 0.077418,-2.0903 0.11613,-4.1419 0.077418,-4.3354 0.11613,-8.6708 0.038709,-4.3354 0.038709,-8.6708 0,-4.3354 -0.038709,-8.6321 -0.038709,-4.3354 -0.11613,-8.6708 -0.038709,-2.0516 -0.11613,-4.1032 -0.07742,-2.0903 -0.07742,-4.1419 z m 20.709,19.471 q 2.0516,0 3.5225,-1.3161 1.5097,-1.3548 1.5097,-3.4451 0,-2.1677 -1.7419,-3.058 -1.7419,-0.89031 -3.5612,-0.89031 h -5.6902 q 0.03871,2.1677 0.03871,4.3741 0,2.1677 0,4.3354 z m 0.15484,21.329 q 1.4709,0 3.2516,-0.30967 1.8193,-0.30967 3.1354,-1.2387 1.3161,-0.96772 1.3161,-2.9032 0,-2.0903 -1.4322,-2.9419 -1.3935,-0.8516 -3.329,-1.0064 -1.8967,-0.15484 -3.4064,-0.15484 h -5.6128 q 0,2.129 -0.03871,4.258 0,2.129 0,4.2967 z m 48.309,-42.851 q 6.6192,0 11.806,1.8967 5.187,1.858 8.1289,6.1547 2.9806,4.258 2.9806,11.535 0,5.4967 -2.2064,10.142 -2.1677,4.6064 -7.0063,7.4321 -0.4258,0.27096 -0.4258,0.50322 0,0.15484 0.96772,1.5484 0.96772,1.3548 2.4387,3.2903 1.47098,1.9355 3.0193,3.9483 1.5484,2.0129 2.7096,3.5612 1.2,1.5484 1.5484,2.0129 0.30967,0.38709 0.61935,0.92902 0.34838,0.54192 0.34838,1.0839 0,0.8516 -0.96773,1.0451 -0.96772,0.15484 -1.5484,0.15484 h -12.077 q -0.96772,0 -1.6645,-0.89031 -0.61934,-0.8516 -1.2,-1.7806 -0.54193,-0.96772 -1.1226,-1.858 -1.7032,-2.7096 -3.3677,-5.458 -1.6645,-2.787 -3.4838,-5.458 -0.19354,-0.30967 -0.54193,-0.30967 h -2.0516 q -0.65805,0 -0.65805,0.65805 0,3.2903 -0.03871,6.5805 -0.03871,3.2516 -0.03871,6.5418 0,1.9742 -1.9742,1.9742 h -10.684 q -2.0129,0 -2.0129,-2.0516 0,-2.0516 0.07742,-4.1032 0.07742,-2.0903 0.11613,-4.1419 0.07742,-4.3354 0.11613,-8.6708 0.03871,-4.3354 0.03871,-8.6708 0,-4.3354 -0.03871,-8.6321 -0.03871,-4.3354 -0.11613,-8.6708 -0.03871,-2.0516 -0.11613,-4.1032 -0.07742,-2.0903 -0.07742,-4.1419 0,-2.0516 2.0129,-2.0516 z m 1.8193,26.748 q 2.9032,0 4.4902,-1.9742 1.587,-1.9742 1.5871,-4.7225 10e-5,-2.7483 -1.5484,-4.9935 -1.5096,-2.2451 -4.4902,-2.2451 h -5.6128 q 0.03871,3.4838 0.03871,6.9676 0,3.4838 0,6.9676 z m 29.535,28.49 q -0.65805,0 -1.4709,-0.23225 -0.77418,-0.23225 -0.77418,-1.1226 0,-0.4258 0.15483,-0.77418 0.15484,-0.38709 0.30968,-0.73547 3.5225,-7.3934 6.9676,-14.787 3.4838,-7.3934 6.8515,-14.826 2.787,-6.116 5.4967,-12.271 2.7096,-6.1934 5.6515,-12.232 0.19355,-0.34838 0.54193,-0.34838 0.38709,0 0.54192,0.34838 2.9419,6.0386 5.6515,12.232 2.7096,6.1547 5.4967,12.271 3.4064,7.4708 6.8515,14.864 3.4838,7.3547 7.0063,14.748 0.19354,0.34838 0.30967,0.73547 0.15484,0.34838 0.15484,0.77418 0,0.89031 -0.81289,1.1226 -0.77418,0.23225 -1.4322,0.23225 h -12.503 q -0.77418,0 -1.1613,-0.30967 -0.38709,-0.34838 -0.69676,-1.0064 -0.73547,-1.5871 -1.2387,-3.2903 -0.50321,-1.7419 -1.1613,-3.3677 -0.19354,-0.4258 -0.58063,-0.4258 h -15.019 q -0.34838,0 -0.54192,0.30967 -0.0387,0.03871 -0.0387,0.11613 0,0.03871 -0.0387,0.11613 -0.46451,1.1613 -0.96773,2.3225 -0.4645,1.1613 -0.92901,2.3225 -0.19355,0.46451 -0.38709,1.0064 -0.19355,0.50322 -0.4258,0.96772 -0.30967,0.61934 -0.69676,0.92902 -0.38709,0.30968 -1.1226,0.30967 z m 19.045,-19.354 h 7.7031 q -0.89031,-2.6322 -1.8193,-5.2644 -0.89031,-2.6322 -1.7806,-5.2257 -1.0064,2.5935 -2.0516,5.2257 -1.0064,2.6322 -2.0516,5.2644 z m 86.669,21.058 q -0.15483,0 -1.9354,-1.4322 -1.7419,-1.3935 -4.5677,-3.7161 -2.787,-2.3612 -6.1934,-5.187 -3.3677,-2.8645 -6.8515,-5.8063 -3.4451,-2.9419 -6.5031,-5.5354 -3.0193,-2.6322 -5.187,-4.4515 -2.1677,-1.858 -2.8645,-2.4387 -0.15484,-0.11613 -0.30968,-0.23225 -0.15483,-0.15484 -0.34838,-0.15484 -0.27096,0 -0.34838,0.34838 -0.0387,0.30967 -0.0387,0.50322 0,4.4515 0.0387,8.9418 0.0387,4.4515 0.0387,8.9418 v 6.5418 q 0,1.9742 -1.9742,1.9742 h -10.993 q -1.9742,0 -1.9742,-2.0516 0,-2.0516 0.0774,-4.1032 0.0774,-2.0903 0.11613,-4.1032 0.0774,-4.3354 0.11613,-8.6321 0.0774,-4.2967 0.0774,-8.6321 0,-9.9095 -0.23225,-19.703 -0.0387,-2.3612 -0.15484,-4.6838 -0.11613,-2.3612 -0.11613,-4.7225 0,-0.27096 0.30968,-0.27096 0.23225,0 0.50321,0.19354 8.5934,7.0063 16.877,14.4 8.3224,7.3934 16.722,14.671 0.15484,0.11613 0.30967,0.27096 0.19355,0.11613 0.34838,0.11613 0.30968,0 0.34839,-0.34838 0.0387,-0.34838 0.0387,-0.50322 0,-6.3096 -0.0387,-12.58 0,-6.2709 0,-12.58 0,-1.9742 1.9742,-1.9742 h 10.839 q 1.9742,0 1.9742,2.0516 0,2.0516 -0.0774,4.1419 -0.0774,2.0516 -0.11613,4.1032 -0.0774,4.3354 -0.15483,8.6321 -0.0387,4.2967 -0.0387,8.6321 0,9.9095 0.23225,19.78 0.0774,2.3612 0.15484,4.7225 0.11612,2.3225 0.11612,4.6838 0,0.19354 -0.19354,0.19354 z m 10.955,-1.7032 q -1.9742,0 -1.9742,-2.0516 0,-2.0129 0.0774,-3.987 0.0774,-2.0129 0.11613,-4.0257 0.0774,-4.3741 0.11613,-8.7482 0.0387,-4.4128 0.0387,-8.8256 0,-4.3741 -0.0387,-8.7482 -0.0387,-4.4128 -0.11613,-8.7869 -0.0387,-2.0129 -0.11613,-3.987 -0.0774,-2.0129 -0.0774,-4.0257 0,-2.0516 1.9742,-2.0516 h 16.296 q 9.1353,0 16.103,3.2128 7.0063,3.2128 10.955,9.6385 3.9483,6.387 3.9483,15.948 0,8.2063 -3.7548,14.167 -3.7548,5.9225 -10.18,9.0966 -6.387,3.1741 -14.322,3.1741 z m 12.774,-12.813 h 4.0257 q 7.2773,0 11.38,-3.4838 4.1419,-3.4838 4.1419,-11.032 0,-4.258 -1.1613,-7.7031 -1.1613,-3.4838 -3.9483,-5.4967 -2.7483,-2.0516 -7.5095,-2.0516 h -6.9289 q 0.11612,14.864 0,29.767 z"
       fill="#0000FF"
       style="paint-order:markers fill stroke"
       aria-label="BRAND"
       id="path2"
       inkscape:label="blue" />
    <path
       d="m 5.5721,9.7125 q 0,-2.0516 2.0129,-2.0516 h 17.767 q 3.329,0 7.0063,0.61934 3.6774,0.61934 6.8515,2.1677 3.2128,1.5097 5.187,4.2193 2.0129,2.7096 2.0129,6.8515 0,3.5612 -1.4709,6.387 -1.4709,2.787 -4.2193,4.9548 -0.15484,0.11613 -0.30967,0.27096 -0.15484,0.11613 -0.15484,0.30967 0,0.23225 0.19354,0.38709 0.19354,0.11613 0.34838,0.19354 3.6774,2.0903 5.9999,5.0322 2.3612,2.9032 2.3612,7.3934 0,4.7225 -1.858,7.8966 -1.858,3.1741 -4.9935,5.0709 -3.0967,1.858 -6.9676,2.6709 -3.8709,0.81289 -7.8966,0.81289 h -19.858 q -2.0129,0 -2.0129,-2.0516 0,-2.0516 0.077418,-4.1032 0.077418,-2.0903 0.11613,-4.1419 0.077418,-4.3354 0.11613,-8.6708 0.038709,-4.3354 0.038709,-8.6708 0,-4.3354 -0.038709,-8.6321 -0.038709,-4.3354 -0.11613,-8.6708 -0.038709,-2.0516 -0.11613,-4.1032 Q 5.57141,11.76399 5.57141,9.71239 Z m 20.709,19.471 q 2.0516,0 3.5225,-1.3161 1.5097,-1.3548 1.5097,-3.4451 0,-2.1677 -1.7419,-3.058 -1.7419,-0.89031 -3.5612,-0.89031 H 20.32 q 0.03871,2.1677 0.03871,4.3741 0,2.1677 0,4.3354 z m 0.15484,21.329 q 1.4709,0 3.2516,-0.30967 1.8193,-0.30967 3.1354,-1.2387 1.3161,-0.96772 1.3161,-2.9032 0,-2.0903 -1.4322,-2.9419 -1.3935,-0.8516 -3.329,-1.0064 -1.8967,-0.15484 -3.4064,-0.15484 h -5.6128 q 0,2.129 -0.03871,4.258 0,2.129 0,4.2967 z m 48.309,-42.851 q 6.6192,0 11.806,1.8967 5.187,1.858 8.1289,6.1547 2.9806,4.258 2.9806,11.535 0,5.4967 -2.2064,10.142 -2.1677,4.6064 -7.0063,7.4321 -0.4258,0.27096 -0.4258,0.50322 0,0.15484 0.96772,1.5484 0.96772,1.3548 2.4387,3.2903 1.47098,1.9355 3.0193,3.9483 1.5484,2.0129 2.7096,3.5612 1.2,1.5484 1.5484,2.0129 0.30967,0.38709 0.61935,0.92902 0.34838,0.54192 0.34838,1.0839 0,0.8516 -0.96773,1.0451 -0.96772,0.15484 -1.5484,0.15484 h -12.077 q -0.96772,0 -1.6645,-0.89031 -0.61934,-0.8516 -1.2,-1.7806 -0.54193,-0.96772 -1.1226,-1.858 -1.7032,-2.7096 -3.3677,-5.458 -1.6645,-2.787 -3.4838,-5.458 -0.19354,-0.30967 -0.54193,-0.30967 h -2.0516 q -0.65805,0 -0.65805,0.65805 0,3.2903 -0.03871,6.5805 -0.03871,3.2516 -0.03871,6.5418 0,1.9742 -1.9742,1.9742 h -10.684 q -2.0129,0 -2.0129,-2.0516 0,-2.0516 0.07742,-4.1032 0.07742,-2.0903 0.11613,-4.1419 0.07742,-4.3354 0.11613,-8.6708 0.03871,-4.3354 0.03871,-8.6708 0,-4.3354 -0.03871,-8.6321 -0.03871,-4.3354 -0.11613,-8.6708 -0.03871,-2.0516 -0.11613,-4.1032 -0.07742,-2.0903 -0.07742,-4.1419 0,-2.0516 2.0129,-2.0516 z m 1.8193,26.748 q 2.9032,0 4.4902,-1.9742 1.587,-1.9742 1.5871,-4.7225 10e-5,-2.7483 -1.5484,-4.9935 -1.5096,-2.2451 -4.4902,-2.2451 h -5.6128 q 0.03871,3.4838 0.03871,6.9676 0,3.4838 0,6.9676 z m 29.535,28.49 q -0.65805,0 -1.4709,-0.23225 -0.77418,-0.23225 -0.77418,-1.1226 0,-0.4258 0.15483,-0.77418 0.15484,-0.38709 0.30968,-0.73547 3.5225,-7.3934 6.9676,-14.787 3.4838,-7.3934 6.8515,-14.826 2.787,-6.116 5.4967,-12.271 2.7096,-6.1934 5.6515,-12.232 0.19355,-0.34838 0.54193,-0.34838 0.38709,0 0.54192,0.34838 2.9419,6.0386 5.6515,12.232 2.7096,6.1547 5.4967,12.271 3.4064,7.4708 6.8515,14.864 3.4838,7.3547 7.0063,14.748 0.19354,0.34838 0.30967,0.73547 0.15484,0.34838 0.15484,0.77418 0,0.89031 -0.81289,1.1226 -0.77418,0.23225 -1.4322,0.23225 h -12.503 q -0.77418,0 -1.1613,-0.30967 -0.38709,-0.34838 -0.69676,-1.0064 -0.73547,-1.5871 -1.2387,-3.2903 -0.50321,-1.7419 -1.1613,-3.3677 -0.19354,-0.4258 -0.58063,-0.4258 h -15.019 q -0.34838,0 -0.54192,0.30967 -0.0387,0.03871 -0.0387,0.11613 0,0.03871 -0.0387,0.11613 -0.46451,1.1613 -0.96773,2.3225 -0.4645,1.1613 -0.92901,2.3225 -0.19355,0.46451 -0.38709,1.0064 -0.19355,0.50322 -0.4258,0.96772 -0.30967,0.61934 -0.69676,0.92902 -0.38709,0.30968 -1.1226,0.30967 z m 19.045,-19.354 h 7.7031 q -0.89031,-2.6322 -1.8193,-5.2644 -0.89031,-2.6322 -1.7806,-5.2257 -1.0064,2.5935 -2.0516,5.2257 -1.0064,2.6322 -2.0516,5.2644 z m 86.669,21.058 q -0.15483,0 -1.9354,-1.4322 -1.7419,-1.3935 -4.5677,-3.7161 -2.787,-2.3612 -6.1934,-5.187 -3.3677,-2.8645 -6.8515,-5.8063 -3.4451,-2.9419 -6.5031,-5.5354 -3.0193,-2.6322 -5.187,-4.4515 -2.1677,-1.858 -2.8645,-2.4387 -0.15484,-0.11613 -0.30968,-0.23225 -0.15483,-0.15484 -0.34838,-0.15484 -0.27096,0 -0.34838,0.34838 -0.0387,0.30967 -0.0387,0.50322 0,4.4515 0.0387,8.9418 0.0387,4.4515 0.0387,8.9418 v 6.5418 q 0,1.9742 -1.9742,1.9742 h -10.993 q -1.9742,0 -1.9742,-2.0516 0,-2.0516 0.0774,-4.1032 0.0774,-2.0903 0.11613,-4.1032 0.0774,-4.3354 0.11613,-8.6321 0.0774,-4.2967 0.0774,-8.6321 0,-9.9095 -0.23225,-19.703 -0.0387,-2.3612 -0.15484,-4.6838 -0.11612,-2.3612 -0.11612,-4.7225 0,-0.27096 0.30967,-0.27096 0.23225,0 0.50322,0.19354 8.5934,7.0063 16.877,14.4 8.3224,7.3934 16.722,14.671 0.15484,0.11613 0.30968,0.27096 0.19354,0.11613 0.34838,0.11613 0.30967,0 0.34838,-0.34838 0.0387,-0.34838 0.0387,-0.50322 0,-6.3096 -0.0387,-12.58 0,-6.2709 0,-12.58 0,-1.9742 1.9742,-1.9742 h 10.839 q 1.9742,0 1.9742,2.0516 0,2.0516 -0.0774,4.1419 -0.0774,2.0516 -0.11613,4.1032 -0.0774,4.3354 -0.15483,8.6321 -0.0387,4.2967 -0.0387,8.6321 0,9.9095 0.23225,19.78 0.0774,2.3612 0.15484,4.7225 0.11613,2.3225 0.11613,4.6838 0,0.19354 -0.19355,0.19354 z m 10.955,-1.7032 q -1.9742,0 -1.9742,-2.0516 0,-2.0129 0.0774,-3.987 0.0774,-2.0129 0.11613,-4.0257 0.0774,-4.3741 0.11613,-8.7482 0.0387,-4.4128 0.0387,-8.8256 0,-4.3741 -0.0387,-8.7482 -0.0387,-4.4128 -0.11613,-8.7869 -0.0387,-2.0129 -0.11613,-3.987 -0.0774,-2.0129 -0.0774,-4.0257 0,-2.0516 1.9742,-2.0516 h 16.296 q 9.1353,0 16.103,3.2128 7.0063,3.2128 10.955,9.6385 3.9483,6.387 3.9483,15.948 0,8.2063 -3.7548,14.167 -3.7548,5.9225 -10.18,9.0966 -6.387,3.1741 -14.322,3.1741 z m 12.774,-12.813 h 4.0257 q 7.2773,0 11.38,-3.4838 4.1419,-3.4838 4.1419,-11.032 0,-4.258 -1.1613,-7.7031 -1.1613,-3.4838 -3.9483,-5.4967 -2.7483,-2.0516 -7.5095,-2.0516 h -6.9289 q 0.11613,14.864 0,29.767 z"
       fill="#ffffff"
       style="paint-order:markers fill stroke"
       aria-label="BRAND"
       id="path3"
       inkscape:label="white" />
  </g>
  <g
     stroke-linecap="square"
     stroke-linejoin="round"
     stroke-width="6.1934"
     id="g6"
     inkscape:label="FORGE"
     sodipodi:insensitive="true">
    <path
       d="m 17.924,66.522 q 0,-2.0129 1.9742,-2.0129 h 34.025 q 2.0129,0 2.0129,2.0516 0,1.3161 -0.03871,2.6709 -0.03871,1.3548 -0.07742,2.7096 -0.03871,0.8516 -0.03871,1.7419 0.03871,0.8516 -0.03871,1.7032 -0.11613,1.9354 -1.9742,1.9354 h -20.477 q -0.65805,0 -0.65805,0.61934 v 7.8192 q 0,0.61934 0.65805,0.61934 h 17.109 q 1.9742,0 1.9742,1.9742 0,2.2064 0,4.4128 0.03871,2.2064 0.03871,4.4128 0,2.0129 -2.0129,2.0129 h -17.109 q -0.65805,0 -0.65805,0.61934 0,4.4902 -0.03871,8.9805 0,4.4902 0,8.9805 0,1.9742 -1.9742,1.9742 h -10.722 q -1.9742,0 -1.9742,-2.0129 0,-2.0516 0.03871,-4.1032 0.07742,-2.0903 0.11613,-4.1419 0.07742,-4.3741 0.11613,-8.7095 0.03871,-4.3354 0.03871,-8.6708 0,-4.3354 -0.03871,-8.6708 -0.03871,-4.3354 -0.11613,-8.6708 -0.03871,-2.0516 -0.11613,-4.1032 -0.03871,-2.0903 -0.03871,-4.1419 z m 42.967,25.664 q 0,-5.5741 1.9742,-10.645 2.0129,-5.1096 5.6128,-9.0579 3.6386,-3.9483 8.516,-6.2321 4.8774,-2.2838 10.645,-2.2838 5.7676,0 10.722,2.2838 4.9547,2.2838 8.6321,6.2709 3.7161,3.987 5.7676,9.0966 2.0903,5.1096 2.0903,10.761 0,5.6128 -2.0903,10.684 -2.0516,5.0322 -5.7289,8.9418 -3.6774,3.8709 -8.6321,6.116 -4.916,2.2064 -10.645,2.2064 -5.8451,0 -10.761,-2.2064 -4.8773,-2.2451 -8.516,-6.1547 -3.5999,-3.9483 -5.6128,-9.0192 -1.9742,-5.0709 -1.9742,-10.761 z m 27.522,15.329 q 2.9806,0 5.1483,-1.3935 2.1677,-1.4322 3.5225,-3.7161 1.3935,-2.3225 2.0516,-4.9935 0.65805,-2.6709 0.65805,-5.2257 0,-3.5612 -1.3161,-7.1225 -1.2774,-3.5612 -3.9483,-5.9225 -2.6322,-2.4 -6.6967,-2.4 -3.9483,0 -6.6579,2.4 -2.6709,2.3612 -4.0644,5.8838 -1.3548,3.5225 -1.3548,7.045 0,3.6386 1.4709,7.1999 1.4709,3.5612 4.2967,5.9225 2.8258,2.3225 6.8902,2.3225 z m 52.102,-43.006 q 6.6192,0 11.806,1.8967 5.187,1.858 8.1289,6.1547 2.9806,4.258 2.9806,11.535 0,5.4967 -2.2064,10.142 -2.1677,4.6064 -7.0063,7.4321 -0.4258,0.27097 -0.4258,0.50322 0,0.15484 0.96773,1.5484 0.96772,1.3548 2.4387,3.2903 1.47098,1.9355 3.0193,3.9483 1.54832,2.0128 2.7096,3.5612 1.2,1.5484 1.5484,2.0129 0.30967,0.38709 0.61934,0.92902 0.34839,0.54193 0.34839,1.0838 0,0.8516 -0.96773,1.0451 -0.96772,0.15484 -1.5484,0.15484 h -12.077 q -0.96773,0 -1.6645,-0.89031 -0.61934,-0.85159 -1.2,-1.7806 -0.54192,-0.96772 -1.1226,-1.858 -1.7032,-2.7096 -3.3677,-5.458 -1.6645,-2.787 -3.4838,-5.458 -0.19354,-0.30968 -0.54192,-0.30968 h -2.0516 q -0.65805,0 -0.65805,0.65806 0,3.2903 -0.0387,6.5805 -0.0387,3.2516 -0.0387,6.5418 0,1.9742 -1.9742,1.9742 h -10.684 q -2.0129,0 -2.0129,-2.0516 0,-2.0516 0.0774,-4.1032 0.0774,-2.0903 0.11613,-4.1419 0.0774,-4.3354 0.11613,-8.6708 0.0387,-4.3354 0.0387,-8.6708 0,-4.3354 -0.0387,-8.6321 -0.0387,-4.3354 -0.11613,-8.6708 -0.0387,-2.0516 -0.11613,-4.1032 -0.0774,-2.0903 -0.0774,-4.1419 0,-2.0516 2.0129,-2.0516 z m 1.8193,26.748 q 2.9032,0 4.4902,-1.9742 1.5871,-1.9742 1.5871,-4.7225 0,-2.7483 -1.5484,-4.9935 -1.5096,-2.2451 -4.4902,-2.2451 h -5.6128 q 0.0387,3.4838 0.0387,6.9676 0,3.4838 0,6.9676 z m 78.734,21.638 q 0,0.89031 -0.61934,1.4709 -1.5096,1.3935 -4.0257,2.5161 -2.5161,1.0838 -5.458,1.858 -2.9032,0.77418 -5.6902,1.1613 -2.787,0.42579 -4.7999,0.42579 -6.0773,0 -11.419,-1.6645 -5.3418,-1.6645 -9.445,-4.9548 -4.0644,-3.329 -6.387,-8.245 -2.3225,-4.916 -2.3225,-11.419 0,-14.206 7.7031,-22.142 7.7031,-7.9353 22.025,-7.9353 2.3225,0 5.3418,0.34838 3.058,0.30967 5.9999,0.96772 2.9806,0.61934 5.0322,1.6258 0.54192,0.27096 0.89031,0.61934 0.34838,0.34838 0.34838,1.0064 0,0.19354 -0.38709,1.5484 -0.38709,1.3161 -0.92902,3.0193 -0.50322,1.7032 -0.96772,3.0967 -0.4258,1.3935 -0.54193,1.7419 -0.23225,0.61934 -0.58063,1.0839 -0.30968,0.4258 -1.0839,0.4258 -0.38709,0 -1.0838,-0.23225 -5.4193,-1.8967 -11.187,-1.8967 -15.561,0 -15.561,15.522 0,6.5418 3.4838,10.374 3.5225,3.7935 10.219,3.7935 0.50322,0 1.9354,-0.11612 1.4322,-0.11613 3.058,-0.34838 1.6645,-0.27097 2.8258,-0.69677 1.2,-0.42579 1.2,-1.0451 l -0.0387,-5.1483 q 0,-0.61934 -0.65805,-0.61934 h -8.0128 q -1.9742,0 -1.9742,-1.9742 v -5.458 q 0,-1.9742 1.9742,-1.9742 h 18.89 q 1.9742,0 1.9742,1.9742 0,7.1225 0.11613,14.206 0.0387,1.7806 0.0774,3.5612 0.0774,1.7419 0.0774,3.5225 z m 7.8192,-46.373 q 0,-2.0129 1.9742,-2.0129 h 32.903 q 2.0129,0 2.0129,2.0516 0,1.2387 -0.0387,2.4774 -0.0387,1.2387 -0.0774,2.4774 -0.0387,0.96772 0,1.9354 0.0387,0.92902 -0.0387,1.8967 -0.11612,1.9742 -2.0129,1.9742 h -19.354 q -0.65805,0 -0.65805,0.61934 l 0.0387,7.7031 q 0,0.61934 0.61934,0.61934 h 16.451 q 2.0129,0 2.0129,2.0129 v 7.4321 q 0,2.0129 -2.0129,2.0129 h -16.451 q -0.61934,0 -0.61934,0.61934 l -0.0387,7.974 q 0,0.61935 0.65805,0.61935 h 20.245 q 1.858,0 1.9742,1.9354 0.11613,2.0903 0.15484,4.4128 0.0387,2.3225 0.0387,4.4128 0,2.0516 -2.0129,2.0516 h -33.793 q -1.9742,0 -1.9742,-2.0129 0,-2.0516 0.0387,-4.1032 0.0774,-2.0903 0.11613,-4.1419 0.0774,-4.3741 0.11613,-8.7095 0.0387,-4.3354 0.0387,-8.6708 0,-4.3354 -0.0387,-8.6708 -0.0387,-4.3354 -0.11613,-8.6708 -0.0387,-2.0516 -0.11613,-4.1032 -0.0387,-2.0903 -0.0387,-4.1419 z"
       fill="#FF0000"
       style="paint-order:markers fill stroke"
       aria-label="FORGE"
       id="path4"
       inkscape:label="red" />
    <path
       d="m 29.069,77.666 q 0,-2.0129 1.9742,-2.0129 h 34.025 q 2.0129,0 2.0129,2.0516 0,1.3161 -0.03871,2.6709 -0.03871,1.3548 -0.07742,2.7096 -0.03871,0.8516 -0.03871,1.7419 0.03871,0.8516 -0.03871,1.7032 -0.11613,1.9354 -1.9742,1.9354 h -20.477 q -0.65805,0 -0.65805,0.61934 v 7.8192 q 0,0.61934 0.65805,0.61934 h 17.109 q 1.9742,0 1.9742,1.9742 0,2.2064 0,4.4128 0.03871,2.2064 0.03871,4.4128 0,2.0129 -2.0129,2.0129 h -17.109 q -0.65805,0 -0.65805,0.61934 0,4.4902 -0.03871,8.9805 0,4.4902 0,8.9805 0,1.9742 -1.9742,1.9742 h -10.722 q -1.9742,0 -1.9742,-2.0129 0,-2.0516 0.03871,-4.1032 0.07742,-2.0903 0.11613,-4.1419 0.07742,-4.3741 0.11613,-8.7095 0.03871,-4.3354 0.03871,-8.6708 0,-4.3354 -0.03871,-8.6708 -0.03871,-4.3354 -0.11613,-8.6708 -0.03871,-2.0516 -0.11613,-4.1032 -0.03871,-2.0903 -0.03871,-4.1419 z m 42.967,25.664 q 0,-5.5741 1.9742,-10.645 2.0129,-5.1096 5.6128,-9.0579 3.6386,-3.9483 8.516,-6.2321 4.8774,-2.2838 10.645,-2.2838 5.7676,0 10.722,2.2838 4.9547,2.2838 8.6321,6.2709 3.7161,3.987 5.7676,9.0966 2.0903,5.1096 2.0903,10.761 0,5.6128 -2.0903,10.684 -2.0516,5.0322 -5.7289,8.9418 -3.6774,3.8709 -8.6321,6.116 -4.916,2.2064 -10.645,2.2064 -5.8451,0 -10.761,-2.2064 -4.8773,-2.2451 -8.516,-6.1547 -3.5999,-3.9483 -5.6128,-9.0192 -1.9742,-5.0709 -1.9742,-10.761 z m 27.522,15.329 q 2.9806,0 5.1483,-1.3935 2.1677,-1.4322 3.5225,-3.7161 1.3935,-2.3225 2.0516,-4.9935 0.65805,-2.6709 0.65805,-5.2257 0,-3.5612 -1.3161,-7.1225 -1.2774,-3.5612 -3.9483,-5.9225 -2.6322,-2.4 -6.6967,-2.4 -3.9483,0 -6.6579,2.4 -2.6709,2.3612 -4.0644,5.8838 -1.3548,3.5225 -1.3548,7.045 0,3.6386 1.4709,7.1999 1.4709,3.5612 4.2967,5.9225 2.8258,2.3225 6.8902,2.3225 z m 52.102,-43.006 q 6.6192,0 11.806,1.8967 5.187,1.858 8.1289,6.1547 2.9806,4.258 2.9806,11.535 0,5.4967 -2.2064,10.142 -2.1677,4.6064 -7.0063,7.4321 -0.4258,0.27096 -0.4258,0.50322 0,0.15484 0.96773,1.5484 0.96772,1.3548 2.4387,3.2903 1.47098,1.9355 3.0193,3.9483 1.54832,2.0128 2.7096,3.5612 1.2,1.5484 1.5484,2.0129 0.30967,0.38709 0.61934,0.92902 0.34839,0.54193 0.34839,1.0838 0,0.8516 -0.96773,1.0451 -0.96772,0.15484 -1.5484,0.15484 h -12.077 q -0.96773,0 -1.6645,-0.89031 -0.61934,-0.85159 -1.2,-1.7806 -0.54192,-0.96772 -1.1226,-1.858 -1.7032,-2.7096 -3.3677,-5.458 -1.6645,-2.787 -3.4838,-5.458 -0.19354,-0.30968 -0.54192,-0.30968 h -2.0516 q -0.65805,0 -0.65805,0.65806 0,3.2903 -0.0387,6.5805 -0.0387,3.2516 -0.0387,6.5418 0,1.9742 -1.9742,1.9742 h -10.684 q -2.0129,0 -2.0129,-2.0516 0,-2.0516 0.0774,-4.1032 0.0774,-2.0903 0.11613,-4.1419 0.0774,-4.3354 0.11613,-8.6708 0.0387,-4.3354 0.0387,-8.6708 0,-4.3354 -0.0387,-8.6321 -0.0387,-4.3354 -0.11613,-8.6708 -0.0387,-2.0516 -0.11613,-4.1032 -0.0774,-2.0903 -0.0774,-4.1419 0,-2.0516 2.0129,-2.0516 z m 1.8193,26.748 q 2.9032,0 4.4902,-1.9742 1.5871,-1.9742 1.5871,-4.7225 0,-2.7483 -1.5484,-4.9935 -1.5096,-2.2451 -4.4902,-2.2451 h -5.6128 q 0.0387,3.4838 0.0387,6.9676 0,3.4838 0,6.9676 z m 78.734,21.638 q 0,0.89031 -0.61934,1.4709 -1.5096,1.3935 -4.0257,2.5161 -2.5161,1.0838 -5.458,1.858 -2.9032,0.77418 -5.6902,1.1613 -2.787,0.42579 -4.7999,0.42579 -6.0773,0 -11.419,-1.6645 -5.3418,-1.6645 -9.445,-4.9548 -4.0644,-3.329 -6.387,-8.245 -2.3225,-4.916 -2.3225,-11.419 0,-14.206 7.7031,-22.142 7.7031,-7.9353 22.025,-7.9353 2.3225,0 5.3418,0.34838 3.058,0.30967 5.9999,0.96772 2.9806,0.61934 5.0322,1.6258 0.54192,0.27096 0.89031,0.61934 0.34838,0.34838 0.34838,1.0064 0,0.19354 -0.38709,1.5484 -0.38709,1.3161 -0.92902,3.0193 -0.50322,1.7032 -0.96772,3.0967 -0.4258,1.3935 -0.54193,1.7419 -0.23225,0.61934 -0.58063,1.0839 -0.30968,0.4258 -1.0839,0.4258 -0.38709,0 -1.0838,-0.23225 -5.4193,-1.8967 -11.187,-1.8967 -15.561,0 -15.561,15.522 0,6.5418 3.4838,10.374 3.5225,3.7935 10.219,3.7935 0.50322,0 1.9354,-0.11612 1.4322,-0.11613 3.058,-0.34838 1.6645,-0.27097 2.8258,-0.69677 1.2,-0.42579 1.2,-1.0451 l -0.0387,-5.1483 q 0,-0.61934 -0.65805,-0.61934 h -8.0128 q -1.9742,0 -1.9742,-1.9742 v -5.458 q 0,-1.9742 1.9742,-1.9742 h 18.89 q 1.9742,0 1.9742,1.9742 0,7.1225 0.11613,14.206 0.0387,1.7806 0.0774,3.5612 0.0774,1.7419 0.0774,3.5225 z m 7.8192,-46.373 q 0,-2.0129 1.9742,-2.0129 h 32.903 q 2.0129,0 2.0129,2.0516 0,1.2387 -0.0387,2.4774 -0.0387,1.2387 -0.0774,2.4774 -0.0387,0.96772 0,1.9354 0.0387,0.92902 -0.0387,1.8967 -0.11612,1.9742 -2.0129,1.9742 h -19.354 q -0.65805,0 -0.65805,0.61934 l 0.0387,7.7031 q 0,0.61934 0.61934,0.61934 h 16.451 q 2.0129,0 2.0129,2.0129 v 7.4321 q 0,2.0129 -2.0129,2.0129 h -16.451 q -0.61934,0 -0.61934,0.61934 l -0.0387,7.974 q 0,0.61935 0.65805,0.61935 h 20.245 q 1.858,0 1.9742,1.9354 0.11613,2.0903 0.15484,4.4128 0.0387,2.3225 0.0387,4.4128 0,2.0516 -2.0129,2.0516 h -33.793 q -1.9742,0 -1.9742,-2.0129 0,-2.0516 0.0387,-4.1032 0.0774,-2.0903 0.11613,-4.1419 0.0774,-4.3741 0.11613,-8.7095 0.0387,-4.3354 0.0387,-8.6708 0,-4.3354 -0.0387,-8.6708 -0.0387,-4.3354 -0.11613,-8.6708 -0.0387,-2.0516 -0.11613,-4.1032 -0.0387,-2.0903 -0.0387,-4.1419 z"
       fill="#0000FF"
       style="paint-order:markers fill stroke"
       aria-label="FORGE"
       id="path5"
       inkscape:label="blue" />
    <path
       d="m 23.496,72.094 q 0,-2.0129 1.9742,-2.0129 h 34.025 q 2.0129,0 2.0129,2.0516 0,1.3161 -0.03871,2.6709 -0.03871,1.3548 -0.07742,2.7096 -0.03871,0.8516 -0.03871,1.7419 0.03871,0.8516 -0.03871,1.7032 -0.11613,1.9354 -1.9742,1.9354 h -20.477 q -0.65805,0 -0.65805,0.61934 v 7.8192 q 0,0.61934 0.65805,0.61934 h 17.109 q 1.9742,0 1.9742,1.9742 0,2.2064 0,4.4128 0.03871,2.2064 0.03871,4.4128 0,2.0129 -2.0129,2.0129 h -17.109 q -0.65805,0 -0.65805,0.61935 0,4.4902 -0.03871,8.9805 0,4.4902 0,8.9805 0,1.9742 -1.9742,1.9742 h -10.722 q -1.9742,0 -1.9742,-2.0129 0,-2.0516 0.03871,-4.1032 0.07742,-2.0903 0.11613,-4.1419 0.07742,-4.3741 0.11613,-8.7095 0.03871,-4.3354 0.03871,-8.6708 0,-4.3354 -0.03871,-8.6708 -0.03871,-4.3354 -0.11613,-8.6708 -0.03871,-2.0516 -0.11613,-4.1032 -0.03871,-2.0903 -0.03871,-4.1419 z m 42.967,25.664 q 0,-5.5741 1.9742,-10.645 2.0129,-5.1096 5.6128,-9.0579 3.6386,-3.9483 8.516,-6.2321 4.8773,-2.2838 10.645,-2.2838 5.7676,0 10.722,2.2838 4.9548,2.2838 8.6321,6.2709 3.7161,3.987 5.7676,9.0966 2.0903,5.1096 2.0903,10.761 0,5.6128 -2.0903,10.684 -2.0516,5.0322 -5.7289,8.9418 -3.6774,3.8709 -8.6321,6.116 -4.916,2.2064 -10.645,2.2064 -5.8451,0 -10.761,-2.2064 -4.8773,-2.2451 -8.516,-6.1547 -3.5999,-3.9483 -5.6128,-9.0192 -1.9742,-5.0709 -1.9742,-10.761 z m 27.522,15.329 q 2.9806,0 5.1483,-1.3935 2.1677,-1.4322 3.5225,-3.7161 1.3935,-2.3225 2.0516,-4.9935 0.65805,-2.6709 0.65805,-5.2257 0,-3.5612 -1.3161,-7.1225 -1.2774,-3.5612 -3.9483,-5.9225 -2.6322,-2.4 -6.6967,-2.4 -3.9483,0 -6.6579,2.4 -2.6709,2.3612 -4.0644,5.8838 -1.3548,3.5225 -1.3548,7.045 0,3.6386 1.4709,7.1999 1.4709,3.5612 4.2967,5.9225 2.8258,2.3225 6.8902,2.3225 z m 52.102,-43.006 q 6.6192,0 11.806,1.8967 5.187,1.858 8.1289,6.1547 2.9806,4.258 2.9806,11.535 0,5.4967 -2.2064,10.142 -2.1677,4.6064 -7.0063,7.4321 -0.4258,0.27096 -0.4258,0.50321 0,0.15484 0.96773,1.5484 0.96772,1.3548 2.4387,3.2903 1.4709,1.9354 3.0193,3.9483 1.5484,2.0129 2.7096,3.5612 1.2,1.5484 1.5484,2.0129 0.30968,0.38709 0.61935,0.92901 0.34838,0.54193 0.34838,1.0839 0,0.85159 -0.96773,1.0451 -0.96772,0.15483 -1.5484,0.15483 h -12.077 q -0.96772,0 -1.6645,-0.8903 -0.61935,-0.8516 -1.2,-1.7806 -0.54193,-0.96772 -1.1226,-1.858 -1.7032,-2.7096 -3.3677,-5.458 -1.6645,-2.787 -3.4838,-5.458 -0.19355,-0.30967 -0.54193,-0.30967 h -2.0516 q -0.65805,0 -0.65805,0.65805 0,3.2903 -0.0387,6.5805 -0.0387,3.2516 -0.0387,6.5418 0,1.9742 -1.9742,1.9742 h -10.684 q -2.0129,0 -2.0129,-2.0516 0,-2.0516 0.0774,-4.1032 0.0774,-2.0903 0.11612,-4.1419 0.0774,-4.3354 0.11613,-8.6708 0.0387,-4.3354 0.0387,-8.6708 0,-4.3354 -0.0387,-8.6321 -0.0387,-4.3354 -0.11613,-8.6708 -0.0387,-2.0516 -0.11612,-4.1032 -0.0774,-2.0903 -0.0774,-4.1419 0,-2.0516 2.0129,-2.0516 z m 1.8193,26.748 q 2.9032,0 4.4902,-1.9742 1.5871,-1.9742 1.5871,-4.7225 0,-2.7483 -1.5484,-4.9935 -1.5096,-2.2451 -4.4902,-2.2451 h -5.6128 q 0.0387,3.4838 0.0387,6.9676 0,3.4838 0,6.9676 z m 78.734,21.638 q 0,0.89031 -0.61935,1.4709 -1.5096,1.3935 -4.0257,2.5161 -2.5161,1.0838 -5.458,1.858 -2.9032,0.77418 -5.6902,1.1613 -2.787,0.4258 -4.7999,0.4258 -6.0773,0 -11.419,-1.6645 -5.3418,-1.6645 -9.445,-4.9548 -4.0644,-3.329 -6.387,-8.245 -2.3226,-4.916 -2.3225,-11.419 0,-14.206 7.7031,-22.142 7.7031,-7.9353 22.025,-7.9353 2.3225,0 5.3418,0.34838 3.058,0.30967 5.9999,0.96772 2.9806,0.61934 5.0322,1.6258 0.54193,0.27096 0.89031,0.61934 0.34838,0.34838 0.34838,1.0064 0,0.19354 -0.38709,1.5484 -0.38709,1.3161 -0.92902,3.0193 -0.50321,1.7032 -0.96772,3.0967 -0.4258,1.3935 -0.54193,1.7419 -0.23225,0.61934 -0.58063,1.0839 -0.30967,0.4258 -1.0838,0.4258 -0.38709,0 -1.0838,-0.23225 -5.4193,-1.8967 -11.187,-1.8967 -15.561,0 -15.561,15.522 0,6.5418 3.4838,10.374 3.5225,3.7935 10.219,3.7935 0.50321,0 1.9354,-0.11613 1.4322,-0.11613 3.058,-0.34838 1.6645,-0.27096 2.8258,-0.69676 1.2,-0.4258 1.2,-1.0451 l -0.0387,-5.1483 q 0,-0.61934 -0.65805,-0.61934 h -8.0128 q -1.9742,0 -1.9742,-1.9742 v -5.458 q 0,-1.9742 1.9742,-1.9742 h 18.89 q 1.9742,0 1.9742,1.9742 0,7.1224 0.11612,14.206 0.0387,1.7806 0.0774,3.5612 0.0774,1.7419 0.0774,3.5225 z m 7.8192,-46.373 q 0,-2.0129 1.9742,-2.0129 h 32.903 q 2.0129,0 2.0129,2.0516 0,1.2387 -0.0387,2.4774 -0.0387,1.2387 -0.0774,2.4774 -0.0387,0.96772 0,1.9354 0.0387,0.92902 -0.0387,1.8967 -0.11613,1.9742 -2.0129,1.9742 h -19.354 q -0.65806,0 -0.65806,0.61934 l 0.0387,7.7031 q 0,0.61934 0.61935,0.61934 h 16.451 q 2.0129,0 2.0129,2.0129 v 7.4321 q 0,2.0129 -2.0129,2.0129 h -16.451 q -0.61935,0 -0.61935,0.61935 l -0.0387,7.974 q 0,0.61934 0.65806,0.61934 h 20.245 q 1.858,0 1.9742,1.9354 0.11613,2.0903 0.15484,4.4128 0.0387,2.3225 0.0387,4.4128 0,2.0516 -2.0129,2.0516 h -33.793 q -1.9742,0 -1.9742,-2.0129 0,-2.0516 0.0387,-4.1032 0.0774,-2.0903 0.11613,-4.1419 0.0774,-4.3741 0.11612,-8.7095 0.0387,-4.3354 0.0387,-8.6708 0,-4.3354 -0.0387,-8.6708 -0.0387,-4.3354 -0.11612,-8.6708 -0.0387,-2.0516 -0.11613,-4.1032 -0.0387,-2.0903 -0.0387,-4.1419 z"
       fill="#ffffff"
       style="paint-order:markers fill stroke"
       aria-label="FORGE"
       id="path6"
       inkscape:label="white" />
  </g>
</svg>
