<?xml version="1.0" encoding="UTF-8"?>
<!-- Created with Inkscape (http://www.inkscape.org/) -->
<svg width="512" height="512" version="1.1" viewBox="0 0 512 512" xml:space="preserve" xmlns="http://www.w3.org/2000/svg"><path transform="matrix(1.2256 0 0 1.2256 -53.561 2.3279)" d="m82.444 29.022 359.63 149.26a31.423 31.423 90 0 1 0 58.045l-357.92 148.55a28.69 28.69 47.16 0 1-36.593-39.461l48.622-96.007a37.239 37.239 144.06 0 1 27.559-19.981l143.65-22.1a0.023313 0.023313 90 0 0 0-0.0461l-144.53-22.235a35.506 35.506 35.943 0 1-26.277-19.051l-49.859-98.45a28.007 28.007 132.84 0 1 35.721-38.521z" style="paint-order:stroke fill markers"/></svg>
