<svg width="250" height="250" version="1.1" viewBox="0 0 66.146 66.146" xmlns="http://www.w3.org/2000/svg">
 <g transform="matrix(.99644 0 0 .99644 -72.898 -144.14)">
  <path d="m78.985 146.71c0-1.3677.67097-2.0516 2.0129-2.0516h17.767c2.2193 0 4.5548.20645 7.0063.61934s4.7354 1.1355 6.8515 2.1677c2.1419 1.0065 3.8709 2.4129 5.187 4.2193 1.3419 1.8064 2.0129 4.0902 2.0129 6.8515 0 2.3741-.4903 4.5031-1.4709 6.387-.9806 1.858-2.387 3.5096-4.2193 4.9548-.10323.0774-.20645.16774-.30967.27096-.10323.0774-.15484.18064-.15484.30967 0 .15484.0645.28387.19354.38709.12903.0774.24515.14193.34838.19354 2.4516 1.3935 4.4516 3.0709 5.9999 5.0322 1.5741 1.9355 2.3612 4.3999 2.3612 7.3934 0 3.1483-.61933 5.7805-1.858 7.8966s-2.9032 3.8064-4.9935 5.0709c-2.0645 1.2387-4.387 2.129-6.9676 2.6709s-5.2128.81289-7.8966.81289h-19.858c-1.3419 0-2.0129-.68387-2.0129-2.0516s.0258-2.7355.0774-4.1032c.0516-1.3935.09031-2.7742.11613-4.1419.0516-2.8903.09031-5.7805.11613-8.6708.0258-2.8903.0387-5.7805.0387-8.6708 0-2.8903-.0129-5.7676-.0387-8.6321-.0258-2.8903-.06451-5.7805-.11613-8.6708-.0258-1.3677-.06451-2.7355-.11613-4.1032-.0516-1.3935-.0774-2.7742-.0774-4.1419zm20.709 19.471c1.3677 0 2.5419-.4387 3.5225-1.3161 1.0064-.90319 1.5096-2.0516 1.5096-3.4451 0-1.4451-.58063-2.4645-1.7419-3.058-1.1613-.59354-2.3483-.89031-3.5612-.89031h-5.6902c.0258 1.4451.0387 2.9032.0387 4.3741v4.3354zm.15484 21.329c.9806 0 2.0645-.10322 3.2516-.30967 1.2129-.20644 2.258-.61934 3.1354-1.2387.8774-.64515 1.3161-1.6129 1.3161-2.9032 0-1.3935-.4774-2.3742-1.4322-2.9419-.929-.56773-2.0387-.90319-3.329-1.0064-1.2645-.10323-2.3999-.15484-3.4064-.15484h-5.6128c0 1.4193-.0129 2.8387-.0387 4.258v4.2967z" fill="#ff2e50" style="paint-order:markers fill stroke" aria-label="BRAND"/>
  <path d="m90.129 157.85c0-1.3677.67097-2.0516 2.0129-2.0516h17.767c2.2193 0 4.5548.20644 7.0063.61933 2.4516.4129 4.7354 1.1355 6.8515 2.1677 2.1419 1.0065 3.8709 2.4129 5.187 4.2193 1.3419 1.8064 2.0129 4.0902 2.0129 6.8515 0 2.3741-.4903 4.5031-1.4709 6.387-.9806 1.858-2.387 3.5096-4.2193 4.9548-.10323.0774-.20645.16774-.30967.27096-.10323.0774-.15484.18064-.15484.30967 0 .15483.0645.28386.19354.38709.12903.0774.24515.14193.34838.19354 2.4516 1.3935 4.4516 3.0709 5.9999 5.0322 1.5741 1.9355 2.3612 4.3999 2.3612 7.3934 0 3.1483-.61933 5.7805-1.858 7.8966s-2.9032 3.8064-4.9935 5.0709c-2.0645 1.2387-4.387 2.129-6.9676 2.6709s-5.2128.81289-7.8966.81289h-19.858c-1.3419 0-2.0129-.68387-2.0129-2.0516s.0258-2.7355.0774-4.1032c.0516-1.3935.09031-2.7742.11613-4.1419.0516-2.8903.09031-5.7805.11613-8.6708.0258-2.8903.0387-5.7805.0387-8.6708 0-2.8903-.0129-5.7676-.0387-8.6321-.0258-2.8903-.06451-5.7805-.11613-8.6708-.0258-1.3677-.06451-2.7355-.11613-4.1032-.0516-1.3935-.0774-2.7742-.0774-4.1419zm20.709 19.471c1.3677 0 2.5419-.4387 3.5225-1.3161 1.0065-.90319 1.5097-2.0516 1.5097-3.4451 0-1.4451-.58063-2.4645-1.7419-3.058-1.1613-.59354-2.3483-.89031-3.5612-.89031h-5.6902c.0258 1.4451.0387 2.9032.0387 4.3741v4.3354zm.15484 21.329c.9806 0 2.0645-.10322 3.2516-.30967 1.2129-.20644 2.258-.61934 3.1354-1.2387.8774-.64515 1.3161-1.6129 1.3161-2.9032 0-1.3935-.4774-2.3742-1.4322-2.9419-.929-.56773-2.0387-.9032-3.329-1.0064-1.2645-.10323-2.3999-.15485-3.4064-.15485h-5.6128c0 1.4193-.0129 2.8387-.0387 4.258v4.2967z" fill="#2e50ff" style="paint-order:markers fill stroke" aria-label="BRAND"/>
  <path d="m84.557 152.28c0-1.3677.67097-2.0516 2.0129-2.0516h17.767c2.2193 0 4.5548.20645 7.0063.61934 2.4516.41289 4.7354 1.1355 6.8515 2.1677 2.1419 1.0065 3.8709 2.4129 5.187 4.2193 1.3419 1.8064 2.0129 4.0902 2.0129 6.8515 0 2.3741-.4903 4.5031-1.4709 6.387-.9806 1.858-2.387 3.5096-4.2193 4.9548-.10323.0774-.20645.16774-.30967.27096-.10323.0774-.15484.18064-.15484.30967 0 .15483.0645.28386.19354.38709.12903.0774.24515.14193.34838.19354 2.4516 1.3935 4.4516 3.0709 5.9999 5.0322 1.5741 1.9355 2.3612 4.3999 2.3612 7.3934 0 3.1483-.61933 5.7805-1.858 7.8966-1.2387 2.1161-2.9032 3.8064-4.9935 5.0709-2.0645 1.2387-4.387 2.129-6.9676 2.6709s-5.2128.8129-7.8966.8129h-19.858c-1.3419 0-2.0129-.68387-2.0129-2.0516 0-1.3677.0258-2.7355.0774-4.1032.0516-1.3935.09031-2.7742.11613-4.1419.0516-2.8903.09031-5.7805.11613-8.6708.0258-2.8903.0387-5.7805.0387-8.6708 0-2.8903-.0129-5.7676-.0387-8.6321-.0258-2.8903-.06451-5.7805-.11613-8.6708-.0258-1.3677-.06451-2.7355-.11613-4.1032-.0516-1.3935-.0774-2.7742-.0774-4.1419zm20.709 19.471c1.3677 0 2.5419-.4387 3.5225-1.3161 1.0065-.9032 1.5097-2.0516 1.5097-3.4451 0-1.4451-.58063-2.4645-1.7419-3.058-1.1613-.59354-2.3483-.89031-3.5612-.89031h-5.6902c.0258 1.4451.0387 2.9032.0387 4.3741v4.3354zm.15484 21.329c.9806 0 2.0645-.10323 3.2516-.30968 1.2129-.20645 2.258-.61935 3.1354-1.2387.8774-.64515 1.3161-1.6129 1.3161-2.9032 0-1.3935-.4774-2.3742-1.4322-2.9419-.929-.56773-2.0387-.90319-3.329-1.0064-1.2645-.10322-2.3999-.15483-3.4064-.15483h-5.6128c0 1.4193-.0129 2.8387-.0387 4.258v4.2967z" fill="#fff" style="paint-order:markers fill stroke" aria-label="BRAND"/>
 </g>
</svg>
